GARCIA-Regular.ufo
<glyph name="exclam" format="1">
  <advance width="275"/>
  <unicode hex="0021"/>
  <note>
    exclam
  </note>
  <outline>
    <contour>
      <point x="92" y="534" type="line"/>
      <point x="88" y="650" type="line"/>
      <point x="185" y="650" type="line"/>
      <point x="180" y="534" type="line"/>
    </contour>
    <contour>
      <point x="177" y="0" type="line"/>
      <point x="177" y="95" type="line"/>
      <point x="95" y="95" type="line"/>
      <point x="95" y="0" type="line"/>
    </contour>
    <contour>
      <point x="180" y="534" type="line"/>
      <point x="166" y="181" type="line"/>
      <point x="105" y="181" type="line"/>
      <point x="92" y="534" type="line"/>
    </contour>
  </outline>
</glyph>
<glyph name="quotedbl" format="1">
  <advance width="422"/>
  <unicode hex="0022"/>
  <note>
    quotedbl
  </note>
  <outline>
    <contour>
      <point x="341" y="640" type="line"/>
      <point x="246" y="640" type="line"/>
      <point x="260" y="460" type="line"/>
      <point x="313" y="460" type="line"/>
    </contour>
    <contour>
      <point x="172" y="640" type="line"/>
      <point x="77" y="640" type="line"/>
      <point x="111" y="460" type="line"/>
      <point x="164" y="460" type="line"/>
    </contour>
  </outline>
</glyph>
<glyph name="dollar" format="1">
  <advance width="457"/>
  <unicode hex="0024"/>
  <note>
    dollar
  </note>
  <outline>
    <contour>
      <point x="245" y="670" type="line"/>
      <point x="194" y="670" type="line"/>
      <point x="188" y="515" type="line"/>
      <point x="251" y="515" type="line"/>
    </contour>
    <contour>
      <point x="194" y="-30" type="line"/>
      <point x="245" y="-30" type="line"/>
      <point x="251" y="106" type="line"/>
      <point x="188" y="106" type="line"/>
    </contour>
    <component base="s" yOffset="85"/>
  </outline>
</glyph>
<glyph name="percent" format="1">
  <advance width="800"/>
  <unicode hex="0025"/>
  <note>
    percent
  </note>
  <outline>
    <contour>
      <point x="95" y="1" type="line"/>
      <point x="177" y="1" type="line"/>
      <point x="554" y="639" type="line"/>
      <point x="472" y="639" type="line"/>
    </contour>
    <contour>
      <point x="583" y="-10"/>
      <point x="620" y="55"/>
      <point x="620" y="130" type="curve"/>
      <point x="620" y="184"/>
      <point x="587" y="253"/>
      <point x="497" y="253" type="curve"/>
      <point x="405" y="253"/>
      <point x="373" y="184"/>
      <point x="373" y="130" type="curve"/>
      <point x="373" y="55"/>
      <point x="410" y="-10"/>
      <point x="497" y="-10" type="curve"/>
    </contour>
    <contour>
      <point x="450" y="49"/>
      <point x="435" y="93"/>
      <point x="435" y="121" type="curve" smooth="yes"/>
      <point x="435" y="151"/>
      <point x="447" y="186"/>
      <point x="497" y="186" type="curve"/>
      <point x="551" y="186"/>
      <point x="559" y="152"/>
      <point x="559" y="121" type="curve" smooth="yes"/>
      <point x="559" y="93"/>
      <point x="543" y="49"/>
      <point x="497" y="49" type="curve"/>
    </contour>
    <contour>
      <point x="240" y="386"/>
      <point x="277" y="451"/>
      <point x="277" y="526" type="curve"/>
      <point x="277" y="580"/>
      <point x="244" y="649"/>
      <point x="154" y="649" type="curve"/>
      <point x="62" y="649"/>
      <point x="30" y="580"/>
      <point x="30" y="526" type="curve"/>
      <point x="30" y="451"/>
      <point x="67" y="386"/>
      <point x="154" y="386" type="curve"/>
    </contour>
    <contour>
      <point x="107" y="445"/>
      <point x="92" y="489"/>
      <point x="92" y="517" type="curve" smooth="yes"/>
      <point x="92" y="547"/>
      <point x="104" y="582"/>
      <point x="154" y="582" type="curve"/>
      <point x="208" y="582"/>
      <point x="216" y="548"/>
      <point x="216" y="517" type="curve" smooth="yes"/>
      <point x="216" y="489"/>
      <point x="200" y="445"/>
      <point x="154" y="445" type="curve"/>
    </contour>
  </outline>
</glyph>
<glyph name="ampersand" format="1">
  <advance width="719"/>
  <unicode hex="0026"/>
  <note>
    ampersand
  </note>
  <outline>
    <contour>
      <point x="206" y="565" type="line"/>
      <point x="561" y="565" type="line"/>
      <point x="561" y="640" type="line"/>
      <point x="115" y="640" type="line"/>
      <point x="115" y="565" type="line"/>
      <point x="595" y="0" type="line"/>
      <point x="681" y="0" type="line"/>
    </contour>
    <contour>
      <point x="281" y="470" type="line"/>
      <point x="116" y="470"/>
      <point x="41" y="364"/>
      <point x="41" y="236" type="curve" smooth="yes"/>
      <point x="41" y="107"/>
      <point x="142" y="-11"/>
      <point x="279" y="-11" type="curve" smooth="yes"/>
      <point x="493" y="-11"/>
      <point x="575" y="186"/>
      <point x="561" y="391" type="curve"/>
      <point x="495" y="391" type="line"/>
      <point x="507" y="182"/>
      <point x="429" y="60"/>
      <point x="282" y="60" type="curve" smooth="yes"/>
      <point x="180" y="60"/>
      <point x="114" y="147"/>
      <point x="114" y="236" type="curve" smooth="yes"/>
      <point x="114" y="376"/>
      <point x="221" y="412"/>
      <point x="323" y="412" type="curve"/>
    </contour>
  </outline>
</glyph>
<glyph name="quotesingle" format="1">
  <advance width="169"/>
  <unicode hex="0027"/>
  <note>
    quotesingle
  </note>
  <outline>
    <contour>
      <point x="44" y="640" type="line"/>
      <point x="36" y="460" type="line"/>
      <point x="81" y="460" type="line"/>
      <point x="128" y="640" type="line"/>
    </contour>
  </outline>
</glyph>
<glyph name="parenleft" format="1">
  <advance width="261"/>
  <unicode hex="0028"/>
  <note>
    parenleft
  </note>
  <outline>
    <contour>
      <point x="146" y="730" type="line"/>
      <point x="71" y="619"/>
      <point x="25" y="491"/>
      <point x="24" y="299" type="curve"/>
      <point x="93" y="294" type="line"/>
      <point x="96" y="495"/>
      <point x="146" y="636"/>
      <point x="217" y="730" type="curve"/>
    </contour>
    <contour>
      <point x="208" y="-120" type="line"/>
      <point x="174" y="-63"/>
      <point x="96" y="83"/>
      <point x="93" y="294" type="curve"/>
      <point x="24" y="299" type="line"/>
      <point x="25" y="99"/>
      <point x="98" y="-48"/>
      <point x="147" y="-120" type="curve"/>
    </contour>
  </outline>
</glyph>
<glyph name="asterisk" format="1">
  <advance width="398"/>
  <unicode hex="002A"/>
  <note>
    asterisk
  </note>
  <outline>
    <contour>
      <point x="152" y="517" type="line"/>
      <point x="77" y="475" type="line"/>
      <point x="93" y="446" type="line"/>
      <point x="181" y="482" type="line"/>
      <point x="180" y="395" type="line"/>
      <point x="215" y="395" type="line"/>
      <point x="227" y="489" type="line"/>
      <point x="302" y="446" type="line"/>
      <point x="318" y="475" type="line"/>
      <point x="243" y="533" type="line"/>
      <point x="318" y="575" type="line"/>
      <point x="302" y="604" type="line"/>
      <point x="214" y="568" type="line"/>
      <point x="215" y="655" type="line"/>
      <point x="180" y="655" type="line"/>
      <point x="168" y="561" type="line"/>
      <point x="93" y="604" type="line"/>
      <point x="77" y="575" type="line"/>
    </contour>
  </outline>
</glyph>
<glyph name="plus" format="1">
  <advance width="581"/>
  <unicode hex="002B"/>
  <note>
    plus
  </note>
  <outline>
    <contour>
      <point x="324" y="105" type="line"/>
      <point x="324" y="506" type="line"/>
      <point x="258" y="506" type="line"/>
      <point x="258" y="105" type="line"/>
    </contour>
    <contour>
      <point x="90" y="273" type="line"/>
      <point x="491" y="273" type="line"/>
      <point x="491" y="339" type="line"/>
      <point x="90" y="339" type="line"/>
    </contour>
  </outline>
</glyph>
<glyph name="comma" format="1">
  <advance width="182"/>
  <unicode hex="002C"/>
  <note>
    comma
  </note>
  <outline>
    <contour>
      <point x="57" y="95" type="line"/>
      <point x="49" y="-123" type="line"/>
      <point x="96" y="-123" type="line"/>
      <point x="149" y="95" type="line"/>
    </contour>
  </outline>
</glyph>
<glyph name="hyphen" format="1">
  <advance width="431"/>
  <unicode hex="002D"/>
  <note>
    hyphen
  </note>
  <outline>
    <contour>
      <point x="50" y="237" type="line"/>
      <point x="361" y="237" type="line"/>
      <point x="361" y="305" type="line"/>
      <point x="50" y="305" type="line"/>
    </contour>
  </outline>
</glyph>
<glyph name="period" format="1">
  <advance width="222"/>
  <unicode hex="002E"/>
  <note>
    period
  </note>
  <outline>
    <contour>
      <point x="152" y="0" type="line"/>
      <point x="152" y="95" type="line"/>
      <point x="70" y="95" type="line"/>
      <point x="70" y="0" type="line"/>
    </contour>
  </outline>
</glyph>
<glyph name="slash" format="1">
  <advance width="352"/>
  <unicode hex="002F"/>
  <note>
    slash
  </note>
  <outline>
    <contour>
      <point x="233" y="670" type="line"/>
      <point x="302" y="670" type="line"/>
      <point x="121" y="-60" type="line"/>
      <point x="50" y="-60" type="line"/>
    </contour>
    <contour>
      <point x="233" y="670" type="line"/>
      <point x="302" y="670" type="line"/>
      <point x="121" y="-60" type="line"/>
      <point x="50" y="-60" type="line"/>
    </contour>
  </outline>
</glyph>
<glyph name="one" format="1">
  <advance width="403"/>
  <unicode hex="0031"/>
  <note>
    one
  </note>
  <outline>
    <contour>
      <point x="303" y="0" type="line"/>
      <point x="303" y="640" type="line"/>
      <point x="225" y="640" type="line"/>
      <point x="159" y="592"/>
      <point x="92" y="544"/>
      <point x="26" y="496" type="curve"/>
      <point x="26" y="411" type="line"/>
      <point x="92" y="456"/>
      <point x="157" y="501"/>
      <point x="223" y="546" type="curve"/>
      <point x="223" y="0" type="line"/>
    </contour>
  </outline>
</glyph>
<glyph name="three" format="1">
  <advance width="597"/>
  <unicode hex="0033"/>
  <note>
    three
  </note>
  <outline>
    <contour>
      <point x="71" y="82" type="line"/>
      <point x="107" y="27"/>
      <point x="187" y="-10"/>
      <point x="287" y="-10" type="curve" smooth="yes"/>
      <point x="418" y="-10"/>
      <point x="533" y="77"/>
      <point x="533" y="198" type="curve" smooth="yes"/>
      <point x="533" y="332"/>
      <point x="424" y="385"/>
      <point x="296" y="385" type="curve" smooth="yes"/>
      <point x="278" y="385"/>
      <point x="259" y="384"/>
      <point x="240" y="382" type="curve"/>
      <point x="240" y="355" type="line"/>
      <point x="479" y="565" type="line"/>
      <point x="479" y="640" type="line"/>
      <point x="73" y="640" type="line"/>
      <point x="73" y="565" type="line"/>
      <point x="376" y="565" type="line"/>
      <point x="146" y="346" type="line"/>
      <point x="169" y="309" type="line"/>
      <point x="193" y="316"/>
      <point x="231" y="321"/>
      <point x="271" y="321" type="curve" smooth="yes"/>
      <point x="357" y="321"/>
      <point x="453" y="285"/>
      <point x="453" y="193" type="curve" smooth="yes"/>
      <point x="453" y="111"/>
      <point x="391" y="60"/>
      <point x="277" y="60" type="curve" smooth="yes"/>
      <point x="159" y="60"/>
      <point x="106" y="121"/>
      <point x="71" y="152" type="curve"/>
    </contour>
  </outline>
</glyph>
<glyph name="four" format="1">
  <advance width="590"/>
  <unicode hex="0034"/>
  <note>
    four
  </note>
  <outline>
    <contour>
      <point x="364" y="131" type="line"/>
      <point x="364" y="0" type="line"/>
      <point x="443" y="0" type="line"/>
      <point x="443" y="131" type="line"/>
      <point x="540" y="131" type="line"/>
      <point x="540" y="203" type="line"/>
      <point x="443" y="203" type="line"/>
      <point x="443" y="640" type="line"/>
      <point x="311" y="640" type="line"/>
      <point x="51" y="201" type="line"/>
      <point x="50" y="131" type="line"/>
    </contour>
    <contour>
      <point x="364" y="591" type="line"/>
      <point x="364" y="201" type="line"/>
      <point x="139" y="201" type="line"/>
    </contour>
  </outline>
</glyph>
<glyph name="five" format="1">
  <advance width="565"/>
  <unicode hex="0035"/>
  <note>
    five
  </note>
  <outline>
    <contour>
      <point x="156" y="306"/>
      <point x="215" y="322"/>
      <point x="272" y="320" type="curve" smooth="yes"/>
      <point x="362" y="317"/>
      <point x="428" y="278"/>
      <point x="428" y="192" type="curve" smooth="yes"/>
      <point x="428" y="108"/>
      <point x="362" y="63"/>
      <point x="270" y="63" type="curve" smooth="yes"/>
      <point x="175" y="63"/>
      <point x="115" y="99"/>
      <point x="70" y="132" type="curve"/>
      <point x="70" y="60" type="line"/>
      <point x="115" y="20"/>
      <point x="175" y="-10"/>
      <point x="270" y="-10" type="curve" smooth="yes"/>
      <point x="401" y="-10"/>
      <point x="508" y="64"/>
      <point x="508" y="192" type="curve" smooth="yes"/>
      <point x="508" y="347"/>
      <point x="380" y="390"/>
      <point x="264" y="387" type="curve" smooth="yes"/>
      <point x="219" y="386"/>
      <point x="173" y="375"/>
      <point x="133" y="356" type="curve"/>
      <point x="150" y="296" type="line"/>
      <point x="150" y="560" type="line"/>
      <point x="456" y="560" type="line"/>
      <point x="456" y="639" type="line"/>
      <point x="70" y="639" type="line"/>
      <point x="70" y="280" type="line"/>
      <point x="100" y="272" type="line"/>
    </contour>
  </outline>
</glyph>
<glyph name="six" format="1">
  <advance width="534"/>
  <unicode hex="0036"/>
  <note>
    six
  </note>
  <outline>
    <contour>
      <point x="205" y="391"/>
      <point x="133" y="334"/>
      <point x="111" y="275" type="curve"/>
      <point x="110" y="291"/>
      <point x="110" y="285"/>
      <point x="110" y="300" type="curve" smooth="yes"/>
      <point x="110" y="466"/>
      <point x="174" y="575"/>
      <point x="305" y="575" type="curve" smooth="yes"/>
      <point x="347" y="575"/>
      <point x="396" y="563"/>
      <point x="451" y="534" type="curve"/>
      <point x="451" y="607" type="line"/>
      <point x="413" y="635"/>
      <point x="348" y="650"/>
      <point x="299" y="650" type="curve" smooth="yes"/>
      <point x="120" y="650"/>
      <point x="39" y="511"/>
      <point x="39" y="300" type="curve" smooth="yes"/>
      <point x="39" y="144"/>
      <point x="112" y="-11"/>
      <point x="284" y="-11" type="curve" smooth="yes"/>
      <point x="408" y="-11"/>
      <point x="494" y="76"/>
      <point x="494" y="200" type="curve" smooth="yes"/>
      <point x="494" y="323"/>
      <point x="412" y="391"/>
      <point x="296" y="391" type="curve" smooth="yes"/>
    </contour>
    <contour>
      <point x="187" y="59"/>
      <point x="140" y="139"/>
      <point x="128" y="207" type="curve"/>
      <point x="140" y="251"/>
      <point x="190" y="323"/>
      <point x="290" y="323" type="curve" smooth="yes"/>
      <point x="380" y="323"/>
      <point x="424" y="260"/>
      <point x="424" y="192" type="curve" smooth="yes"/>
      <point x="424" y="111"/>
      <point x="368" y="59"/>
      <point x="284" y="59" type="curve" smooth="yes"/>
    </contour>
  </outline>
</glyph>
<glyph name="seven" format="1">
  <advance width="478"/>
  <unicode hex="0037"/>
  <note>
    seven
  </note>
  <outline>
    <contour>
      <point x="428" y="640" type="line"/>
      <point x="428" y="562" type="line"/>
      <point x="164" y="0" type="line"/>
      <point x="79" y="0" type="line"/>
      <point x="340" y="560" type="line"/>
      <point x="4" y="559" type="line"/>
      <point x="4" y="640" type="line"/>
    </contour>
  </outline>
</glyph>
<glyph name="eight" format="1">
  <advance width="596"/>
  <unicode hex="0038"/>
  <note>
    eight
  </note>
  <outline>
    <contour>
      <point x="480" y="363"/>
      <point x="504" y="424"/>
      <point x="504" y="481" type="curve" smooth="yes"/>
      <point x="504" y="587"/>
      <point x="416" y="650"/>
      <point x="301" y="650" type="curve" smooth="yes"/>
      <point x="189" y="650"/>
      <point x="101" y="587"/>
      <point x="101" y="481" type="curve" smooth="yes"/>
      <point x="101" y="414"/>
      <point x="130" y="362"/>
      <point x="174" y="335" type="curve"/>
      <point x="110" y="311"/>
      <point x="76" y="239"/>
      <point x="76" y="182" type="curve" smooth="yes"/>
      <point x="76" y="55"/>
      <point x="183" y="-9"/>
      <point x="299" y="-9" type="curve" smooth="yes"/>
      <point x="427" y="-9"/>
      <point x="529" y="55"/>
      <point x="529" y="182" type="curve" smooth="yes"/>
      <point x="529" y="237"/>
      <point x="491" y="316"/>
      <point x="431" y="336" type="curve"/>
    </contour>
    <contour>
      <point x="371" y="574"/>
      <point x="422" y="537"/>
      <point x="422" y="465" type="curve" smooth="yes"/>
      <point x="422" y="408"/>
      <point x="388" y="356"/>
      <point x="300" y="356" type="curve" smooth="yes"/>
      <point x="220" y="356"/>
      <point x="181" y="404"/>
      <point x="181" y="465" type="curve" smooth="yes"/>
      <point x="181" y="537"/>
      <point x="232" y="574"/>
      <point x="300" y="574" type="curve" smooth="yes"/>
    </contour>
    <contour>
      <point x="221" y="60"/>
      <point x="157" y="100"/>
      <point x="157" y="182" type="curve" smooth="yes"/>
      <point x="157" y="252"/>
      <point x="199" y="298"/>
      <point x="301" y="298" type="curve" smooth="yes"/>
      <point x="399" y="298"/>
      <point x="450" y="257"/>
      <point x="450" y="182" type="curve" smooth="yes"/>
      <point x="450" y="100"/>
      <point x="394" y="60"/>
      <point x="301" y="60" type="curve" smooth="yes"/>
    </contour>
  </outline>
</glyph>
<glyph name="nine" format="1">
  <advance width="562"/>
  <unicode hex="0039"/>
  <note>
    nine
  </note>
  <outline>
    <contour>
      <point x="447" y="455" type="line"/>
      <point x="447" y="382"/>
      <point x="396" y="296"/>
      <point x="279" y="296" type="curve" smooth="yes"/>
      <point x="175" y="296"/>
      <point x="136" y="364"/>
      <point x="136" y="442" type="curve" smooth="yes"/>
      <point x="136" y="509"/>
      <point x="192" y="568"/>
      <point x="270" y="568" type="curve" smooth="yes"/>
      <point x="405" y="568"/>
      <point x="432" y="452"/>
      <point x="432" y="351" type="curve" smooth="yes"/>
      <point x="432" y="175"/>
      <point x="368" y="59"/>
      <point x="237" y="59" type="curve" smooth="yes"/>
      <point x="188" y="59"/>
      <point x="127" y="77"/>
      <point x="99" y="106" type="curve"/>
      <point x="99" y="41" type="line"/>
      <point x="139" y="0"/>
      <point x="199" y="-11"/>
      <point x="248" y="-11" type="curve" smooth="yes"/>
      <point x="391" y="-11"/>
      <point x="502" y="121"/>
      <point x="502" y="342" type="curve" smooth="yes"/>
      <point x="502" y="525"/>
      <point x="442" y="650"/>
      <point x="270" y="650" type="curve" smooth="yes"/>
      <point x="147" y="650"/>
      <point x="60" y="557"/>
      <point x="60" y="436" type="curve" smooth="yes"/>
      <point x="60" y="309"/>
      <point x="159" y="231"/>
      <point x="264" y="231" type="curve" smooth="yes"/>
      <point x="401" y="231"/>
      <point x="454" y="321"/>
      <point x="482" y="375" type="curve"/>
    </contour>
  </outline>
</glyph>
<glyph name="colon" format="1">
  <advance width="212"/>
  <unicode hex="003A"/>
  <note>
    colon
  </note>
  <outline>
    <contour>
      <point x="152" y="375" type="line"/>
      <point x="152" y="460" type="line"/>
      <point x="70" y="460" type="line"/>
      <point x="70" y="375" type="line"/>
    </contour>
    <contour>
      <point x="152" y="61" type="line"/>
      <point x="152" y="146" type="line"/>
      <point x="70" y="146" type="line"/>
      <point x="70" y="61" type="line"/>
    </contour>
  </outline>
</glyph>
<glyph name="semicolon" format="1">
  <advance width="200"/>
  <unicode hex="003B"/>
  <note>
    semicolon
  </note>
  <outline>
    <contour>
      <point x="57" y="95" type="line"/>
      <point x="49" y="-123" type="line"/>
      <point x="96" y="-123" type="line"/>
      <point x="149" y="95" type="line"/>
    </contour>
    <contour>
      <point x="152" y="364" type="line"/>
      <point x="152" y="459" type="line"/>
      <point x="70" y="459" type="line"/>
      <point x="70" y="364" type="line"/>
    </contour>
  </outline>
</glyph>
<glyph name="less" format="1">
  <advance width="416"/>
  <unicode hex="003C"/>
  <note>
    less
  </note>
  <outline>
    <contour>
      <point x="232" y="227" type="line"/>
      <point x="205" y="244" type="line"/>
      <point x="233" y="262" type="line"/>
      <point x="341" y="387" type="line"/>
      <point x="286" y="429" type="line"/>
      <point x="135" y="258" type="line"/>
      <point x="122" y="243" type="line"/>
      <point x="289" y="61" type="line"/>
      <point x="340" y="106" type="line"/>
    </contour>
  </outline>
</glyph>
<glyph name="equal" format="1">
  <advance width="550"/>
  <unicode hex="003D"/>
  <note>
    equal
  </note>
  <outline>
    <contour>
      <point x="472" y="393" type="line"/>
      <point x="472" y="325" type="line"/>
      <point x="117" y="325" type="line"/>
      <point x="117" y="393" type="line"/>
    </contour>
    <contour>
      <point x="472" y="208" type="line"/>
      <point x="472" y="140" type="line"/>
      <point x="117" y="140" type="line"/>
      <point x="117" y="208" type="line"/>
    </contour>
  </outline>
</glyph>
<glyph name="greater" format="1">
  <advance width="416"/>
  <unicode hex="003E"/>
  <note>
    greater
  </note>
  <outline>
    <contour>
      <point x="174" y="61" type="line"/>
      <point x="341" y="243" type="line"/>
      <point x="328" y="258" type="line"/>
      <point x="177" y="429" type="line"/>
      <point x="122" y="387" type="line"/>
      <point x="230" y="262" type="line"/>
      <point x="258" y="244" type="line"/>
      <point x="231" y="227" type="line"/>
      <point x="123" y="106" type="line"/>
    </contour>
  </outline>
</glyph>
<glyph name="question" format="1">
  <advance width="558"/>
  <unicode hex="003F"/>
  <note>
    question
  </note>
  <outline>
    <contour>
      <point x="91" y="529"/>
      <point x="163" y="574"/>
      <point x="248" y="574" type="curve" smooth="yes"/>
      <point x="355" y="574"/>
      <point x="428" y="529"/>
      <point x="428" y="437" type="curve" smooth="yes"/>
      <point x="428" y="332"/>
      <point x="290" y="290"/>
      <point x="195" y="291" type="curve"/>
      <point x="203" y="148" type="line"/>
      <point x="253" y="148" type="line"/>
      <point x="268" y="246" type="line"/>
      <point x="201" y="259" type="line"/>
      <point x="202" y="239" type="line"/>
      <point x="302" y="226"/>
      <point x="508" y="291"/>
      <point x="508" y="453" type="curve" smooth="yes"/>
      <point x="508" y="579"/>
      <point x="404" y="649"/>
      <point x="255" y="649" type="curve" smooth="yes"/>
      <point x="155" y="649"/>
      <point x="82" y="601"/>
      <point x="66" y="578" type="curve"/>
      <point x="66" y="505" type="line"/>
    </contour>
    <contour>
      <point x="269" y="0" type="line"/>
      <point x="269" y="70" type="line"/>
      <point x="187" y="70" type="line"/>
      <point x="187" y="0" type="line"/>
    </contour>
  </outline>
</glyph>
<glyph name="at" format="1">
  <advance width="864"/>
  <unicode hex="0040"/>
  <note>
    at
  </note>
  <outline>
    <contour>
      <point x="517" y="202" type="line"/>
      <point x="521" y="107"/>
      <point x="566" y="35"/>
      <point x="654" y="35" type="curve" smooth="yes"/>
      <point x="762" y="35"/>
      <point x="822" y="146"/>
      <point x="822" y="296" type="curve" smooth="yes"/>
      <point x="822" y="502"/>
      <point x="685" y="648"/>
      <point x="445" y="648" type="curve" smooth="yes"/>
      <point x="209" y="648"/>
      <point x="44" y="483"/>
      <point x="44" y="251" type="curve" smooth="yes"/>
      <point x="44" y="35"/>
      <point x="188" y="-116"/>
      <point x="401" y="-116" type="curve" smooth="yes"/>
      <point x="486" y="-116"/>
      <point x="548" y="-94"/>
      <point x="575" y="-76" type="curve"/>
      <point x="575" y="-31" type="line"/>
      <point x="543" y="-53"/>
      <point x="466" y="-73"/>
      <point x="404" y="-73" type="curve" smooth="yes"/>
      <point x="213" y="-73"/>
      <point x="88" y="54"/>
      <point x="88" y="255" type="curve" smooth="yes"/>
      <point x="88" y="468"/>
      <point x="254" y="605"/>
      <point x="445" y="605" type="curve" smooth="yes"/>
      <point x="617" y="605"/>
      <point x="778" y="512"/>
      <point x="778" y="282" type="curve" smooth="yes"/>
      <point x="778" y="169"/>
      <point x="737" y="77"/>
      <point x="660" y="77" type="curve" smooth="yes"/>
      <point x="591" y="77"/>
      <point x="593" y="155"/>
      <point x="604" y="226" type="curve"/>
      <point x="641" y="457" type="line"/>
      <point x="590" y="457" type="line"/>
      <point x="558" y="370" type="line"/>
      <point x="550" y="420"/>
      <point x="491" y="465"/>
      <point x="417" y="465" type="curve" smooth="yes"/>
      <point x="297" y="465"/>
      <point x="206" y="367"/>
      <point x="206" y="236" type="curve" smooth="yes"/>
      <point x="206" y="142"/>
      <point x="269" y="61"/>
      <point x="369" y="61" type="curve" smooth="yes"/>
      <point x="427" y="61"/>
      <point x="505" y="98"/>
      <point x="525" y="202" type="curve"/>
    </contour>
    <contour>
      <point x="533" y="210"/>
      <point x="482" y="130"/>
      <point x="387" y="130" type="curve" smooth="yes"/>
      <point x="319" y="130"/>
      <point x="287" y="187"/>
      <point x="287" y="243" type="curve" smooth="yes"/>
      <point x="287" y="325"/>
      <point x="342" y="391"/>
      <point x="431" y="391" type="curve" smooth="yes"/>
      <point x="496" y="391"/>
      <point x="533" y="359"/>
      <point x="533" y="297" type="curve" smooth="yes"/>
    </contour>
  </outline>
</glyph>
<glyph name="A" format="1">
  <advance width="621"/>
  <unicode hex="0041"/>
  <note>
    A
  </note>
  <outline>
    <contour>
      <point x="260" y="640" type="line"/>
      <point x="376" y="640" type="line"/>
      <point x="595" y="0" type="line"/>
      <point x="596" y="0" type="line"/>
      <point x="513" y="0" type="line"/>
      <point x="327" y="555" type="line"/>
      <point x="320" y="594" type="line"/>
      <point x="318" y="594" type="line"/>
      <point x="310" y="555" type="line"/>
      <point x="107" y="0" type="line"/>
      <point x="24" y="0" type="line"/>
    </contour>
    <contour>
      <point x="503" y="226" type="line"/>
      <point x="503" y="152" type="line"/>
      <point x="97" y="154" type="line"/>
      <point x="130" y="226" type="line"/>
    </contour>
    <contour>
      <point x="611" y="14" type="move" name="ogonek"/>
    </contour>
    <contour>
      <point x="311" y="0" type="move" name="bottom"/>
    </contour>
    <contour>
      <point x="311" y="640" type="move" name="top"/>
    </contour>
  </outline>
</glyph>
<glyph name="B" format="1">
  <advance width="621"/>
  <unicode hex="0042"/>
  <note>
    B
  </note>
  <outline>
    <contour>
      <point x="341" y="0" type="line" smooth="yes"/>
      <point x="484" y="0"/>
      <point x="556" y="85"/>
      <point x="556" y="186" type="curve" smooth="yes"/>
      <point x="556" y="287"/>
      <point x="484" y="343"/>
      <point x="334" y="343" type="curve"/>
      <point x="334" y="314" type="line"/>
      <point x="501" y="314"/>
      <point x="526" y="403"/>
      <point x="526" y="478" type="curve" smooth="yes"/>
      <point x="526" y="568"/>
      <point x="467" y="641"/>
      <point x="320" y="641" type="curve"/>
      <point x="68" y="640" type="line"/>
      <point x="68" y="0" type="line"/>
    </contour>
    <contour>
      <point x="145" y="570" type="line"/>
      <point x="298" y="570" type="line"/>
      <point x="388" y="570"/>
      <point x="449" y="545"/>
      <point x="449" y="465" type="curve" smooth="yes"/>
      <point x="449" y="398"/>
      <point x="399" y="365"/>
      <point x="313" y="365" type="curve"/>
      <point x="126" y="365" type="line"/>
      <point x="126" y="294" type="line"/>
      <point x="322" y="294" type="line" smooth="yes"/>
      <point x="432" y="292"/>
      <point x="476" y="248"/>
      <point x="476" y="188" type="curve" smooth="yes"/>
      <point x="476" y="91"/>
      <point x="409" y="71"/>
      <point x="341" y="71" type="curve" smooth="yes"/>
      <point x="144" y="71" type="line"/>
    </contour>
  </outline>
</glyph>
<glyph name="C" format="1">
  <advance width="604"/>
  <unicode hex="0043"/>
  <note>
    C
  </note>
  <outline>
    <contour>
      <point x="557" y="585" type="line"/>
      <point x="512" y="628"/>
      <point x="430" y="650"/>
      <point x="350" y="650" type="curve" smooth="yes"/>
      <point x="186" y="650"/>
      <point x="50" y="532"/>
      <point x="50" y="333" type="curve" smooth="yes"/>
      <point x="50" y="123"/>
      <point x="185" y="-12"/>
      <point x="357" y="-10" type="curve" smooth="yes"/>
      <point x="431" y="-9"/>
      <point x="494" y="1"/>
      <point x="559" y="59" type="curve"/>
      <point x="564" y="140" type="line"/>
      <point x="497" y="87"/>
      <point x="428" y="62"/>
      <point x="356" y="65" type="curve" smooth="yes"/>
      <point x="226" y="70"/>
      <point x="123" y="166"/>
      <point x="130" y="338" type="curve" smooth="yes"/>
      <point x="135" y="454"/>
      <point x="207" y="576"/>
      <point x="362" y="576" type="curve" smooth="yes"/>
      <point x="436" y="576"/>
      <point x="505" y="557"/>
      <point x="558" y="510" type="curve"/>
    </contour>
    <contour>
      <point x="360" y="650" type="move" name="top"/>
    </contour>
    <contour>
      <point x="309" y="0" type="move" name="bottom"/>
    </contour>
  </outline>
</glyph>
<glyph name="D" format="1">
  <advance width="662"/>
  <unicode hex="0044"/>
  <note>
    D
  </note>
  <outline>
    <contour>
      <point x="82" y="0" type="line"/>
      <point x="263" y="0" type="line" smooth="yes"/>
      <point x="488" y="0"/>
      <point x="600" y="131"/>
      <point x="600" y="338" type="curve" smooth="yes"/>
      <point x="600" y="488"/>
      <point x="547" y="640"/>
      <point x="292" y="640" type="curve" smooth="yes"/>
      <point x="86" y="640" type="line"/>
      <point x="82" y="640" type="line"/>
    </contour>
    <contour>
      <point x="162" y="70" type="line"/>
      <point x="162" y="559" type="line"/>
      <point x="280" y="559" type="line" smooth="yes"/>
      <point x="431" y="559"/>
      <point x="520" y="505"/>
      <point x="520" y="336" type="curve" smooth="yes"/>
      <point x="520" y="192"/>
      <point x="448" y="70"/>
      <point x="273" y="70" type="curve" smooth="yes"/>
    </contour>
    <contour>
      <point x="331" y="320" type="move" name="center"/>
    </contour>
    <contour>
      <point x="331" y="0" type="move" name="bottom"/>
    </contour>
    <contour>
      <point x="331" y="640" type="move" name="top"/>
    </contour>
  </outline>
</glyph>
<glyph name="E" format="1">
  <advance width="551"/>
  <unicode hex="0045"/>
  <note>
    E
  </note>
  <outline>
    <contour>
      <point x="494" y="70" type="line"/>
      <point x="494" y="0" type="line"/>
      <point x="79" y="0" type="line"/>
      <point x="79" y="640" type="line"/>
      <point x="488" y="640" type="line"/>
      <point x="488" y="570" type="line"/>
      <point x="155" y="570" type="line"/>
      <point x="155" y="364" type="line"/>
      <point x="458" y="364" type="line"/>
      <point x="458" y="287" type="line"/>
      <point x="155" y="287" type="line"/>
      <point x="155" y="70" type="line"/>
    </contour>
    <contour>
      <point x="568" y="6" type="move" name="ogonek"/>
    </contour>
    <contour>
      <point x="276" y="640" type="move" name="top"/>
    </contour>
    <contour>
      <point x="20" y="640" type="move" name="topleft"/>
    </contour>
    <contour>
      <point x="276" y="0" type="move" name="bottom"/>
    </contour>
  </outline>
</glyph>
<glyph name="F" format="1">
  <advance width="539"/>
  <unicode hex="0046"/>
  <note>
    F
  </note>
  <outline>
    <contour>
      <point x="72" y="0" type="line"/>
      <point x="151" y="0" type="line"/>
      <point x="151" y="291" type="line"/>
      <point x="454" y="291" type="line"/>
      <point x="454" y="369" type="line"/>
      <point x="151" y="369" type="line"/>
      <point x="151" y="561" type="line"/>
      <point x="518" y="561" type="line"/>
      <point x="517" y="641" type="line"/>
      <point x="72" y="641" type="line"/>
    </contour>
  </outline>
</glyph>
<glyph name="G" format="1">
  <advance width="691"/>
  <unicode hex="0047"/>
  <note>
    G
  </note>
  <outline>
    <contour>
      <point x="638" y="0" type="line"/>
      <point x="643" y="339" type="line"/>
      <point x="355" y="339" type="line"/>
      <point x="355" y="269" type="line"/>
      <point x="562" y="269" type="line"/>
      <point x="562" y="207"/>
      <point x="531" y="62"/>
      <point x="362" y="62" type="curve" smooth="yes"/>
      <point x="216" y="62"/>
      <point x="137" y="188"/>
      <point x="137" y="324" type="curve" smooth="yes"/>
      <point x="137" y="491"/>
      <point x="251" y="577"/>
      <point x="378" y="577" type="curve" smooth="yes"/>
      <point x="442" y="577"/>
      <point x="510" y="555"/>
      <point x="567" y="510" type="curve"/>
      <point x="567" y="582" type="line"/>
      <point x="525" y="618"/>
      <point x="456" y="651"/>
      <point x="372" y="651" type="curve" smooth="yes"/>
      <point x="193" y="651"/>
      <point x="57" y="523"/>
      <point x="57" y="329" type="curve" smooth="yes"/>
      <point x="57" y="133"/>
      <point x="184" y="-9"/>
      <point x="358" y="-9" type="curve" smooth="yes"/>
      <point x="464" y="-9"/>
      <point x="578" y="50"/>
      <point x="591" y="195" type="curve"/>
      <point x="561" y="198" type="line"/>
      <point x="568" y="150"/>
      <point x="576" y="48"/>
      <point x="583" y="0" type="curve"/>
    </contour>
    <contour>
      <point x="346" y="640" type="move" name="top"/>
    </contour>
    <contour>
      <point x="346" y="0" type="move" name="bottom"/>
    </contour>
  </outline>
</glyph>
<glyph name="H" format="1">
  <advance width="659"/>
  <unicode hex="0048"/>
  <note>
    H
  </note>
  <outline>
    <contour>
      <point x="583" y="0" type="line"/>
      <point x="503" y="0" type="line"/>
      <point x="503" y="281" type="line"/>
      <point x="156" y="281" type="line"/>
      <point x="156" y="0" type="line"/>
      <point x="76" y="0" type="line"/>
      <point x="76" y="640" type="line"/>
      <point x="156" y="640" type="line"/>
      <point x="156" y="360" type="line"/>
      <point x="503" y="360" type="line"/>
      <point x="503" y="640" type="line"/>
      <point x="583" y="640" type="line"/>
    </contour>
  </outline>
</glyph>
<glyph name="I" format="1">
  <advance width="232"/>
  <unicode hex="0049"/>
  <note>
    I
  </note>
  <outline>
    <contour>
      <point x="156" y="0" type="line"/>
      <point x="76" y="0" type="line"/>
      <point x="76" y="640" type="line"/>
      <point x="156" y="640" type="line"/>
    </contour>
    <contour>
      <point x="209" y="10" type="move" name="ogonek"/>
    </contour>
    <contour>
      <point x="116" y="640" type="move" name="top"/>
    </contour>
    <contour>
      <point x="20" y="640" type="move" name="topleft"/>
    </contour>
    <contour>
      <point x="116" y="0" type="move" name="bottom"/>
    </contour>
  </outline>
</glyph>
<glyph name="J" format="1">
  <advance width="448"/>
  <unicode hex="004A"/>
  <note>
    J
  </note>
  <outline>
    <contour>
      <point x="296" y="645" type="line"/>
      <point x="295" y="253" type="line"/>
      <point x="295" y="115"/>
      <point x="221" y="61"/>
      <point x="160" y="61" type="curve" smooth="yes"/>
      <point x="105" y="61"/>
      <point x="77" y="75"/>
      <point x="50" y="90" type="curve"/>
      <point x="50" y="33" type="line"/>
      <point x="79" y="3"/>
      <point x="110" y="-10"/>
      <point x="170" y="-10" type="curve" smooth="yes"/>
      <point x="248" y="-10"/>
      <point x="373" y="38"/>
      <point x="375" y="253" type="curve"/>
      <point x="376" y="645" type="line"/>
    </contour>
  </outline>
</glyph>
<glyph name="M" format="1">
  <advance width="825"/>
  <unicode hex="004D"/>
  <note>
    M
  </note>
  <outline>
    <contour>
      <point x="155" y="0" type="line"/>
      <point x="155" y="556" type="line"/>
      <point x="357" y="0" type="line"/>
      <point x="465" y="0" type="line"/>
      <point x="667" y="556" type="line"/>
      <point x="667" y="0" type="line"/>
      <point x="747" y="0" type="line"/>
      <point x="747" y="640" type="line"/>
      <point x="613" y="640" type="line"/>
      <point x="411" y="61" type="line"/>
      <point x="209" y="640" type="line"/>
      <point x="75" y="640" type="line"/>
      <point x="75" y="0" type="line"/>
    </contour>
  </outline>
</glyph>
<glyph name="N" format="1">
  <advance width="671"/>
  <unicode hex="004E"/>
  <note>
    N
  </note>
  <outline>
    <contour>
      <point x="76" y="640" type="line"/>
      <point x="76" y="0" type="line"/>
      <point x="158" y="0" type="line"/>
      <point x="156" y="511" type="line"/>
      <point x="515" y="0" type="line"/>
      <point x="595" y="0" type="line"/>
      <point x="595" y="640" type="line"/>
      <point x="513" y="640" type="line"/>
      <point x="516" y="132" type="line"/>
      <point x="158" y="640" type="line"/>
    </contour>
    <contour>
      <point x="336" y="640" type="move" name="top"/>
    </contour>
    <contour>
      <point x="336" y="0" type="move" name="bottom"/>
    </contour>
  </outline>
</glyph>
<glyph name="O" format="1">
  <advance width="703"/>
  <unicode hex="004F"/>
  <note>
    O
  </note>
  <outline>
    <contour>
      <point x="195" y="651"/>
      <point x="68" y="559"/>
      <point x="61" y="330" type="curve" smooth="yes"/>
      <point x="54" y="133"/>
      <point x="180" y="-11"/>
      <point x="352" y="-11" type="curve" smooth="yes"/>
      <point x="521" y="-11"/>
      <point x="644" y="133"/>
      <point x="644" y="330" type="curve" smooth="yes"/>
      <point x="644" y="559"/>
      <point x="499" y="651"/>
      <point x="352" y="651" type="curve"/>
    </contour>
    <contour>
      <point x="215" y="60"/>
      <point x="142" y="176"/>
      <point x="143" y="330" type="curve" smooth="yes"/>
      <point x="144" y="512"/>
      <point x="255" y="571"/>
      <point x="352" y="571" type="curve" smooth="yes"/>
      <point x="448" y="571"/>
      <point x="561" y="501"/>
      <point x="562" y="330" type="curve" smooth="yes"/>
      <point x="563" y="162"/>
      <point x="493" y="60"/>
      <point x="352" y="60" type="curve" smooth="yes"/>
    </contour>
    <contour>
      <point x="352" y="320" type="move" name="center"/>
    </contour>
    <contour>
      <point x="633" y="10" type="move" name="ogonek"/>
    </contour>
    <contour>
      <point x="352" y="640" type="move" name="top"/>
    </contour>
    <contour>
      <point x="683" y="640" type="move" name="topright"/>
    </contour>
    <contour>
      <point x="20" y="640" type="move" name="topleft"/>
    </contour>
    <contour>
      <point x="352" y="0" type="move" name="bottom"/>
    </contour>
  </outline>
</glyph>
<glyph name="P" format="1">
  <advance width="586"/>
  <unicode hex="0050"/>
  <note>
    P
  </note>
  <outline>
    <contour>
      <point x="469" y="349"/>
      <point x="410" y="293"/>
      <point x="333" y="293" type="curve" smooth="yes"/>
      <point x="163" y="293" type="line"/>
      <point x="163" y="561" type="line"/>
      <point x="333" y="561" type="line" smooth="yes"/>
      <point x="410" y="561"/>
      <point x="469" y="514"/>
      <point x="469" y="431" type="curve" smooth="yes"/>
    </contour>
    <contour>
      <point x="163" y="0" type="line"/>
      <point x="163" y="221" type="line"/>
      <point x="354" y="221" type="line" smooth="yes"/>
      <point x="464" y="221"/>
      <point x="549" y="318"/>
      <point x="549" y="431" type="curve" smooth="yes"/>
      <point x="549" y="549"/>
      <point x="465" y="640"/>
      <point x="333" y="640" type="curve" smooth="yes"/>
      <point x="83" y="640" type="line"/>
      <point x="83" y="0" type="line"/>
    </contour>
  </outline>
</glyph>
<glyph name="Q" format="1">
  <advance width="688"/>
  <unicode hex="0051"/>
  <note>
    Q
  </note>
  <outline>
    <contour>
      <point x="427" y="284" type="line"/>
      <point x="323" y="284" type="line"/>
      <point x="553" y="0" type="line"/>
      <point x="645" y="0" type="line"/>
    </contour>
    <contour>
      <point x="195" y="651"/>
      <point x="68" y="559"/>
      <point x="61" y="330" type="curve" smooth="yes"/>
      <point x="54" y="133"/>
      <point x="180" y="-11"/>
      <point x="352" y="-11" type="curve" smooth="yes"/>
      <point x="521" y="-11"/>
      <point x="644" y="133"/>
      <point x="644" y="330" type="curve" smooth="yes"/>
      <point x="644" y="559"/>
      <point x="499" y="651"/>
      <point x="352" y="651" type="curve"/>
    </contour>
    <contour>
      <point x="215" y="62"/>
      <point x="140" y="176"/>
      <point x="141" y="330" type="curve" smooth="yes"/>
      <point x="142" y="512"/>
      <point x="255" y="571"/>
      <point x="352" y="571" type="curve" smooth="yes"/>
      <point x="448" y="571"/>
      <point x="563" y="501"/>
      <point x="564" y="330" type="curve" smooth="yes"/>
      <point x="565" y="162"/>
      <point x="493" y="63"/>
      <point x="352" y="59" type="curve" smooth="yes"/>
    </contour>
  </outline>
</glyph>
<glyph name="R" format="1">
  <advance width="579"/>
  <unicode hex="0052"/>
  <note>
    R
  </note>
  <outline>
    <contour>
      <point x="154" y="569" type="line"/>
      <point x="322" y="569" type="line" smooth="yes"/>
      <point x="418" y="569"/>
      <point x="460" y="527"/>
      <point x="460" y="456" type="curve" smooth="yes"/>
      <point x="460" y="385"/>
      <point x="418" y="344"/>
      <point x="322" y="344" type="curve" smooth="yes"/>
      <point x="149" y="344" type="line"/>
      <point x="149" y="313" type="line"/>
      <point x="438" y="0" type="line"/>
      <point x="549" y="0" type="line"/>
      <point x="270" y="283" type="line"/>
      <point x="341" y="283" type="line" smooth="yes"/>
      <point x="460" y="283"/>
      <point x="536" y="344"/>
      <point x="536" y="463" type="curve" smooth="yes"/>
      <point x="536" y="569"/>
      <point x="470" y="641"/>
      <point x="330" y="641" type="curve" smooth="yes"/>
      <point x="79" y="641" type="line"/>
      <point x="79" y="0" type="line"/>
      <point x="154" y="0" type="line"/>
    </contour>
  </outline>
</glyph>
<glyph name="S" format="1">
  <advance width="538"/>
  <unicode hex="0053"/>
  <note>
    S
  </note>
  <outline>
    <contour>
      <point x="99" y="111"/>
      <point x="170" y="67"/>
      <point x="275" y="67" type="curve" smooth="yes"/>
      <point x="357" y="67"/>
      <point x="411" y="106"/>
      <point x="411" y="164" type="curve" smooth="yes"/>
      <point x="411" y="211"/>
      <point x="385" y="242"/>
      <point x="317" y="266" type="curve"/>
      <point x="231" y="297" type="line"/>
      <point x="122" y="339"/>
      <point x="55" y="382"/>
      <point x="55" y="481" type="curve" smooth="yes"/>
      <point x="55" y="586"/>
      <point x="144" y="650"/>
      <point x="257" y="650" type="curve" smooth="yes"/>
      <point x="337" y="650"/>
      <point x="397" y="628"/>
      <point x="440" y="597" type="curve"/>
      <point x="440" y="520" type="line"/>
      <point x="389" y="553"/>
      <point x="320" y="573"/>
      <point x="259" y="573" type="curve" smooth="yes"/>
      <point x="191" y="573"/>
      <point x="136" y="545"/>
      <point x="136" y="480" type="curve" smooth="yes"/>
      <point x="136" y="433"/>
      <point x="173" y="404"/>
      <point x="220" y="386" type="curve"/>
      <point x="333" y="344" type="line"/>
      <point x="431" y="305"/>
      <point x="488" y="268"/>
      <point x="488" y="172" type="curve" smooth="yes"/>
      <point x="488" y="66"/>
      <point x="404" y="-9"/>
      <point x="273" y="-9" type="curve" smooth="yes"/>
      <point x="178" y="-9"/>
      <point x="93" y="32"/>
      <point x="51" y="83" type="curve"/>
      <point x="50" y="157" type="line"/>
    </contour>
  </outline>
</glyph>
<glyph name="T" format="1">
  <advance width="542"/>
  <unicode hex="0054"/>
  <note>
    T
  </note>
  <outline>
    <contour>
      <point x="30" y="640" type="line"/>
      <point x="30" y="570" type="line"/>
      <point x="229" y="570" type="line"/>
      <point x="229" y="0" type="line"/>
      <point x="308" y="0" type="line"/>
      <point x="308" y="570" type="line"/>
      <point x="512" y="570" type="line"/>
      <point x="512" y="640" type="line"/>
    </contour>
    <contour>
      <point x="271" y="320" type="move" name="center"/>
    </contour>
    <contour>
      <point x="271" y="0" type="move" name="bottom"/>
    </contour>
    <contour>
      <point x="271" y="640" type="move" name="top"/>
    </contour>
  </outline>
</glyph>
<glyph name="U" format="1">
  <advance width="665"/>
  <unicode hex="0055"/>
  <note>
    U
  </note>
  <outline>
    <contour>
      <point x="589" y="640" type="line"/>
      <point x="585" y="241" type="line" smooth="yes"/>
      <point x="583" y="85"/>
      <point x="511" y="-10"/>
      <point x="331" y="-10" type="curve" smooth="yes"/>
      <point x="174" y="-10"/>
      <point x="77" y="83"/>
      <point x="77" y="241" type="curve" smooth="yes"/>
      <point x="76" y="641" type="line"/>
      <point x="156" y="641" type="line"/>
      <point x="157" y="242" type="line" smooth="yes"/>
      <point x="157" y="131"/>
      <point x="222" y="59"/>
      <point x="331" y="59" type="curve" smooth="yes"/>
      <point x="441" y="59"/>
      <point x="505" y="129"/>
      <point x="506" y="241" type="curve" smooth="yes"/>
      <point x="510" y="640" type="line"/>
    </contour>
    <contour>
      <point x="505" y="13" type="move" name="ogonek"/>
    </contour>
    <contour>
      <point x="333" y="640" type="move" name="top"/>
    </contour>
    <contour>
      <point x="645" y="640" type="move" name="topright"/>
    </contour>
    <contour>
      <point x="333" y="0" type="move" name="bottom"/>
    </contour>
  </outline>
</glyph>
<glyph name="V" format="1">
  <advance width="643"/>
  <unicode hex="0056"/>
  <note>
    V
  </note>
  <outline>
    <contour>
      <point x="118" y="642" type="line"/>
      <point x="321" y="87" type="line"/>
      <point x="329" y="48" type="line"/>
      <point x="331" y="48" type="line"/>
      <point x="338" y="87" type="line"/>
      <point x="524" y="642" type="line"/>
      <point x="612" y="642" type="line"/>
      <point x="613" y="642" type="line"/>
      <point x="392" y="0" type="line"/>
      <point x="266" y="0" type="line"/>
      <point x="30" y="642" type="line"/>
    </contour>
  </outline>
</glyph>
<glyph name="W" format="1">
  <advance width="831"/>
  <unicode hex="0057"/>
  <outline>
    <contour>
      <point x="633" y="133" type="line"/>
      <point x="744" y="639" type="line"/>
      <point x="821" y="639" type="line"/>
      <point x="823" y="637" type="line"/>
      <point x="669" y="0" type="line"/>
      <point x="578" y="0" type="line"/>
      <point x="418" y="508" type="line"/>
      <point x="260" y="0" type="line"/>
      <point x="172" y="0" type="line"/>
      <point x="8" y="638" type="line"/>
      <point x="10" y="640" type="line"/>
      <point x="89" y="640" type="line"/>
      <point x="213" y="135" type="line"/>
      <point x="217" y="106" type="line"/>
      <point x="221" y="106" type="line"/>
      <point x="225" y="135" type="line"/>
      <point x="387" y="633" type="line"/>
      <point x="450" y="633" type="line"/>
      <point x="613" y="134" type="line"/>
      <point x="620" y="95" type="line"/>
      <point x="627" y="95" type="line"/>
    </contour>
    <contour>
      <point x="416" y="640" type="move" name="top"/>
    </contour>
    <contour>
      <point x="416" y="0" type="move" name="bottom"/>
    </contour>
  </outline>
</glyph>
<glyph name="X" format="1">
  <advance width="623"/>
  <unicode hex="0058"/>
  <note>
    X
  </note>
  <outline>
    <contour>
      <point x="294" y="282" type="line"/>
      <point x="489" y="0" type="line"/>
      <point x="592" y="0" type="line"/>
      <point x="344" y="340" type="line"/>
    </contour>
    <contour>
      <point x="313" y="374" type="line"/>
      <point x="128" y="639" type="line"/>
      <point x="25" y="639" type="line"/>
      <point x="260" y="321" type="line"/>
    </contour>
    <contour>
      <point x="346" y="316" type="line"/>
      <point x="595" y="639" type="line"/>
      <point x="501" y="639" type="line"/>
      <point x="309" y="374" type="line"/>
      <point x="265" y="346" type="line"/>
      <point x="11" y="0" type="line"/>
      <point x="105" y="0" type="line"/>
      <point x="306" y="282" type="line"/>
    </contour>
  </outline>
</glyph>
<glyph name="Y" format="1">
  <advance width="628"/>
  <unicode hex="0059"/>
  <note>
    Y
  </note>
  <outline>
    <contour>
      <point x="270" y="247" type="line"/>
      <point x="270" y="0" type="line"/>
      <point x="350" y="0" type="line"/>
      <point x="350" y="244" type="line"/>
      <point x="583" y="640" type="line"/>
      <point x="581" y="640" type="line"/>
      <point x="494" y="640" type="line"/>
      <point x="312" y="326" type="line"/>
      <point x="137" y="640" type="line"/>
      <point x="39" y="640" type="line"/>
    </contour>
    <contour>
      <point x="314" y="640" type="move" name="top"/>
    </contour>
    <contour>
      <point x="314" y="0" type="move" name="bottom"/>
    </contour>
    <contour>
      <point x="20" y="640" type="move" name="topleft"/>
    </contour>
  </outline>
</glyph>
<glyph name="Z" format="1">
  <advance width="581"/>
  <unicode hex="005A"/>
  <note>
    Z
  </note>
  <outline>
    <contour>
      <point x="142" y="71" type="line"/>
      <point x="529" y="562" type="line"/>
      <point x="531" y="640" type="line"/>
      <point x="58" y="640" type="line"/>
      <point x="58" y="562" type="line"/>
      <point x="427" y="563" type="line"/>
      <point x="50" y="71" type="line"/>
      <point x="50" y="0" type="line"/>
      <point x="529" y="0" type="line"/>
      <point x="529" y="70" type="line"/>
    </contour>
    <contour>
      <point x="291" y="640" type="move" name="top"/>
    </contour>
    <contour>
      <point x="291" y="0" type="move" name="bottom"/>
    </contour>
  </outline>
</glyph>
<glyph name="bracketleft" format="1">
  <advance width="308"/>
  <unicode hex="005B"/>
  <note>
    bracketleft
  </note>
  <outline>
    <contour>
      <point x="120" y="-61" type="line"/>
      <point x="120" y="673" type="line"/>
      <point x="242" y="673" type="line"/>
      <point x="242" y="731" type="line"/>
      <point x="55" y="731" type="line"/>
      <point x="55" y="-119" type="line"/>
      <point x="242" y="-119" type="line"/>
      <point x="242" y="-61" type="line"/>
    </contour>
  </outline>
</glyph>
<glyph name="backslash" format="1">
  <advance width="450"/>
  <unicode hex="005C"/>
  <note>
    backslash
  </note>
  <outline>
    <contour>
      <point x="250" y="-119" type="line"/>
      <point x="69" y="730" type="line"/>
      <point x="138" y="730" type="line"/>
      <point x="321" y="-119" type="line"/>
    </contour>
  </outline>
</glyph>
<glyph name="asciicircum" format="1">
  <advance width="600"/>
  <unicode hex="005E"/>
  <outline>
    <contour>
      <point x="260" y="647" type="line"/>
      <point x="228" y="647" type="line"/>
      <point x="207" y="607"/>
      <point x="165" y="573"/>
      <point x="138" y="571" type="curve"/>
      <point x="138" y="517" type="line"/>
      <point x="178" y="520"/>
      <point x="236" y="536"/>
      <point x="257" y="581" type="curve"/>
      <point x="260" y="581" type="line"/>
    </contour>
    <contour>
      <point x="264" y="581" type="line"/>
      <point x="285" y="536"/>
      <point x="343" y="520"/>
      <point x="383" y="517" type="curve"/>
      <point x="383" y="571" type="line"/>
      <point x="356" y="573"/>
      <point x="314" y="607"/>
      <point x="292" y="647" type="curve"/>
      <point x="260" y="647" type="line"/>
      <point x="260" y="581" type="line"/>
    </contour>
  </outline>
</glyph>
<glyph name="underscore" format="1">
  <advance width="490"/>
  <unicode hex="005F"/>
  <note>
    underscore
  </note>
  <outline>
    <contour>
      <point x="460" y="48" type="line"/>
      <point x="460" y="0" type="line"/>
      <point x="30" y="0" type="line"/>
      <point x="30" y="48" type="line"/>
    </contour>
  </outline>
</glyph>
<glyph name="grave" format="1">
  <advance width="600"/>
  <unicode hex="0060"/>
  <outline>
    <contour>
      <point x="333" y="509" type="line"/>
      <point x="286" y="509" type="line"/>
      <point x="172" y="652" type="line"/>
      <point x="275" y="652" type="line"/>
    </contour>
  </outline>
</glyph>
<glyph name="a" format="1">
  <advance width="516"/>
  <unicode hex="0061"/>
  <note>
    a
  </note>
  <outline>
    <contour>
      <point x="392" y="470"/>
      <point x="456" y="393"/>
      <point x="456" y="271" type="curve" smooth="yes"/>
      <point x="453" y="157" type="line"/>
      <point x="449" y="0" type="line"/>
      <point x="384" y="0" type="line"/>
      <point x="380" y="33"/>
      <point x="376" y="67"/>
      <point x="372" y="100" type="curve"/>
      <point x="354" y="44"/>
      <point x="278" y="-8"/>
      <point x="199" y="-8" type="curve" smooth="yes"/>
      <point x="100" y="-8"/>
      <point x="46" y="44"/>
      <point x="47" y="126" type="curve" smooth="yes"/>
      <point x="49" y="227"/>
      <point x="129" y="258"/>
      <point x="384" y="291" type="curve"/>
      <point x="378" y="376"/>
      <point x="313" y="390"/>
      <point x="250" y="390" type="curve" smooth="yes"/>
      <point x="177" y="390"/>
      <point x="123" y="359"/>
      <point x="93" y="336" type="curve"/>
      <point x="94" y="411" type="line"/>
      <point x="130" y="441"/>
      <point x="174" y="470"/>
      <point x="256" y="470" type="curve" smooth="yes"/>
    </contour>
    <contour>
      <point x="317" y="216"/>
      <point x="265" y="208"/>
      <point x="226" y="199" type="curve" smooth="yes"/>
      <point x="159" y="183"/>
      <point x="127" y="165"/>
      <point x="127" y="128" type="curve" smooth="yes"/>
      <point x="127" y="78"/>
      <point x="163" y="60"/>
      <point x="208" y="60" type="curve" smooth="yes"/>
      <point x="281" y="59"/>
      <point x="370" y="113"/>
      <point x="381" y="227" type="curve"/>
    </contour>
    <contour>
      <point x="333" y="10" type="move" name="ogonek"/>
    </contour>
    <contour>
      <point x="258" y="0" type="move" name="bottom"/>
    </contour>
    <contour>
      <point x="258" y="460" type="move" name="top"/>
    </contour>
  </outline>
</glyph>
<glyph name="b" format="1">
  <advance width="561"/>
  <unicode hex="0062"/>
  <note>
    b
  </note>
  <outline>
    <contour>
      <point x="76" y="630" type="line"/>
      <point x="76" y="0" type="line"/>
      <point x="130" y="0" type="line"/>
      <point x="135" y="38"/>
      <point x="149" y="76"/>
      <point x="154" y="114" type="curve"/>
      <point x="135" y="114" type="line"/>
      <point x="133" y="68"/>
      <point x="193" y="-10"/>
      <point x="297" y="-10" type="curve" smooth="yes"/>
      <point x="434" y="-10"/>
      <point x="522" y="95"/>
      <point x="522" y="231" type="curve" smooth="yes"/>
      <point x="522" y="393"/>
      <point x="425" y="470"/>
      <point x="312" y="470" type="curve" smooth="yes"/>
      <point x="215" y="470"/>
      <point x="153" y="418"/>
      <point x="123" y="306" type="curve"/>
      <point x="154" y="325" type="line"/>
      <point x="153" y="630" type="line"/>
    </contour>
    <contour>
      <point x="146" y="335"/>
      <point x="198" y="388"/>
      <point x="294" y="391" type="curve" smooth="yes"/>
      <point x="392" y="394"/>
      <point x="442" y="332"/>
      <point x="442" y="231" type="curve" smooth="yes"/>
      <point x="442" y="123"/>
      <point x="376" y="60"/>
      <point x="294" y="60" type="curve" smooth="yes"/>
      <point x="203" y="60"/>
      <point x="146" y="135"/>
      <point x="146" y="231" type="curve" smooth="yes"/>
    </contour>
  </outline>
</glyph>
<glyph name="d" format="1">
  <advance width="548"/>
  <unicode hex="0064"/>
  <note>
    d
  </note>
  <outline>
    <contour>
      <point x="403" y="325" type="line"/>
      <point x="433" y="306" type="line"/>
      <point x="403" y="418"/>
      <point x="341" y="470"/>
      <point x="244" y="470" type="curve" smooth="yes"/>
      <point x="131" y="470"/>
      <point x="35" y="393"/>
      <point x="35" y="231" type="curve" smooth="yes"/>
      <point x="35" y="95"/>
      <point x="122" y="-10"/>
      <point x="259" y="-10" type="curve" smooth="yes"/>
      <point x="363" y="-10"/>
      <point x="423" y="68"/>
      <point x="421" y="114" type="curve"/>
      <point x="402" y="114" type="line"/>
      <point x="407" y="76"/>
      <point x="421" y="38"/>
      <point x="426" y="0" type="curve"/>
      <point x="483" y="0" type="line"/>
      <point x="483" y="640" type="line"/>
      <point x="403" y="640" type="line"/>
    </contour>
    <contour>
      <point x="410" y="129"/>
      <point x="353" y="60"/>
      <point x="262" y="60" type="curve" smooth="yes"/>
      <point x="180" y="60"/>
      <point x="114" y="123"/>
      <point x="114" y="231" type="curve" smooth="yes"/>
      <point x="114" y="332"/>
      <point x="174" y="390"/>
      <point x="262" y="390" type="curve" smooth="yes"/>
      <point x="358" y="390"/>
      <point x="410" y="329"/>
      <point x="410" y="225" type="curve" smooth="yes"/>
    </contour>
    <contour>
      <point x="439" y="502" type="move" name="center"/>
    </contour>
    <contour>
      <point x="271" y="640" type="move" name="top"/>
    </contour>
    <contour>
      <point x="483" y="640" type="move" name="topright"/>
    </contour>
    <contour>
      <point x="271" y="0" type="move" name="bottom"/>
    </contour>
  </outline>
</glyph>
<glyph name="e" format="1">
  <advance width="517"/>
  <unicode hex="0065"/>
  <note>
    e
  </note>
  <outline>
    <contour>
      <point x="386" y="257" type="line"/>
      <point x="386" y="266"/>
      <point x="385" y="275"/>
      <point x="384" y="284" type="curve" smooth="yes"/>
      <point x="374" y="364"/>
      <point x="318" y="390"/>
      <point x="257" y="390" type="curve" smooth="yes"/>
      <point x="181" y="390"/>
      <point x="124" y="334"/>
      <point x="126" y="229" type="curve" smooth="yes"/>
      <point x="128" y="140"/>
      <point x="175" y="60"/>
      <point x="286" y="60" type="curve" smooth="yes"/>
      <point x="344" y="60"/>
      <point x="394" y="77"/>
      <point x="439" y="124" type="curve"/>
      <point x="439" y="52" type="line"/>
      <point x="415" y="28"/>
      <point x="356" y="-10"/>
      <point x="276" y="-10" type="curve" smooth="yes"/>
      <point x="148" y="-10"/>
      <point x="45" y="74"/>
      <point x="45" y="238" type="curve" smooth="yes"/>
      <point x="45" y="362"/>
      <point x="116" y="470"/>
      <point x="263" y="470" type="curve" smooth="yes"/>
      <point x="402" y="470"/>
      <point x="467" y="369"/>
      <point x="467" y="258" type="curve"/>
      <point x="466" y="236"/>
      <point x="463" y="208"/>
      <point x="455" y="194" type="curve"/>
      <point x="106" y="194" type="line"/>
      <point x="104" y="258" type="line"/>
    </contour>
    <contour>
      <point x="444" y="14" type="move" name="ogonek"/>
    </contour>
    <contour>
      <point x="259" y="0" type="move" name="bottom"/>
    </contour>
    <contour>
      <point x="259" y="460" type="move" name="top"/>
    </contour>
  </outline>
</glyph>
<glyph name="f" format="1">
  <advance width="402"/>
  <unicode hex="0066"/>
  <note>
    f
  </note>
  <outline>
    <contour>
      <point x="382" y="631" type="line"/>
      <point x="351" y="647"/>
      <point x="317" y="654"/>
      <point x="286" y="654" type="curve" smooth="yes"/>
      <point x="205" y="654"/>
      <point x="134" y="604"/>
      <point x="134" y="511" type="curve" smooth="yes"/>
      <point x="134" y="495"/>
      <point x="135" y="478"/>
      <point x="138" y="459" type="curve"/>
      <point x="30" y="459" type="line"/>
      <point x="30" y="388" type="line"/>
      <point x="142" y="388" type="line"/>
      <point x="142" y="0" type="line"/>
      <point x="220" y="0" type="line"/>
      <point x="219" y="388" type="line"/>
      <point x="377" y="388" type="line"/>
      <point x="377" y="460" type="line"/>
      <point x="209" y="460" type="line"/>
      <point x="207" y="474"/>
      <point x="205" y="488"/>
      <point x="205" y="500" type="curve" smooth="yes"/>
      <point x="205" y="557"/>
      <point x="245" y="582"/>
      <point x="295" y="582" type="curve" smooth="yes"/>
      <point x="323" y="582"/>
      <point x="354" y="574"/>
      <point x="382" y="561" type="curve"/>
    </contour>
  </outline>
</glyph>
<glyph name="g" format="1">
  <advance width="546"/>
  <unicode hex="0067"/>
  <note>
    g
  </note>
  <outline>
    <contour>
      <point x="420" y="477"/>
      <point x="347" y="473"/>
      <point x="274" y="470" type="curve"/>
      <point x="170" y="470"/>
      <point x="52" y="422"/>
      <point x="52" y="292" type="curve" smooth="yes"/>
      <point x="52" y="175"/>
      <point x="140" y="112"/>
      <point x="249" y="112" type="curve" smooth="yes"/>
      <point x="358" y="112"/>
      <point x="444" y="179"/>
      <point x="444" y="280" type="curve" smooth="yes"/>
      <point x="444" y="339"/>
      <point x="400" y="401"/>
      <point x="318" y="401" type="curve"/>
      <point x="329" y="394" type="line"/>
      <point x="384" y="403"/>
      <point x="438" y="414"/>
      <point x="493" y="423" type="curve"/>
      <point x="493" y="480" type="line"/>
    </contour>
    <contour>
      <point x="364" y="223"/>
      <point x="329" y="170"/>
      <point x="251" y="170" type="curve" smooth="yes"/>
      <point x="182" y="170"/>
      <point x="132" y="210"/>
      <point x="132" y="281" type="curve" smooth="yes"/>
      <point x="132" y="345"/>
      <point x="174" y="390"/>
      <point x="248" y="390" type="curve" smooth="yes"/>
      <point x="321" y="390"/>
      <point x="364" y="337"/>
      <point x="364" y="281" type="curve" smooth="yes"/>
    </contour>
    <contour>
      <point x="30" y="-124" type="line"/>
      <point x="66" y="-163"/>
      <point x="157" y="-201"/>
      <point x="263" y="-201" type="curve" smooth="yes"/>
      <point x="394" y="-201"/>
      <point x="501" y="-142"/>
      <point x="501" y="-55" type="curve" smooth="yes"/>
      <point x="501" y="68"/>
      <point x="266" y="90"/>
      <point x="139" y="21" type="curve"/>
      <point x="147" y="12" type="line"/>
      <point x="244" y="19"/>
      <point x="288" y="96"/>
      <point x="294" y="133" type="curve"/>
      <point x="226" y="129" type="line"/>
      <point x="226" y="98"/>
      <point x="196" y="61"/>
      <point x="130" y="24" type="curve"/>
      <point x="130" y="-22" type="line"/>
      <point x="171" y="-11"/>
      <point x="219" y="-4"/>
      <point x="264" y="-2" type="curve" smooth="yes"/>
      <point x="351" y="2"/>
      <point x="429" y="-12"/>
      <point x="429" y="-51" type="curve" smooth="yes"/>
      <point x="429" y="-96"/>
      <point x="358" y="-126"/>
      <point x="263" y="-126" type="curve" smooth="yes"/>
      <point x="162" y="-126"/>
      <point x="66" y="-91"/>
      <point x="30" y="-58" type="curve"/>
    </contour>
    <contour>
      <point x="273" y="460" type="move" name="top"/>
    </contour>
    <contour>
      <point x="273" y="0" type="move" name="bottom"/>
    </contour>
  </outline>
</glyph>
<glyph name="h" format="1">
  <advance width="544"/>
  <unicode hex="0068"/>
  <note>
    h
  </note>
  <outline>
    <contour>
      <point x="471" y="275" type="line" smooth="yes"/>
      <point x="471" y="392"/>
      <point x="416" y="473"/>
      <point x="300" y="469" type="curve" smooth="yes"/>
      <point x="208" y="466"/>
      <point x="149" y="409"/>
      <point x="138" y="315" type="curve"/>
      <point x="153" y="315" type="line"/>
      <point x="154" y="640" type="line"/>
      <point x="71" y="640" type="line"/>
      <point x="71" y="0" type="line"/>
      <point x="151" y="0" type="line"/>
      <point x="151" y="228" type="line"/>
      <point x="151" y="326"/>
      <point x="214" y="390"/>
      <point x="287" y="390" type="curve" smooth="yes"/>
      <point x="391" y="390"/>
      <point x="391" y="310"/>
      <point x="391" y="233" type="curve"/>
      <point x="391" y="0" type="line"/>
      <point x="471" y="0" type="line"/>
    </contour>
    <contour>
      <point x="151" y="503" type="move" name="center"/>
    </contour>
    <contour>
      <point x="272" y="0" type="move" name="bottom"/>
    </contour>
    <contour>
      <point x="154" y="640" type="move" name="top"/>
    </contour>
  </outline>
</glyph>
<glyph name="i" format="1">
  <advance width="223"/>
  <unicode hex="0069"/>
  <note>
    i
  </note>
  <outline>
    <contour>
      <point x="73" y="0" type="line"/>
      <point x="153" y="0" type="line"/>
      <point x="153" y="460" type="line"/>
      <point x="73" y="460" type="line"/>
    </contour>
    <contour>
      <point x="158" y="640" type="line"/>
      <point x="67" y="640" type="line"/>
      <point x="67" y="560" type="line"/>
      <point x="158" y="560" type="line"/>
    </contour>
  </outline>
</glyph>
<glyph name="j" format="1">
  <advance width="256"/>
  <unicode hex="006A"/>
  <note>
    j
  </note>
  <outline>
    <contour>
      <point x="103" y="556" type="line"/>
      <point x="191" y="556" type="line"/>
      <point x="191" y="646" type="line"/>
      <point x="103" y="646" type="line"/>
    </contour>
    <contour>
      <point x="106" y="-22" type="line" smooth="yes"/>
      <point x="106" y="-80"/>
      <point x="88" y="-115"/>
      <point x="42" y="-115" type="curve" smooth="yes"/>
      <point x="10" y="-115"/>
      <point x="-7" y="-107"/>
      <point x="-19" y="-101" type="curve"/>
      <point x="-19" y="-149" type="line"/>
      <point x="-5" y="-167"/>
      <point x="23" y="-181"/>
      <point x="56" y="-181" type="curve" smooth="yes"/>
      <point x="141" y="-181"/>
      <point x="184" y="-134"/>
      <point x="184" y="-19" type="curve" smooth="yes"/>
      <point x="185" y="460" type="line"/>
      <point x="106" y="460" type="line"/>
    </contour>
  </outline>
</glyph>
<glyph name="k" format="1">
  <advance width="553"/>
  <unicode hex="006B"/>
  <note>
    k
  </note>
  <outline>
    <contour>
      <point x="259" y="268" type="line" smooth="yes"/>
      <point x="435" y="0" type="line"/>
      <point x="533" y="0" type="line"/>
      <point x="315" y="316" type="line" smooth="yes"/>
    </contour>
    <contour>
      <point x="143" y="104" type="line"/>
      <point x="520" y="460" type="line"/>
      <point x="406" y="460" type="line"/>
      <point x="139" y="187" type="line"/>
    </contour>
    <contour>
      <point x="155" y="649" type="line"/>
      <point x="78" y="649" type="line"/>
      <point x="78" y="0" type="line"/>
      <point x="155" y="0" type="line"/>
    </contour>
  </outline>
</glyph>
<glyph name="l" format="1">
  <advance width="313"/>
  <unicode hex="006C"/>
  <note>
    l
  </note>
  <outline>
    <contour>
      <point x="274" y="67"/>
      <point x="246" y="60"/>
      <point x="222" y="60" type="curve" smooth="yes"/>
      <point x="177" y="60"/>
      <point x="156" y="101"/>
      <point x="156" y="149" type="curve"/>
      <point x="155" y="640" type="line"/>
      <point x="75" y="640" type="line"/>
      <point x="76" y="144" type="line" smooth="yes"/>
      <point x="76" y="33"/>
      <point x="138" y="-10"/>
      <point x="209" y="-10" type="curve" smooth="yes"/>
      <point x="249" y="-10"/>
      <point x="272" y="1"/>
      <point x="293" y="23" type="curve"/>
      <point x="293" y="80" type="line"/>
    </contour>
    <contour>
      <point x="157" y="230" type="move" name="center"/>
    </contour>
    <contour>
      <point x="145" y="640" type="move" name="top"/>
    </contour>
    <contour>
      <point x="293" y="460" type="move" name="topright"/>
    </contour>
    <contour>
      <point x="157" y="0" type="move" name="bottom"/>
    </contour>
  </outline>
</glyph>
<glyph name="m" format="1">
  <advance width="830"/>
  <unicode hex="006D"/>
  <note>
    m
  </note>
  <outline>
    <contour>
      <point x="75" y="0" type="line"/>
      <point x="155" y="0" type="line"/>
      <point x="155" y="212" type="line" smooth="yes"/>
      <point x="155" y="289"/>
      <point x="197" y="394"/>
      <point x="284" y="394" type="curve" smooth="yes"/>
      <point x="350" y="394"/>
      <point x="379" y="342"/>
      <point x="379" y="274" type="curve"/>
      <point x="379" y="0" type="line"/>
      <point x="459" y="0" type="line"/>
      <point x="459" y="212" type="line" smooth="yes"/>
      <point x="459" y="281"/>
      <point x="483" y="394"/>
      <point x="586" y="394" type="curve" smooth="yes"/>
      <point x="660" y="394"/>
      <point x="675" y="332"/>
      <point x="675" y="275" type="curve" smooth="yes"/>
      <point x="675" y="0" type="line"/>
      <point x="755" y="0" type="line"/>
      <point x="755" y="282" type="line"/>
      <point x="755" y="413"/>
      <point x="699" y="467"/>
      <point x="597" y="468" type="curve" smooth="yes"/>
      <point x="499" y="468"/>
      <point x="438" y="386"/>
      <point x="440" y="275" type="curve"/>
      <point x="449" y="290" type="line"/>
      <point x="449" y="420"/>
      <point x="382" y="470"/>
      <point x="298" y="470" type="curve" smooth="yes"/>
      <point x="209" y="470"/>
      <point x="140" y="392"/>
      <point x="140" y="257" type="curve"/>
      <point x="151" y="300" type="line"/>
      <point x="151" y="335"/>
      <point x="139" y="423"/>
      <point x="133" y="458" type="curve"/>
      <point x="75" y="458" type="line"/>
    </contour>
  </outline>
</glyph>
<glyph name="n" format="1">
  <advance width="551"/>
  <unicode hex="006E"/>
  <note>
    n
  </note>
  <outline>
    <contour>
      <point x="76" y="0" type="line"/>
      <point x="76" y="460" type="line"/>
      <point x="144" y="460" type="line"/>
      <point x="149" y="403"/>
      <point x="153" y="347"/>
      <point x="158" y="290" type="curve"/>
      <point x="140" y="241" type="line"/>
      <point x="138" y="310"/>
      <point x="182" y="470"/>
      <point x="316" y="470" type="curve" smooth="yes"/>
      <point x="416" y="470"/>
      <point x="476" y="413"/>
      <point x="476" y="298" type="curve" smooth="yes"/>
      <point x="476" y="0" type="line"/>
      <point x="396" y="0" type="line"/>
      <point x="396" y="284" type="line" smooth="yes"/>
      <point x="396" y="333"/>
      <point x="373" y="390"/>
      <point x="295" y="390" type="curve" smooth="yes"/>
      <point x="193" y="390"/>
      <point x="156" y="292"/>
      <point x="156" y="234" type="curve" smooth="yes"/>
      <point x="156" y="0" type="line"/>
    </contour>
    <contour>
      <point x="276" y="460" type="move" name="top"/>
    </contour>
    <contour>
      <point x="276" y="0" type="move" name="bottom"/>
    </contour>
  </outline>
</glyph>
<glyph name="o" format="1">
  <advance width="534"/>
  <unicode hex="006F"/>
  <note>
    o
  </note>
  <outline>
    <contour>
      <point x="494" y="377"/>
      <point x="407" y="471"/>
      <point x="267" y="471" type="curve" smooth="yes"/>
      <point x="135" y="471"/>
      <point x="40" y="387"/>
      <point x="40" y="231" type="curve" smooth="yes"/>
      <point x="40" y="92"/>
      <point x="139" y="-10"/>
      <point x="267" y="-10" type="curve" smooth="yes"/>
      <point x="386" y="-10"/>
      <point x="494" y="81"/>
      <point x="494" y="231" type="curve" smooth="yes"/>
    </contour>
    <contour>
      <point x="415" y="135"/>
      <point x="358" y="60"/>
      <point x="267" y="60" type="curve" smooth="yes"/>
      <point x="185" y="60"/>
      <point x="119" y="123"/>
      <point x="119" y="231" type="curve" smooth="yes"/>
      <point x="119" y="332"/>
      <point x="169" y="387"/>
      <point x="267" y="391" type="curve" smooth="yes"/>
      <point x="363" y="388"/>
      <point x="415" y="335"/>
      <point x="415" y="231" type="curve" smooth="yes"/>
    </contour>
    <contour>
      <point x="267" y="230" type="move" name="center"/>
    </contour>
    <contour>
      <point x="481" y="10" type="move" name="ogonek"/>
    </contour>
    <contour>
      <point x="267" y="460" type="move" name="top"/>
    </contour>
    <contour>
      <point x="514" y="460" type="move" name="topright"/>
    </contour>
    <contour>
      <point x="267" y="0" type="move" name="bottom"/>
    </contour>
  </outline>
</glyph>
<glyph name="p" format="1">
  <advance width="571"/>
  <unicode hex="0070"/>
  <note>
    p
  </note>
  <outline>
    <contour>
      <point x="76" y="460" type="line"/>
      <point x="76" y="-180" type="line"/>
      <point x="153" y="-180" type="line"/>
      <point x="153" y="84" type="line"/>
      <point x="153" y="58"/>
      <point x="222" y="-11"/>
      <point x="313" y="-10" type="curve" smooth="yes"/>
      <point x="449" y="-9"/>
      <point x="532" y="96"/>
      <point x="532" y="231" type="curve" smooth="yes"/>
      <point x="532" y="393"/>
      <point x="421" y="470"/>
      <point x="315" y="470" type="curve" smooth="yes"/>
      <point x="257" y="470"/>
      <point x="178" y="444"/>
      <point x="146" y="371" type="curve"/>
      <point x="144" y="401"/>
      <point x="141" y="430"/>
      <point x="139" y="460" type="curve"/>
    </contour>
    <contour>
      <point x="198" y="61"/>
      <point x="147" y="138"/>
      <point x="147" y="228" type="curve" smooth="yes"/>
      <point x="147" y="335"/>
      <point x="218" y="391"/>
      <point x="303" y="391" type="curve" smooth="yes"/>
      <point x="391" y="391"/>
      <point x="452" y="324"/>
      <point x="452" y="232" type="curve" smooth="yes"/>
      <point x="452" y="117"/>
      <point x="379" y="61"/>
      <point x="308" y="61" type="curve" smooth="yes"/>
    </contour>
  </outline>
</glyph>
<glyph name="q" format="1">
  <advance width="570"/>
  <unicode hex="0071"/>
  <note>
    q
  </note>
  <outline>
    <contour>
      <point x="439" y="460" type="line"/>
      <point x="434" y="431"/>
      <point x="429" y="402"/>
      <point x="424" y="373" type="curve"/>
      <point x="398" y="426"/>
      <point x="341" y="471"/>
      <point x="260" y="471" type="curve" smooth="yes"/>
      <point x="144" y="471"/>
      <point x="35" y="406"/>
      <point x="35" y="231" type="curve" smooth="yes"/>
      <point x="35" y="96"/>
      <point x="125" y="-11"/>
      <point x="261" y="-11" type="curve" smooth="yes"/>
      <point x="340" y="-11"/>
      <point x="402" y="30"/>
      <point x="425" y="93" type="curve"/>
      <point x="425" y="-190" type="line"/>
      <point x="505" y="-190" type="line"/>
      <point x="505" y="460" type="line"/>
    </contour>
    <contour>
      <point x="115" y="324"/>
      <point x="169" y="391"/>
      <point x="257" y="391" type="curve" smooth="yes"/>
      <point x="355" y="391"/>
      <point x="420" y="317"/>
      <point x="420" y="232" type="curve" smooth="yes"/>
      <point x="420" y="171"/>
      <point x="394" y="61"/>
      <point x="269" y="61" type="curve" smooth="yes"/>
      <point x="198" y="61"/>
      <point x="115" y="117"/>
      <point x="115" y="232" type="curve" smooth="yes"/>
    </contour>
  </outline>
</glyph>
<glyph name="r" format="1">
  <advance width="359"/>
  <unicode hex="0072"/>
  <note>
    r
  </note>
  <outline>
    <contour>
      <point x="339" y="469" type="line"/>
      <point x="182" y="483"/>
      <point x="140" y="368"/>
      <point x="140" y="229" type="curve"/>
      <point x="152" y="227" type="line"/>
      <point x="145" y="285"/>
      <point x="146" y="402"/>
      <point x="139" y="460" type="curve"/>
      <point x="76" y="460" type="line"/>
      <point x="76" y="0" type="line"/>
      <point x="156" y="0" type="line"/>
      <point x="155" y="188" type="line"/>
      <point x="155" y="295"/>
      <point x="173" y="390"/>
      <point x="339" y="390" type="curve"/>
    </contour>
    <contour>
      <point x="185" y="460" type="move" name="top"/>
    </contour>
    <contour>
      <point x="185" y="0" type="move" name="bottom"/>
    </contour>
  </outline>
</glyph>
<glyph name="s" format="1">
  <advance width="457"/>
  <unicode hex="0073"/>
  <note>
    s
  </note>
  <outline>
    <contour>
      <point x="347" y="447"/>
      <point x="284" y="470"/>
      <point x="220" y="470" type="curve" smooth="yes"/>
      <point x="127" y="470"/>
      <point x="45" y="419"/>
      <point x="45" y="326" type="curve" smooth="yes"/>
      <point x="45" y="287"/>
      <point x="60" y="256"/>
      <point x="91" y="235" type="curve" smooth="yes"/>
      <point x="117" y="217"/>
      <point x="153" y="206"/>
      <point x="201" y="200" type="curve" smooth="yes"/>
      <point x="307" y="188"/>
      <point x="331" y="169"/>
      <point x="331" y="130" type="curve" smooth="yes"/>
      <point x="330" y="85"/>
      <point x="287" y="60"/>
      <point x="211" y="60" type="curve" smooth="yes"/>
      <point x="146" y="60"/>
      <point x="75" y="93"/>
      <point x="49" y="117" type="curve"/>
      <point x="49" y="52" type="line"/>
      <point x="81" y="24"/>
      <point x="132" y="-10"/>
      <point x="226" y="-10" type="curve" smooth="yes"/>
      <point x="321" y="-10"/>
      <point x="412" y="35"/>
      <point x="412" y="131" type="curve" smooth="yes"/>
      <point x="412" y="189"/>
      <point x="382" y="222"/>
      <point x="339" y="243" type="curve" smooth="yes"/>
      <point x="306" y="258"/>
      <point x="265" y="266"/>
      <point x="225" y="272" type="curve" smooth="yes"/>
      <point x="145" y="283"/>
      <point x="120" y="300"/>
      <point x="120" y="333" type="curve" smooth="yes"/>
      <point x="120" y="368"/>
      <point x="165" y="394"/>
      <point x="223" y="394" type="curve" smooth="yes"/>
      <point x="266" y="394"/>
      <point x="307" y="389"/>
      <point x="379" y="356" type="curve"/>
      <point x="379" y="424" type="line"/>
    </contour>
    <contour>
      <point x="229" y="460" type="move" name="top"/>
    </contour>
    <contour>
      <point x="201" y="0" type="move" name="bottom"/>
    </contour>
  </outline>
</glyph>
<glyph name="t" format="1">
  <advance width="417"/>
  <unicode hex="0074"/>
  <note>
    t
  </note>
  <outline>
    <contour>
      <point x="108" y="390" type="line"/>
      <point x="108" y="142" type="line" smooth="yes"/>
      <point x="108" y="51"/>
      <point x="159" y="-10"/>
      <point x="253" y="-10" type="curve" smooth="yes"/>
      <point x="300" y="-10"/>
      <point x="341" y="5"/>
      <point x="367" y="36" type="curve"/>
      <point x="367" y="94" type="line"/>
      <point x="341" y="75"/>
      <point x="310" y="60"/>
      <point x="266" y="60" type="curve" smooth="yes"/>
      <point x="215" y="60"/>
      <point x="188" y="93"/>
      <point x="188" y="162" type="curve" smooth="yes"/>
      <point x="188" y="390" type="line"/>
      <point x="346" y="390" type="line"/>
      <point x="346" y="460" type="line"/>
      <point x="188" y="460" type="line"/>
      <point x="188" y="561" type="line"/>
      <point x="127" y="561" type="line"/>
      <point x="127" y="521"/>
      <point x="118" y="492"/>
      <point x="99" y="470" type="curve" smooth="yes"/>
      <point x="80" y="448"/>
      <point x="56" y="433"/>
      <point x="10" y="422" type="curve"/>
      <point x="10" y="390" type="line"/>
    </contour>
    <contour>
      <point x="149" y="230" type="move" name="center"/>
    </contour>
    <contour>
      <point x="204" y="460" type="move" name="top"/>
    </contour>
    <contour>
      <point x="397" y="460" type="move" name="topright"/>
    </contour>
    <contour>
      <point x="204" y="0" type="move" name="bottom"/>
    </contour>
  </outline>
</glyph>
<glyph name="u" format="1">
  <advance width="546"/>
  <unicode hex="0075"/>
  <note>
    u
  </note>
  <outline>
    <contour>
      <point x="407" y="0" type="line"/>
      <point x="402" y="57"/>
      <point x="398" y="113"/>
      <point x="393" y="170" type="curve"/>
      <point x="414" y="153" type="line"/>
      <point x="416" y="84"/>
      <point x="372" y="-10"/>
      <point x="238" y="-10" type="curve" smooth="yes"/>
      <point x="138" y="-10"/>
      <point x="75" y="63"/>
      <point x="75" y="178" type="curve" smooth="yes"/>
      <point x="75" y="460" type="line"/>
      <point x="155" y="460" type="line"/>
      <point x="155" y="183" type="line" smooth="yes"/>
      <point x="155" y="113"/>
      <point x="187" y="60"/>
      <point x="265" y="60" type="curve" smooth="yes"/>
      <point x="367" y="60"/>
      <point x="395" y="164"/>
      <point x="395" y="222" type="curve" smooth="yes"/>
      <point x="395" y="460" type="line"/>
      <point x="475" y="460" type="line"/>
      <point x="475" y="0" type="line"/>
    </contour>
    <contour>
      <point x="559" y="10" type="move" name="ogonek"/>
    </contour>
    <contour>
      <point x="273" y="460" type="move" name="top"/>
    </contour>
    <contour>
      <point x="526" y="460" type="move" name="topright"/>
    </contour>
    <contour>
      <point x="273" y="0" type="move" name="bottom"/>
    </contour>
  </outline>
</glyph>
<glyph name="v" format="1">
  <advance width="458"/>
  <unicode hex="0076"/>
  <note>
    v
  </note>
  <outline>
    <contour>
      <point x="244" y="134" type="line"/>
      <point x="235" y="95" type="line"/>
      <point x="233" y="95" type="line"/>
      <point x="224" y="134" type="line"/>
      <point x="99" y="460" type="line"/>
      <point x="15" y="460" type="line"/>
      <point x="205" y="0" type="line"/>
      <point x="263" y="0" type="line"/>
      <point x="453" y="460" type="line"/>
      <point x="369" y="460" type="line"/>
    </contour>
  </outline>
</glyph>
<glyph name="w" format="1">
  <advance width="755"/>
  <unicode hex="0077"/>
  <note>
    w
  </note>
  <outline>
    <contour>
      <point x="350" y="459" type="line"/>
      <point x="230" y="139" type="line"/>
      <point x="219" y="102" type="line"/>
      <point x="217" y="102" type="line"/>
      <point x="208" y="136" type="line"/>
      <point x="101" y="460" type="line"/>
      <point x="19" y="460" type="line"/>
      <point x="184" y="0" type="line"/>
      <point x="245" y="0" type="line"/>
      <point x="377" y="341" type="line"/>
      <point x="509" y="0" type="line"/>
      <point x="570" y="0" type="line"/>
      <point x="736" y="460" type="line"/>
      <point x="653" y="460" type="line"/>
      <point x="546" y="136" type="line"/>
      <point x="537" y="102" type="line"/>
      <point x="535" y="102" type="line"/>
      <point x="524" y="139" type="line"/>
      <point x="404" y="459" type="line"/>
    </contour>
    <contour>
      <point x="378" y="460" type="move" name="top"/>
    </contour>
    <contour>
      <point x="378" y="0" type="move" name="bottom"/>
    </contour>
  </outline>
</glyph>
<glyph name="x" format="1">
  <advance width="485"/>
  <unicode hex="0078"/>
  <note>
    x
  </note>
  <outline>
    <contour>
      <point x="367" y="460" type="line"/>
      <point x="247" y="292" type="line"/>
      <point x="130" y="460" type="line"/>
      <point x="33" y="460" type="line"/>
      <point x="199" y="241" type="line"/>
      <point x="22" y="0" type="line"/>
      <point x="114" y="0" type="line"/>
      <point x="243" y="185" type="line"/>
      <point x="371" y="0" type="line"/>
      <point x="468" y="0" type="line"/>
      <point x="289" y="235" type="line"/>
      <point x="462" y="460" type="line"/>
    </contour>
  </outline>
</glyph>
<glyph name="y" format="1">
  <advance width="479"/>
  <unicode hex="0079"/>
  <note>
    y
  </note>
  <outline>
    <contour>
      <point x="172" y="-66" type="line"/>
      <point x="152" y="-95"/>
      <point x="132" y="-102"/>
      <point x="101" y="-102" type="curve"/>
      <point x="64" y="-102"/>
      <point x="41" y="-93"/>
      <point x="20" y="-79" type="curve"/>
      <point x="20" y="-139" type="line"/>
      <point x="43" y="-159"/>
      <point x="77" y="-171"/>
      <point x="101" y="-171" type="curve" smooth="yes"/>
      <point x="147" y="-171"/>
      <point x="196" y="-164"/>
      <point x="235" y="-110" type="curve"/>
    </contour>
    <contour>
      <point x="235" y="-110" type="line"/>
      <point x="248" y="-93"/>
      <point x="260" y="-72"/>
      <point x="270" y="-44" type="curve"/>
      <point x="469" y="461" type="line"/>
      <point x="382" y="460" type="line"/>
      <point x="270" y="160" type="line"/>
      <point x="262" y="120" type="line"/>
      <point x="258" y="120" type="line"/>
      <point x="251" y="160" type="line"/>
      <point x="119" y="460" type="line"/>
      <point x="27" y="460" type="line"/>
      <point x="226" y="36" type="line"/>
      <point x="235" y="0" type="line"/>
      <point x="238" y="83" type="line"/>
      <point x="210" y="7"/>
      <point x="191" y="-39"/>
      <point x="172" y="-66" type="curve"/>
    </contour>
    <contour>
      <point x="258" y="460" type="move" name="top"/>
    </contour>
    <contour>
      <point x="240" y="0" type="move" name="bottom"/>
    </contour>
  </outline>
</glyph>
<glyph name="z" format="1">
  <advance width="454"/>
  <unicode hex="007A"/>
  <note>
    z
  </note>
  <outline>
    <contour>
      <point x="35" y="390" type="line"/>
      <point x="35" y="460" type="line"/>
      <point x="418" y="460" type="line"/>
      <point x="418" y="390" type="line"/>
      <point x="124" y="70" type="line"/>
      <point x="424" y="70" type="line"/>
      <point x="423" y="0" type="line"/>
      <point x="30" y="0" type="line"/>
      <point x="30" y="70" type="line"/>
      <point x="328" y="390" type="line"/>
    </contour>
    <contour>
      <point x="227" y="460" type="move" name="top"/>
    </contour>
    <contour>
      <point x="227" y="0" type="move" name="bottom"/>
    </contour>
  </outline>
</glyph>
<glyph name="braceleft" format="1">
  <advance width="367"/>
  <unicode hex="007B"/>
  <note>
    braceleft
  </note>
  <outline>
    <contour>
      <point x="95" y="307" type="line"/>
      <point x="95" y="307" type="line"/>
      <point x="152" y="307"/>
      <point x="186" y="335"/>
      <point x="187" y="414" type="curve" smooth="yes"/>
      <point x="188" y="531" type="line" smooth="yes"/>
      <point x="189" y="606"/>
      <point x="198" y="673"/>
      <point x="313" y="673" type="curve"/>
      <point x="322" y="673" type="line"/>
      <point x="337" y="673" type="line"/>
      <point x="337" y="730" type="line"/>
      <point x="300" y="730" type="line" smooth="yes"/>
      <point x="221" y="730"/>
      <point x="126" y="691"/>
      <point x="126" y="558" type="curve" smooth="yes"/>
      <point x="126" y="430" type="line" smooth="yes"/>
      <point x="126" y="355"/>
      <point x="82" y="331"/>
      <point x="30" y="331" type="curve"/>
      <point x="30" y="307" type="line"/>
    </contour>
    <contour>
      <point x="30" y="281" type="line"/>
      <point x="82" y="281"/>
      <point x="126" y="260"/>
      <point x="126" y="181" type="curve" smooth="yes"/>
      <point x="126" y="56" type="line" smooth="yes"/>
      <point x="126" y="-79"/>
      <point x="221" y="-119"/>
      <point x="300" y="-119" type="curve" smooth="yes"/>
      <point x="337" y="-119" type="line"/>
      <point x="337" y="-61" type="line"/>
      <point x="322" y="-61" type="line"/>
      <point x="313" y="-61" type="line"/>
      <point x="198" y="-61"/>
      <point x="189" y="6"/>
      <point x="188" y="80" type="curve" smooth="yes"/>
      <point x="187" y="198" type="line" smooth="yes"/>
      <point x="186" y="279"/>
      <point x="152" y="306"/>
      <point x="95" y="306" type="curve"/>
      <point x="95" y="307" type="line"/>
      <point x="30" y="307" type="line"/>
    </contour>
  </outline>
</glyph>
<glyph name="bar" format="1">
  <advance width="339"/>
  <unicode hex="007C"/>
  <note>
    bar
  </note>
  <outline>
    <contour>
      <point x="131" y="-120" type="line"/>
      <point x="131" y="730" type="line"/>
      <point x="194" y="730" type="line"/>
      <point x="194" y="-120" type="line"/>
    </contour>
  </outline>
</glyph>
<glyph name="exclamdown" format="1">
  <advance width="309"/>
  <unicode hex="00A1"/>
  <note>
    exclamdown
  </note>
  <outline>
    <contour>
      <point x="106" y="-100" type="line"/>
      <point x="123" y="369" type="line"/>
      <point x="184" y="369" type="line"/>
      <point x="203" y="-100" type="line"/>
    </contour>
    <contour>
      <point x="113" y="455" type="line"/>
      <point x="195" y="455" type="line"/>
      <point x="195" y="550" type="line"/>
      <point x="113" y="550" type="line"/>
    </contour>
  </outline>
</glyph>
<glyph name="cent" format="1">
  <advance width="610"/>
  <unicode hex="00A2"/>
  <note>
    cent
  </note>
  <outline>
    <contour>
      <point x="270" y="726" type="line"/>
      <point x="260" y="600" type="line" smooth="yes"/>
      <point x="260" y="552"/>
      <point x="281" y="528"/>
      <point x="324" y="528" type="curve" smooth="yes"/>
      <point x="332" y="528" type="line"/>
      <point x="335" y="531" type="line"/>
      <point x="329" y="726" type="line"/>
    </contour>
    <contour>
      <point x="329" y="-9" type="line"/>
      <point x="335" y="169" type="line"/>
      <point x="332" y="172" type="line"/>
      <point x="324" y="172" type="line" smooth="yes"/>
      <point x="281" y="172"/>
      <point x="260" y="168"/>
      <point x="260" y="120" type="curve" smooth="yes"/>
      <point x="270" y="-9" type="line"/>
    </contour>
    <component base="c" xOffset="33" yOffset="131"/>
  </outline>
</glyph>
<glyph name="sterling" format="1">
  <advance width="700"/>
  <unicode hex="00A3"/>
  <outline>
    <contour>
      <point x="268" y="122"/>
      <point x="280" y="197"/>
      <point x="280" y="242" type="curve" smooth="yes"/>
      <point x="280" y="259"/>
      <point x="278" y="277"/>
      <point x="274" y="297" type="curve"/>
      <point x="520" y="297" type="line"/>
      <point x="519" y="369" type="line"/>
      <point x="246" y="369" type="line"/>
      <point x="229" y="406"/>
      <point x="218" y="448"/>
      <point x="218" y="471" type="curve" smooth="yes"/>
      <point x="218" y="538"/>
      <point x="270" y="595"/>
      <point x="383" y="595" type="curve" smooth="yes"/>
      <point x="463" y="595"/>
      <point x="527" y="564"/>
      <point x="558" y="544" type="curve"/>
      <point x="558" y="623" type="line"/>
      <point x="544" y="630"/>
      <point x="481" y="680"/>
      <point x="379" y="680" type="curve" smooth="yes"/>
      <point x="231" y="680"/>
      <point x="142" y="607"/>
      <point x="142" y="488" type="curve" smooth="yes"/>
      <point x="142" y="453"/>
      <point x="150" y="413"/>
      <point x="167" y="369" type="curve"/>
      <point x="69" y="369" type="line"/>
      <point x="69" y="300" type="line"/>
      <point x="191" y="300" type="line"/>
      <point x="195" y="277"/>
      <point x="200" y="257"/>
      <point x="200" y="227" type="curve" smooth="yes"/>
      <point x="200" y="165"/>
      <point x="150" y="77"/>
      <point x="74" y="41" type="curve"/>
      <point x="74" y="-1" type="line"/>
      <point x="580" y="-1" type="line"/>
      <point x="580" y="70" type="line"/>
      <point x="201" y="70" type="line"/>
    </contour>
  </outline>
</glyph>
<glyph name="currency" format="1">
  <advance width="600"/>
  <unicode hex="00A4"/>
  <outline>
    <contour>
      <point x="487" y="413"/>
      <point x="419" y="487"/>
      <point x="309" y="487" type="curve" smooth="yes"/>
      <point x="205" y="487"/>
      <point x="130" y="421"/>
      <point x="130" y="298" type="curve" smooth="yes"/>
      <point x="130" y="189"/>
      <point x="208" y="108"/>
      <point x="309" y="108" type="curve" smooth="yes"/>
      <point x="402" y="108"/>
      <point x="487" y="180"/>
      <point x="487" y="298" type="curve" smooth="yes"/>
    </contour>
    <contour>
      <point x="414" y="233"/>
      <point x="373" y="179"/>
      <point x="309" y="179" type="curve" smooth="yes"/>
      <point x="250" y="179"/>
      <point x="203" y="224"/>
      <point x="203" y="302" type="curve" smooth="yes"/>
      <point x="203" y="374"/>
      <point x="240" y="416"/>
      <point x="309" y="416" type="curve" smooth="yes"/>
      <point x="377" y="416"/>
      <point x="414" y="376"/>
      <point x="414" y="302" type="curve" smooth="yes"/>
    </contour>
    <contour>
      <point x="168" y="203" type="line"/>
      <point x="75" y="111" type="line"/>
      <point x="122" y="64" type="line"/>
      <point x="215" y="157" type="line"/>
    </contour>
    <contour>
      <point x="398" y="161" type="line"/>
      <point x="495" y="64" type="line"/>
      <point x="542" y="111" type="line"/>
      <point x="437" y="215" type="line"/>
    </contour>
    <contour>
      <point x="210" y="441" type="line"/>
      <point x="121" y="530" type="line"/>
      <point x="75" y="484" type="line"/>
      <point x="176" y="383" type="line"/>
    </contour>
    <contour>
      <point x="433" y="375" type="line"/>
      <point x="542" y="484" type="line"/>
      <point x="496" y="530" type="line"/>
      <point x="394" y="428" type="line"/>
    </contour>
  </outline>
</glyph>
<glyph name="yen" format="1">
  <advance width="610"/>
  <unicode hex="00A5"/>
  <note>
    yen
  </note>
  <outline>
    <contour>
      <point x="311" y="243" type="line"/>
      <point x="509" y="243" type="line"/>
      <point x="509" y="308" type="line"/>
      <point x="311" y="308" type="line"/>
    </contour>
    <contour>
      <point x="120" y="119" type="line"/>
      <point x="509" y="119" type="line"/>
      <point x="509" y="184" type="line"/>
      <point x="120" y="184" type="line"/>
    </contour>
    <contour>
      <point x="311" y="308" type="line"/>
      <point x="120" y="308" type="line"/>
      <point x="120" y="243" type="line"/>
      <point x="311" y="243" type="line"/>
    </contour>
    <component base="Y"/>
  </outline>
</glyph>
<glyph name="brokenbar" format="1">
  <advance width="455"/>
  <unicode hex="00A6"/>
  <note>
    brokenbar
  </note>
  <outline>
    <contour>
      <point x="190" y="282" type="line"/>
      <point x="190" y="673" type="line"/>
      <point x="265" y="673" type="line"/>
      <point x="265" y="282" type="line"/>
    </contour>
    <contour>
      <point x="190" y="-237" type="line"/>
      <point x="190" y="154" type="line"/>
      <point x="265" y="154" type="line"/>
      <point x="265" y="-237" type="line"/>
    </contour>
  </outline>
</glyph>
<glyph name="section" format="1">
  <advance width="610"/>
  <unicode hex="00A7"/>
  <note>
    section
  </note>
  <outline>
    <contour>
      <point x="467" y="256"/>
      <point x="491" y="293"/>
      <point x="491" y="334" type="curve" smooth="yes"/>
      <point x="491" y="417"/>
      <point x="450" y="440"/>
      <point x="289" y="476" type="curve" smooth="yes"/>
      <point x="228" y="490"/>
      <point x="191" y="498"/>
      <point x="191" y="537" type="curve" smooth="yes"/>
      <point x="191" y="582"/>
      <point x="245" y="598"/>
      <point x="296" y="598" type="curve" smooth="yes"/>
      <point x="359" y="598"/>
      <point x="419" y="574"/>
      <point x="448" y="561" type="curve"/>
      <point x="448" y="629" type="line"/>
      <point x="383" y="672"/>
      <point x="356" y="677"/>
      <point x="290" y="677" type="curve" smooth="yes"/>
      <point x="202" y="677"/>
      <point x="116" y="625"/>
      <point x="116" y="541" type="curve" smooth="yes"/>
      <point x="116" y="487"/>
      <point x="138" y="450"/>
      <point x="184" y="427" type="curve"/>
      <point x="131" y="407"/>
      <point x="112" y="364"/>
      <point x="112" y="328" type="curve" smooth="yes"/>
      <point x="112" y="258"/>
      <point x="168" y="210"/>
      <point x="259" y="202" type="curve" smooth="yes"/>
      <point x="359" y="193"/>
      <point x="398" y="177"/>
      <point x="398" y="127" type="curve" smooth="yes"/>
      <point x="398" y="96"/>
      <point x="362" y="60"/>
      <point x="289" y="60" type="curve" smooth="yes"/>
      <point x="200" y="60"/>
      <point x="161" y="86"/>
      <point x="116" y="123" type="curve"/>
      <point x="116" y="52" type="line"/>
      <point x="164" y="17"/>
      <point x="201" y="-10"/>
      <point x="298" y="-10" type="curve" smooth="yes"/>
      <point x="397" y="-10"/>
      <point x="479" y="55"/>
      <point x="479" y="131" type="curve" smooth="yes"/>
      <point x="479" y="163"/>
      <point x="467" y="208"/>
      <point x="432" y="234" type="curve"/>
    </contour>
    <contour>
      <point x="286" y="273"/>
      <point x="189" y="272"/>
      <point x="189" y="334" type="curve" smooth="yes"/>
      <point x="189" y="379"/>
      <point x="247" y="401"/>
      <point x="278" y="405" type="curve"/>
      <point x="339" y="396"/>
      <point x="421" y="378"/>
      <point x="423" y="339" type="curve" smooth="yes"/>
      <point x="425" y="294"/>
      <point x="383" y="268"/>
      <point x="365" y="257" type="curve"/>
    </contour>
  </outline>
</glyph>
<glyph name="dieresis" format="1">
  <advance width="497"/>
  <unicode hex="00A8"/>
  <note>
    dieresis
  </note>
  <outline>
    <contour>
      <point x="125" y="562" type="line"/>
      <point x="202" y="562" type="line"/>
      <point x="202" y="639" type="line"/>
      <point x="125" y="639" type="line"/>
    </contour>
    <contour>
      <point x="295" y="562" type="line"/>
      <point x="372" y="562" type="line"/>
      <point x="372" y="639" type="line"/>
      <point x="295" y="639" type="line"/>
    </contour>
    <contour>
      <point x="240" y="679" type="move" name="top"/>
    </contour>
    <contour>
      <point x="249" y="460" type="move" name="_top"/>
    </contour>
  </outline>
</glyph>
<glyph name="copyright" format="1">
  <advance width="915"/>
  <unicode hex="00A9"/>
  <note>
    copyright
  </note>
  <outline>
    <contour>
      <point x="678" y="-96"/>
      <point x="855" y="81"/>
      <point x="855" y="300" type="curve" smooth="yes"/>
      <point x="855" y="519"/>
      <point x="678" y="696"/>
      <point x="459" y="696" type="curve" smooth="yes"/>
      <point x="238" y="696"/>
      <point x="60" y="519"/>
      <point x="60" y="300" type="curve" smooth="yes"/>
      <point x="60" y="81"/>
      <point x="238" y="-96"/>
      <point x="459" y="-96" type="curve" smooth="yes"/>
    </contour>
    <contour>
      <point x="276" y="-29"/>
      <point x="129" y="119"/>
      <point x="129" y="300" type="curve" smooth="yes"/>
      <point x="129" y="481"/>
      <point x="276" y="629"/>
      <point x="459" y="629" type="curve" smooth="yes"/>
      <point x="640" y="629"/>
      <point x="786" y="481"/>
      <point x="786" y="300" type="curve" smooth="yes"/>
      <point x="786" y="119"/>
      <point x="640" y="-29"/>
      <point x="459" y="-29" type="curve" smooth="yes"/>
    </contour>
    <component base="c" xOffset="178" yOffset="67"/>
  </outline>
</glyph>
<glyph name="guillemetleft" format="1">
  <advance width="613"/>
  <unicode hex="00AB"/>
  <note>
    guillemotleft
  </note>
  <outline>
    <contour>
      <point x="172" y="227" type="line"/>
      <point x="145" y="244" type="line"/>
      <point x="173" y="262" type="line"/>
      <point x="320" y="429" type="line"/>
      <point x="226" y="429" type="line"/>
      <point x="75" y="258" type="line"/>
      <point x="62" y="243" type="line"/>
      <point x="229" y="61" type="line"/>
      <point x="320" y="61" type="line"/>
    </contour>
    <contour>
      <point x="362" y="227" type="line"/>
      <point x="335" y="244" type="line"/>
      <point x="363" y="262" type="line"/>
      <point x="507" y="429" type="line"/>
      <point x="416" y="429" type="line"/>
      <point x="265" y="258" type="line"/>
      <point x="252" y="243" type="line"/>
      <point x="419" y="61" type="line"/>
      <point x="510" y="61" type="line"/>
    </contour>
  </outline>
</glyph>
<glyph name="logicalnot" format="1">
  <advance width="600"/>
  <unicode hex="00AC"/>
  <outline>
    <contour>
      <point x="68" y="248" type="line"/>
      <point x="528" y="248" type="line"/>
      <point x="528" y="319" type="line"/>
      <point x="68" y="319" type="line"/>
    </contour>
    <contour>
      <point x="460" y="0" type="line"/>
      <point x="529" y="0" type="line"/>
      <point x="529" y="319" type="line"/>
      <point x="460" y="319" type="line"/>
    </contour>
  </outline>
</glyph>
<glyph name="registered" format="1">
  <advance width="610"/>
  <unicode hex="00AE"/>
  <note>
    registered
  </note>
  <outline>
    <contour>
      <point x="425" y="312"/>
      <point x="518" y="405"/>
      <point x="518" y="520" type="curve" smooth="yes"/>
      <point x="518" y="635"/>
      <point x="425" y="728"/>
      <point x="310" y="728" type="curve" smooth="yes"/>
      <point x="194" y="728"/>
      <point x="101" y="635"/>
      <point x="101" y="520" type="curve" smooth="yes"/>
      <point x="101" y="405"/>
      <point x="194" y="312"/>
      <point x="310" y="312" type="curve" smooth="yes"/>
    </contour>
    <contour>
      <point x="210" y="340"/>
      <point x="130" y="421"/>
      <point x="130" y="520" type="curve" smooth="yes"/>
      <point x="130" y="619"/>
      <point x="210" y="700"/>
      <point x="310" y="700" type="curve" smooth="yes"/>
      <point x="409" y="700"/>
      <point x="489" y="619"/>
      <point x="489" y="520" type="curve" smooth="yes"/>
      <point x="489" y="421"/>
      <point x="409" y="340"/>
      <point x="310" y="340" type="curve" smooth="yes"/>
    </contour>
    <contour>
      <point x="225" y="393" type="line"/>
      <point x="255" y="393" type="line"/>
      <point x="255" y="496" type="line"/>
      <point x="297" y="496" type="line"/>
      <point x="371" y="393" type="line"/>
      <point x="408" y="393" type="line"/>
      <point x="332" y="496" type="line"/>
      <point x="387" y="496"/>
      <point x="415" y="522"/>
      <point x="415" y="570" type="curve" smooth="yes"/>
      <point x="415" y="613"/>
      <point x="384" y="640"/>
      <point x="334" y="640" type="curve" smooth="yes"/>
      <point x="225" y="640" type="line"/>
    </contour>
    <contour>
      <point x="328" y="609" type="line" smooth="yes"/>
      <point x="359" y="609"/>
      <point x="384" y="596"/>
      <point x="384" y="565" type="curve" smooth="yes"/>
      <point x="384" y="534"/>
      <point x="361" y="522"/>
      <point x="332" y="522" type="curve" smooth="yes"/>
      <point x="255" y="522" type="line"/>
      <point x="255" y="609" type="line"/>
    </contour>
  </outline>
</glyph>
<glyph name="degree" format="1">
  <advance width="307"/>
  <unicode hex="00B0"/>
  <note>
    degree
  </note>
  <outline>
    <contour>
      <point x="240" y="386"/>
      <point x="277" y="451"/>
      <point x="277" y="526" type="curve"/>
      <point x="277" y="580"/>
      <point x="244" y="649"/>
      <point x="154" y="649" type="curve"/>
      <point x="62" y="649"/>
      <point x="30" y="580"/>
      <point x="30" y="526" type="curve"/>
      <point x="30" y="451"/>
      <point x="67" y="386"/>
      <point x="154" y="386" type="curve"/>
    </contour>
    <contour>
      <point x="107" y="445"/>
      <point x="92" y="489"/>
      <point x="92" y="517" type="curve" smooth="yes"/>
      <point x="92" y="547"/>
      <point x="104" y="582"/>
      <point x="154" y="582" type="curve"/>
      <point x="208" y="582"/>
      <point x="216" y="548"/>
      <point x="216" y="517" type="curve" smooth="yes"/>
      <point x="216" y="489"/>
      <point x="200" y="445"/>
      <point x="154" y="445" type="curve"/>
    </contour>
  </outline>
</glyph>
<glyph name="plusminus" format="1">
  <advance width="600"/>
  <unicode hex="00B1"/>
  <outline>
    <contour>
      <point x="339" y="185" type="line"/>
      <point x="339" y="506" type="line"/>
      <point x="273" y="506" type="line"/>
      <point x="273" y="185" type="line"/>
    </contour>
    <contour>
      <point x="105" y="273" type="line"/>
      <point x="506" y="273" type="line"/>
      <point x="506" y="339" type="line"/>
      <point x="105" y="339" type="line"/>
    </contour>
    <contour>
      <point x="105" y="73" type="line"/>
      <point x="506" y="73" type="line"/>
      <point x="506" y="139" type="line"/>
      <point x="105" y="139" type="line"/>
    </contour>
  </outline>
</glyph>
<glyph name="acute" format="1">
  <advance width="221"/>
  <unicode hex="00B4"/>
  <outline>
    <contour>
      <point x="30" y="511" type="line"/>
      <point x="77" y="511" type="line"/>
      <point x="191" y="654" type="line"/>
      <point x="88" y="654" type="line"/>
    </contour>
    <contour>
      <point x="88" y="690" type="move" name="top"/>
    </contour>
    <contour>
      <point x="77" y="460" type="move" name="_top"/>
    </contour>
  </outline>
</glyph>
<glyph name="paragraph" format="1">
  <advance width="610"/>
  <unicode hex="00B6"/>
  <note>
    paragraph
  </note>
  <outline>
    <contour>
      <point x="437" y="-57" type="line"/>
      <point x="437" y="604" type="line"/>
      <point x="345" y="605" type="line"/>
      <point x="345" y="-57" type="line"/>
      <point x="281" y="-57" type="line"/>
      <point x="281" y="340" type="line"/>
      <point x="176" y="340"/>
      <point x="87" y="388"/>
      <point x="87" y="501" type="curve" smooth="yes"/>
      <point x="87" y="599"/>
      <point x="154" y="655"/>
      <point x="263" y="655" type="curve" smooth="yes"/>
      <point x="310" y="655"/>
      <point x="442" y="659"/>
      <point x="501" y="656" type="curve"/>
      <point x="501" y="-57" type="line"/>
    </contour>
  </outline>
</glyph>
<glyph name="periodcentered" format="1">
  <advance width="610"/>
  <unicode hex="00B7"/>
  <note>
    periodcentered
  </note>
  <outline>
    <contour>
      <point x="339" y="242"/>
      <point x="366" y="269"/>
      <point x="366" y="303" type="curve" smooth="yes"/>
      <point x="366" y="336"/>
      <point x="339" y="363"/>
      <point x="306" y="363" type="curve" smooth="yes"/>
      <point x="272" y="363"/>
      <point x="245" y="336"/>
      <point x="245" y="303" type="curve" smooth="yes"/>
      <point x="245" y="269"/>
      <point x="272" y="242"/>
      <point x="306" y="242" type="curve" smooth="yes"/>
    </contour>
  </outline>
</glyph>
<glyph name="cedilla" format="1">
  <advance width="600"/>
  <unicode hex="00B8"/>
  <outline>
    <contour>
      <point x="152" y="-197" type="line"/>
      <point x="199" y="-197" type="line"/>
      <point x="313" y="-54" type="line"/>
      <point x="210" y="-54" type="line"/>
    </contour>
  </outline>
</glyph>
<glyph name="guillemetright" format="1">
  <advance width="614"/>
  <unicode hex="00BB"/>
  <note>
    guillemotright
  </note>
  <outline>
    <contour>
      <point x="343" y="61" type="line"/>
      <point x="510" y="243" type="line"/>
      <point x="497" y="258" type="line"/>
      <point x="346" y="429" type="line"/>
      <point x="252" y="429" type="line"/>
      <point x="399" y="262" type="line"/>
      <point x="427" y="244" type="line"/>
      <point x="400" y="227" type="line"/>
      <point x="252" y="61" type="line"/>
    </contour>
    <contour>
      <point x="153" y="61" type="line"/>
      <point x="320" y="243" type="line"/>
      <point x="307" y="258" type="line"/>
      <point x="156" y="429" type="line"/>
      <point x="65" y="429" type="line"/>
      <point x="209" y="262" type="line"/>
      <point x="237" y="244" type="line"/>
      <point x="210" y="227" type="line"/>
      <point x="62" y="61" type="line"/>
    </contour>
  </outline>
</glyph>
<glyph name="onequarter" format="1">
  <advance width="721"/>
  <unicode hex="00BC"/>
  <outline>
    <contour>
      <point x="507" y="693" type="line"/>
      <point x="564" y="669" type="line"/>
      <point x="207" y="-40" type="line"/>
      <point x="153" y="-10" type="line"/>
    </contour>
    <contour>
      <point x="56" y="552" type="line"/>
      <point x="161" y="629" type="line"/>
      <point x="232" y="629" type="line"/>
      <point x="232" y="399" type="line"/>
      <point x="159" y="399" type="line"/>
      <point x="159" y="543" type="line"/>
      <point x="56" y="472" type="line"/>
    </contour>
    <contour>
      <point x="415" y="114" type="line"/>
      <point x="506" y="269" type="line"/>
      <point x="626" y="269" type="line"/>
      <point x="626" y="116" type="line"/>
      <point x="668" y="116" type="line"/>
      <point x="668" y="68" type="line"/>
      <point x="626" y="68" type="line"/>
      <point x="626" y="13" type="line"/>
      <point x="554" y="13" type="line"/>
      <point x="554" y="68" type="line"/>
      <point x="414" y="68" type="line"/>
    </contour>
    <contour>
      <point x="554" y="114" type="line"/>
      <point x="554" y="213" type="line"/>
      <point x="556" y="241" type="line"/>
      <point x="550" y="241" type="line"/>
      <point x="542" y="214" type="line"/>
      <point x="483" y="114" type="line"/>
    </contour>
  </outline>
</glyph>
<glyph name="onehalf" format="1">
  <advance width="684"/>
  <unicode hex="00BD"/>
  <outline>
    <contour>
      <point x="490" y="693" type="line"/>
      <point x="547" y="669" type="line"/>
      <point x="190" y="-40" type="line"/>
      <point x="136" y="-10" type="line"/>
    </contour>
    <contour>
      <point x="493" y="59" type="line"/>
      <point x="665" y="77" type="line"/>
      <point x="665" y="14" type="line"/>
      <point x="432" y="14" type="line"/>
      <point x="433" y="68" type="line"/>
      <point x="499" y="85"/>
      <point x="584" y="132"/>
      <point x="584" y="180" type="curve" smooth="yes"/>
      <point x="584" y="227"/>
      <point x="501" y="227"/>
      <point x="444" y="189" type="curve"/>
      <point x="444" y="253" type="line"/>
      <point x="453" y="265"/>
      <point x="496" y="289"/>
      <point x="541" y="289" type="curve" smooth="yes"/>
      <point x="590" y="289"/>
      <point x="654" y="276"/>
      <point x="653" y="198" type="curve" smooth="yes"/>
      <point x="651" y="124"/>
      <point x="559" y="82"/>
      <point x="493" y="68" type="curve"/>
    </contour>
    <contour>
      <point x="56" y="552" type="line"/>
      <point x="161" y="629" type="line"/>
      <point x="232" y="629" type="line"/>
      <point x="232" y="399" type="line"/>
      <point x="159" y="399" type="line"/>
      <point x="159" y="543" type="line"/>
      <point x="56" y="472" type="line"/>
    </contour>
  </outline>
</glyph>
<glyph name="threequarters" format="1">
  <advance width="744"/>
  <unicode hex="00BE"/>
  <outline>
    <contour>
      <point x="648" y="646" type="line"/>
      <point x="725" y="646" type="line"/>
      <point x="134" y="0" type="line"/>
      <point x="62" y="0" type="line"/>
    </contour>
    <contour>
      <point x="422" y="114" type="line"/>
      <point x="513" y="269" type="line"/>
      <point x="633" y="269" type="line"/>
      <point x="633" y="116" type="line"/>
      <point x="675" y="116" type="line"/>
      <point x="675" y="68" type="line"/>
      <point x="633" y="68" type="line"/>
      <point x="633" y="13" type="line"/>
      <point x="561" y="13" type="line"/>
      <point x="561" y="68" type="line"/>
      <point x="421" y="68" type="line"/>
    </contour>
    <contour>
      <point x="561" y="114" type="line"/>
      <point x="561" y="213" type="line"/>
      <point x="563" y="241" type="line"/>
      <point x="557" y="241" type="line"/>
      <point x="549" y="215" type="line"/>
      <point x="491" y="114" type="line"/>
    </contour>
    <contour>
      <point x="94" y="434" type="line"/>
      <point x="121" y="398"/>
      <point x="168" y="381"/>
      <point x="213" y="381" type="curve" smooth="yes"/>
      <point x="274" y="381"/>
      <point x="332" y="412"/>
      <point x="332" y="464" type="curve" smooth="yes"/>
      <point x="332" y="495"/>
      <point x="313" y="530"/>
      <point x="252" y="530" type="curve" smooth="yes"/>
      <point x="243" y="530"/>
      <point x="232" y="529"/>
      <point x="220" y="527" type="curve"/>
      <point x="218" y="532" type="line"/>
      <point x="318" y="561" type="line"/>
      <point x="318" y="628" type="line"/>
      <point x="95" y="628" type="line"/>
      <point x="95" y="561" type="line"/>
      <point x="272" y="570" type="line"/>
      <point x="158" y="531" type="line"/>
      <point x="158" y="500" type="line"/>
      <point x="173" y="503"/>
      <point x="201" y="506"/>
      <point x="214" y="506" type="curve" smooth="yes"/>
      <point x="246" y="506"/>
      <point x="262" y="494"/>
      <point x="262" y="480" type="curve" smooth="yes"/>
      <point x="262" y="464"/>
      <point x="239" y="446"/>
      <point x="195" y="446" type="curve" smooth="yes"/>
      <point x="158" y="446"/>
      <point x="113" y="458"/>
      <point x="94" y="477" type="curve"/>
    </contour>
  </outline>
</glyph>
<glyph name="Aring" format="1">
  <advance width="621"/>
  <unicode hex="00C5"/>
  <note>
    Aring
  </note>
  <outline>
    <contour>
      <point x="419" y="661"/>
      <point x="407" y="637"/>
      <point x="388" y="619" type="curve" smooth="yes"/>
      <point x="369" y="601"/>
      <point x="344" y="591"/>
      <point x="316" y="591" type="curve" smooth="yes"/>
      <point x="288" y="591"/>
      <point x="263" y="601"/>
      <point x="244" y="619" type="curve" smooth="yes"/>
      <point x="225" y="637"/>
      <point x="213" y="661"/>
      <point x="213" y="693" type="curve" smooth="yes"/>
      <point x="213" y="725"/>
      <point x="225" y="750"/>
      <point x="244" y="768" type="curve" smooth="yes"/>
      <point x="263" y="786"/>
      <point x="288" y="795"/>
      <point x="316" y="795" type="curve" smooth="yes"/>
      <point x="344" y="795"/>
      <point x="369" y="786"/>
      <point x="388" y="768" type="curve" smooth="yes"/>
      <point x="407" y="750"/>
      <point x="419" y="725"/>
      <point x="419" y="693" type="curve" smooth="yes"/>
    </contour>
    <contour>
      <point x="360" y="721"/>
      <point x="340" y="738"/>
      <point x="316" y="738" type="curve" smooth="yes"/>
      <point x="292" y="738"/>
      <point x="272" y="721"/>
      <point x="272" y="693" type="curve" smooth="yes"/>
      <point x="272" y="664"/>
      <point x="292" y="647"/>
      <point x="316" y="647" type="curve" smooth="yes"/>
      <point x="340" y="647"/>
      <point x="360" y="661"/>
      <point x="360" y="693" type="curve" smooth="yes"/>
    </contour>
    <contour>
      <point x="97" y="0" type="line"/>
      <point x="9" y="0" type="line"/>
      <point x="255" y="642" type="line"/>
      <point x="297" y="612"/>
      <point x="339" y="615"/>
      <point x="381" y="642" type="curve"/>
      <point x="612" y="0" type="line"/>
      <point x="611" y="0" type="line"/>
      <point x="523" y="0" type="line"/>
      <point x="319" y="595" type="line"/>
    </contour>
    <contour>
      <point x="494" y="252" type="line"/>
      <point x="494" y="177" type="line"/>
      <point x="88" y="179" type="line"/>
      <point x="121" y="252" type="line"/>
    </contour>
  </outline>
</glyph>
<glyph name="AE" format="1">
  <advance width="900"/>
  <unicode hex="00C6"/>
  <note>
    AE
  </note>
  <outline>
    <contour>
      <point x="91" y="0" type="line"/>
      <point x="3" y="0" type="line"/>
      <point x="357" y="640" type="line"/>
      <point x="491" y="640" type="line"/>
      <point x="454" y="567" type="line"/>
      <point x="407" y="567" type="line"/>
    </contour>
    <contour>
      <point x="499" y="202" type="line"/>
      <point x="499" y="127" type="line"/>
      <point x="143" y="129" type="line"/>
      <point x="176" y="202" type="line"/>
    </contour>
    <component base="E" xOffset="355"/>
  </outline>
</glyph>
<glyph name="Eth" format="1">
  <advance width="662"/>
  <unicode hex="00D0"/>
  <outline>
    <contour>
      <point x="23" y="384" type="line"/>
      <point x="397" y="384" type="line"/>
      <point x="397" y="460" type="line"/>
      <point x="23" y="460" type="line"/>
    </contour>
    <component base="D"/>
  </outline>
</glyph>
<glyph name="multiply" format="1">
  <advance width="531"/>
  <unicode hex="00D7"/>
  <note>
    multiply
  </note>
  <outline>
    <contour>
      <point x="147" y="140" type="line"/>
      <point x="431" y="424" type="line"/>
      <point x="384" y="470" type="line"/>
      <point x="101" y="187" type="line"/>
    </contour>
    <contour>
      <point x="101" y="424" type="line"/>
      <point x="384" y="141" type="line"/>
      <point x="431" y="187" type="line"/>
      <point x="147" y="471" type="line"/>
    </contour>
  </outline>
</glyph>
<glyph name="Oslash" format="1">
  <advance width="703"/>
  <unicode hex="00D8"/>
  <outline>
    <contour>
      <point x="118" y="-29" type="line"/>
      <point x="160" y="-53" type="line"/>
      <point x="576" y="668" type="line"/>
      <point x="534" y="691" type="line"/>
    </contour>
    <component base="O"/>
  </outline>
</glyph>
<glyph name="Thorn" format="1">
  <advance width="543"/>
  <unicode hex="00DE"/>
  <outline>
    <contour>
      <point x="137" y="441" type="line"/>
      <point x="297" y="441" type="line" smooth="yes"/>
      <point x="366" y="441"/>
      <point x="420" y="406"/>
      <point x="420" y="331" type="curve" smooth="yes"/>
      <point x="420" y="257"/>
      <point x="366" y="213"/>
      <point x="297" y="213" type="curve" smooth="yes"/>
      <point x="152" y="213" type="line"/>
      <point x="153" y="640" type="line"/>
      <point x="73" y="640" type="line"/>
      <point x="73" y="0" type="line"/>
      <point x="153" y="0" type="line"/>
      <point x="152" y="140" type="line"/>
      <point x="316" y="140" type="line" smooth="yes"/>
      <point x="415" y="140"/>
      <point x="503" y="218"/>
      <point x="503" y="331" type="curve" smooth="yes"/>
      <point x="503" y="438"/>
      <point x="416" y="521"/>
      <point x="297" y="521" type="curve" smooth="yes"/>
      <point x="137" y="521" type="line"/>
    </contour>
  </outline>
</glyph>
<glyph name="germandbls" format="1">
  <advance width="610"/>
  <unicode hex="00DF"/>
  <note>
    germandbls
  </note>
  <outline>
    <contour>
      <point x="466" y="372"/>
      <point x="508" y="407"/>
      <point x="508" y="480" type="curve" smooth="yes"/>
      <point x="508" y="591"/>
      <point x="435" y="650"/>
      <point x="319" y="650" type="curve" smooth="yes"/>
      <point x="175" y="650"/>
      <point x="123" y="563"/>
      <point x="123" y="429" type="curve"/>
      <point x="123" y="0" type="line"/>
      <point x="203" y="0" type="line"/>
      <point x="203" y="376" type="line"/>
      <point x="203" y="421" type="line" smooth="yes"/>
      <point x="203" y="534"/>
      <point x="241" y="569"/>
      <point x="321" y="569" type="curve" smooth="yes"/>
      <point x="385" y="569"/>
      <point x="424" y="530"/>
      <point x="424" y="471" type="curve"/>
      <point x="424" y="441"/>
      <point x="424" y="376"/>
      <point x="325" y="345" type="curve"/>
      <point x="325" y="302" type="line"/>
      <point x="356" y="302" type="line" smooth="yes"/>
      <point x="444" y="302"/>
      <point x="477" y="240"/>
      <point x="477" y="185" type="curve" smooth="yes"/>
      <point x="477" y="97"/>
      <point x="417" y="50"/>
      <point x="335" y="50" type="curve" smooth="yes"/>
      <point x="322" y="50"/>
      <point x="274" y="53"/>
      <point x="261" y="60" type="curve"/>
      <point x="261" y="6" type="line"/>
      <point x="290" y="-7"/>
      <point x="309" y="-8"/>
      <point x="338" y="-10" type="curve"/>
      <point x="488" y="-10"/>
      <point x="560" y="55"/>
      <point x="560" y="197" type="curve" smooth="yes"/>
      <point x="560" y="267"/>
      <point x="504" y="353"/>
      <point x="414" y="353" type="curve"/>
    </contour>
  </outline>
</glyph>
<glyph name="ae" format="1">
  <advance width="868"/>
  <unicode hex="00E6"/>
  <note>
    ae
  </note>
  <outline>
    <contour>
      <point x="384" y="40"/>
      <point x="300" y="-10"/>
      <point x="217" y="-10" type="curve" smooth="yes"/>
      <point x="118" y="-10"/>
      <point x="55" y="44"/>
      <point x="56" y="126" type="curve" smooth="yes"/>
      <point x="58" y="233"/>
      <point x="181" y="259"/>
      <point x="277" y="273" type="curve" smooth="yes"/>
      <point x="389" y="293" type="line"/>
      <point x="389" y="296" type="line" smooth="yes"/>
      <point x="388" y="366"/>
      <point x="325" y="395"/>
      <point x="263" y="395" type="curve" smooth="yes"/>
      <point x="177" y="395"/>
      <point x="124" y="351"/>
      <point x="90" y="316" type="curve"/>
      <point x="88" y="316" type="line"/>
      <point x="89" y="406" type="line"/>
      <point x="133" y="442"/>
      <point x="188" y="470"/>
      <point x="270" y="470" type="curve" smooth="yes"/>
      <point x="356" y="470"/>
      <point x="410" y="439"/>
      <point x="438" y="385" type="curve"/>
      <point x="420" y="125" type="line"/>
    </contour>
    <contour>
      <point x="290" y="56"/>
      <point x="389" y="122"/>
      <point x="391" y="236" type="curve"/>
      <point x="282" y="213" type="line" smooth="yes"/>
      <point x="213" y="199"/>
      <point x="138" y="184"/>
      <point x="137" y="122" type="curve" smooth="yes"/>
      <point x="136" y="86"/>
      <point x="171" y="57"/>
      <point x="216" y="57" type="curve"/>
    </contour>
    <component base="e" xOffset="345"/>
  </outline>
</glyph>
<glyph name="divide" format="1">
  <advance width="610"/>
  <unicode hex="00F7"/>
  <note>
    divide
  </note>
  <outline>
    <contour>
      <point x="257" y="422" type="line"/>
      <point x="334" y="422" type="line"/>
      <point x="334" y="499" type="line"/>
      <point x="257" y="499" type="line"/>
    </contour>
    <contour>
      <point x="257" y="112" type="line"/>
      <point x="334" y="112" type="line"/>
      <point x="334" y="189" type="line"/>
      <point x="257" y="189" type="line"/>
    </contour>
    <contour>
      <point x="98" y="280" type="line"/>
      <point x="499" y="280" type="line"/>
      <point x="499" y="336" type="line"/>
      <point x="98" y="336" type="line"/>
    </contour>
  </outline>
</glyph>
<glyph name="oslash" format="1">
  <advance width="610"/>
  <unicode hex="00F8"/>
  <note>
    oslash
  </note>
  <outline>
    <contour>
      <point x="529" y="445" type="line"/>
      <point x="501" y="470" type="line"/>
      <point x="67" y="4" type="line"/>
      <point x="92" y="-22" type="line"/>
      <point x="529" y="441" type="line"/>
    </contour>
    <contour>
      <point x="449" y="471"/>
      <point x="302" y="471" type="curve" smooth="yes"/>
      <point x="163" y="471"/>
      <point x="74" y="387"/>
      <point x="74" y="231" type="curve"/>
      <point x="74" y="92"/>
      <point x="168" y="-11"/>
      <point x="302" y="-11" type="curve" smooth="yes"/>
      <point x="427" y="-11"/>
      <point x="530" y="81"/>
      <point x="530" y="231" type="curve" smooth="yes"/>
      <point x="530" y="377"/>
    </contour>
    <contour>
      <point x="398" y="70"/>
      <point x="302" y="70" type="curve" smooth="yes"/>
      <point x="216" y="70"/>
      <point x="147" y="123"/>
      <point x="147" y="231" type="curve" smooth="yes"/>
      <point x="147" y="332"/>
      <point x="199" y="387"/>
      <point x="302" y="391" type="curve" smooth="yes"/>
      <point x="403" y="388"/>
      <point x="457" y="335"/>
      <point x="457" y="231" type="curve" smooth="yes"/>
      <point x="457" y="135"/>
    </contour>
  </outline>
</glyph>
<glyph name="thorn" format="1">
  <advance width="600"/>
  <unicode hex="00FE"/>
  <outline>
    <contour>
      <point x="260" y="470"/>
      <point x="189" y="448"/>
      <point x="153" y="387" type="curve"/>
      <point x="153" y="650" type="line"/>
      <point x="75" y="650" type="line"/>
      <point x="75" y="-180" type="line"/>
      <point x="154" y="-180" type="line"/>
      <point x="153" y="81" type="line"/>
      <point x="166" y="54"/>
      <point x="224" y="-11"/>
      <point x="312" y="-10" type="curve" smooth="yes"/>
      <point x="448" y="-9"/>
      <point x="525" y="96"/>
      <point x="525" y="231" type="curve" smooth="yes"/>
      <point x="525" y="393"/>
      <point x="420" y="470"/>
      <point x="314" y="470" type="curve" smooth="yes"/>
    </contour>
    <contour>
      <point x="187" y="61"/>
      <point x="146" y="148"/>
      <point x="146" y="238" type="curve" smooth="yes"/>
      <point x="146" y="345"/>
      <point x="217" y="391"/>
      <point x="302" y="391" type="curve" smooth="yes"/>
      <point x="390" y="391"/>
      <point x="451" y="324"/>
      <point x="451" y="232" type="curve" smooth="yes"/>
      <point x="451" y="117"/>
      <point x="368" y="61"/>
      <point x="297" y="61" type="curve" smooth="yes"/>
    </contour>
  </outline>
</glyph>
<glyph name="dcaron" format="1">
  <advance width="638"/>
  <unicode hex="010F"/>
  <outline>
    <contour>
      <point x="574" y="642" type="line"/>
      <point x="566" y="462" type="line"/>
      <point x="611" y="462" type="line"/>
      <point x="658" y="642" type="line"/>
    </contour>
    <component base="d"/>
  </outline>
</glyph>
<glyph name="idotless" format="1">
  <advance width="212"/>
  <unicode hex="0131"/>
  <outline>
    <contour>
      <point x="147" y="460" type="line"/>
      <point x="147" y="0" type="line"/>
      <point x="67" y="0" type="line"/>
      <point x="67" y="460" type="line"/>
    </contour>
    <contour>
      <point x="161" y="10" type="move" name="ogonek"/>
    </contour>
    <contour>
      <point x="106" y="0" type="move" name="bottom"/>
    </contour>
    <contour>
      <point x="106" y="460" type="move" name="top"/>
    </contour>
  </outline>
</glyph>
<glyph name="Eng" format="1">
  <advance width="671"/>
  <unicode hex="014A"/>
  <outline>
    <contour>
      <point x="516" y="-36" type="line" smooth="yes"/>
      <point x="516" y="-94"/>
      <point x="499" y="-129"/>
      <point x="453" y="-129" type="curve" smooth="yes"/>
      <point x="421" y="-129"/>
      <point x="404" y="-121"/>
      <point x="392" y="-115" type="curve"/>
      <point x="392" y="-163" type="line"/>
      <point x="406" y="-181"/>
      <point x="434" y="-195"/>
      <point x="467" y="-195" type="curve" smooth="yes"/>
      <point x="552" y="-195"/>
      <point x="595" y="-148"/>
      <point x="595" y="-33" type="curve" smooth="yes"/>
      <point x="595" y="206" type="line"/>
      <point x="516" y="206" type="line"/>
    </contour>
    <component base="N"/>
  </outline>
</glyph>
<glyph name="eng" format="1">
  <advance width="551"/>
  <unicode hex="014B"/>
  <outline>
    <contour>
      <point x="477" y="220" type="line"/>
      <point x="476" y="-19" type="line" smooth="yes"/>
      <point x="476" y="-134"/>
      <point x="432" y="-181"/>
      <point x="347" y="-181" type="curve" smooth="yes"/>
      <point x="314" y="-181"/>
      <point x="286" y="-167"/>
      <point x="272" y="-149" type="curve"/>
      <point x="272" y="-101" type="line"/>
      <point x="284" y="-107"/>
      <point x="301" y="-115"/>
      <point x="333" y="-115" type="curve" smooth="yes"/>
      <point x="379" y="-115"/>
      <point x="396" y="-80"/>
      <point x="396" y="-22" type="curve" smooth="yes"/>
      <point x="396" y="220" type="line"/>
    </contour>
    <component base="n"/>
  </outline>
</glyph>
<glyph name="OE" format="1">
  <advance width="1048"/>
  <unicode hex="0152"/>
  <outline>
    <contour>
      <point x="664" y="287" type="line"/>
      <point x="991" y="287" type="line"/>
      <point x="991" y="364" type="line"/>
      <point x="664" y="364" type="line"/>
      <point x="664" y="563" type="line"/>
      <point x="1011" y="563" type="line"/>
      <point x="1011" y="639" type="line"/>
      <point x="586" y="639" type="line"/>
      <point x="586" y="555" type="line"/>
      <point x="536" y="621"/>
      <point x="460" y="651"/>
      <point x="377" y="651" type="curve" smooth="yes"/>
      <point x="220" y="651"/>
      <point x="93" y="559"/>
      <point x="86" y="335" type="curve" smooth="yes"/>
      <point x="80" y="133"/>
      <point x="195" y="-11"/>
      <point x="377" y="-11" type="curve" smooth="yes"/>
      <point x="471" y="-11"/>
      <point x="541" y="29"/>
      <point x="586" y="96" type="curve"/>
      <point x="586" y="0" type="line"/>
      <point x="1017" y="0" type="line"/>
      <point x="1017" y="76" type="line"/>
      <point x="664" y="76" type="line"/>
    </contour>
    <contour>
      <point x="240" y="57"/>
      <point x="166" y="176"/>
      <point x="167" y="325" type="curve" smooth="yes"/>
      <point x="168" y="512"/>
      <point x="280" y="566"/>
      <point x="377" y="566" type="curve" smooth="yes"/>
      <point x="468" y="566"/>
      <point x="575" y="507"/>
      <point x="586" y="351" type="curve"/>
      <point x="586" y="289" type="line"/>
      <point x="577" y="148"/>
      <point x="507" y="65"/>
      <point x="377" y="61" type="curve" smooth="yes"/>
    </contour>
  </outline>
</glyph>
<glyph name="oe" format="1">
  <advance width="872"/>
  <unicode hex="0153"/>
  <outline>
    <contour>
      <point x="476" y="194" type="line"/>
      <point x="825" y="194" type="line"/>
      <point x="833" y="208"/>
      <point x="836" y="236"/>
      <point x="837" y="258" type="curve"/>
      <point x="837" y="369"/>
      <point x="772" y="470"/>
      <point x="633" y="470" type="curve" smooth="yes"/>
      <point x="486" y="470"/>
      <point x="415" y="362"/>
      <point x="415" y="238" type="curve" smooth="yes"/>
      <point x="415" y="74"/>
      <point x="518" y="-10"/>
      <point x="646" y="-10" type="curve" smooth="yes"/>
      <point x="726" y="-10"/>
      <point x="785" y="28"/>
      <point x="809" y="52" type="curve"/>
      <point x="809" y="124" type="line"/>
      <point x="764" y="77"/>
      <point x="714" y="60"/>
      <point x="656" y="60" type="curve" smooth="yes"/>
      <point x="545" y="60"/>
      <point x="496" y="140"/>
      <point x="494" y="229" type="curve" smooth="yes"/>
      <point x="492" y="334"/>
      <point x="551" y="390"/>
      <point x="627" y="390" type="curve" smooth="yes"/>
      <point x="688" y="390"/>
      <point x="745" y="364"/>
      <point x="754" y="284" type="curve" smooth="yes"/>
      <point x="755" y="275"/>
      <point x="756" y="266"/>
      <point x="756" y="257" type="curve"/>
      <point x="474" y="258" type="line"/>
    </contour>
    <contour>
      <point x="494" y="377"/>
      <point x="407" y="471"/>
      <point x="267" y="471" type="curve" smooth="yes"/>
      <point x="135" y="471"/>
      <point x="40" y="387"/>
      <point x="40" y="231" type="curve" smooth="yes"/>
      <point x="40" y="92"/>
      <point x="139" y="-10"/>
      <point x="267" y="-10" type="curve" smooth="yes"/>
      <point x="386" y="-10"/>
      <point x="494" y="81"/>
      <point x="494" y="231" type="curve" smooth="yes"/>
    </contour>
    <contour>
      <point x="415" y="135"/>
      <point x="358" y="60"/>
      <point x="267" y="60" type="curve" smooth="yes"/>
      <point x="185" y="60"/>
      <point x="119" y="123"/>
      <point x="119" y="231" type="curve" smooth="yes"/>
      <point x="119" y="332"/>
      <point x="169" y="387"/>
      <point x="267" y="391" type="curve" smooth="yes"/>
      <point x="363" y="388"/>
      <point x="415" y="335"/>
      <point x="415" y="231" type="curve" smooth="yes"/>
    </contour>
  </outline>
</glyph>
<glyph name="tcaron" format="1">
  <advance width="427"/>
  <unicode hex="0165"/>
  <outline>
    <contour>
      <point x="274" y="729" type="line"/>
      <point x="266" y="549" type="line"/>
      <point x="311" y="549" type="line"/>
      <point x="358" y="729" type="line"/>
    </contour>
    <component base="t"/>
  </outline>
</glyph>
<glyph name="jdotless" format="1">
  <advance width="250"/>
  <unicode hex="0237"/>
  <outline>
    <contour>
      <point x="106" y="-22" type="line" smooth="yes"/>
      <point x="106" y="-80"/>
      <point x="88" y="-115"/>
      <point x="42" y="-115" type="curve" smooth="yes"/>
      <point x="10" y="-115"/>
      <point x="-7" y="-107"/>
      <point x="-19" y="-101" type="curve"/>
      <point x="-19" y="-149" type="line"/>
      <point x="-5" y="-167"/>
      <point x="23" y="-181"/>
      <point x="56" y="-181" type="curve" smooth="yes"/>
      <point x="141" y="-181"/>
      <point x="184" y="-134"/>
      <point x="184" y="-19" type="curve" smooth="yes"/>
      <point x="185" y="460" type="line"/>
      <point x="106" y="460" type="line"/>
    </contour>
  </outline>
</glyph>
<glyph name="circumflex" format="1">
  <advance width="445"/>
  <unicode hex="02C6"/>
  <outline>
    <contour>
      <point x="190" y="647" type="line"/>
      <point x="169" y="607"/>
      <point x="127" y="573"/>
      <point x="100" y="571" type="curve"/>
      <point x="100" y="517" type="line"/>
      <point x="140" y="520"/>
      <point x="198" y="536"/>
      <point x="219" y="581" type="curve"/>
      <point x="226" y="581" type="line"/>
      <point x="247" y="536"/>
      <point x="305" y="520"/>
      <point x="345" y="517" type="curve"/>
      <point x="345" y="571" type="line"/>
      <point x="318" y="573"/>
      <point x="276" y="607"/>
      <point x="254" y="647" type="curve"/>
    </contour>
    <contour>
      <point x="222" y="698" type="move" name="top"/>
    </contour>
    <contour>
      <point x="219" y="460" type="move" name="_top"/>
    </contour>
  </outline>
</glyph>
<glyph name="tilde" format="1">
  <advance width="500"/>
  <unicode hex="02DC"/>
  <outline>
    <contour>
      <point x="361" y="597"/>
      <point x="340" y="593"/>
      <point x="313" y="593" type="curve"/>
      <point x="277" y="593"/>
      <point x="243" y="623"/>
      <point x="193" y="623" type="curve"/>
      <point x="160" y="623"/>
      <point x="140" y="614"/>
      <point x="118" y="588" type="curve"/>
      <point x="118" y="535" type="line"/>
      <point x="138" y="548"/>
      <point x="160" y="558"/>
      <point x="185" y="558" type="curve"/>
      <point x="230" y="558"/>
      <point x="269" y="526"/>
      <point x="311" y="526" type="curve"/>
      <point x="336" y="526"/>
      <point x="363" y="535"/>
      <point x="382" y="555" type="curve"/>
      <point x="382" y="614" type="line"/>
    </contour>
    <contour>
      <point x="252" y="647" type="move" name="top"/>
    </contour>
    <contour>
      <point x="243" y="460" type="move" name="_top"/>
    </contour>
  </outline>
</glyph>
<glyph name="gravecomb" format="1">
  <advance width="221"/>
  <unicode hex="0300"/>
  <outline>
    <contour>
      <point x="191" y="509" type="line"/>
      <point x="144" y="509" type="line"/>
      <point x="30" y="652" type="line"/>
      <point x="133" y="652" type="line"/>
    </contour>
    <contour>
      <point x="111" y="652" type="move" name="top"/>
    </contour>
    <contour>
      <point x="153" y="460" type="move" name="_top"/>
    </contour>
  </outline>
</glyph>
<glyph name="acutecomb" format="1">
  <advance width="221"/>
  <unicode hex="0301"/>
  <outline>
    <contour>
      <point x="51" y="563" type="line"/>
      <point x="30" y="511" type="line"/>
      <point x="67" y="511" type="line"/>
      <point x="96" y="544" type="line"/>
      <point x="191" y="654" type="line"/>
      <point x="88" y="654" type="line"/>
    </contour>
    <contour>
      <point x="111" y="654" type="move" name="top"/>
    </contour>
    <contour>
      <point x="59" y="460" type="move" name="_top"/>
    </contour>
  </outline>
</glyph>
<glyph name="circumflexcomb" format="1">
  <advance width="445"/>
  <unicode hex="0302"/>
  <outline>
    <contour>
      <point x="190" y="647" type="line"/>
      <point x="169" y="607"/>
      <point x="127" y="573"/>
      <point x="100" y="571" type="curve"/>
      <point x="100" y="517" type="line"/>
      <point x="140" y="520"/>
      <point x="198" y="546"/>
      <point x="219" y="591" type="curve"/>
      <point x="226" y="591" type="line"/>
      <point x="247" y="546"/>
      <point x="305" y="520"/>
      <point x="345" y="517" type="curve"/>
      <point x="345" y="571" type="line"/>
      <point x="318" y="573"/>
      <point x="276" y="607"/>
      <point x="254" y="647" type="curve"/>
    </contour>
    <contour>
      <point x="223" y="647" type="move" name="top"/>
    </contour>
    <contour>
      <point x="223" y="460" type="move" name="_top"/>
    </contour>
  </outline>
</glyph>
<glyph name="tildecomb" format="1">
  <advance width="324"/>
  <unicode hex="0303"/>
  <outline>
    <contour>
      <point x="273" y="597"/>
      <point x="252" y="593"/>
      <point x="225" y="593" type="curve"/>
      <point x="189" y="593"/>
      <point x="155" y="623"/>
      <point x="105" y="623" type="curve"/>
      <point x="72" y="623"/>
      <point x="52" y="614"/>
      <point x="30" y="588" type="curve"/>
      <point x="30" y="535" type="line"/>
      <point x="50" y="548"/>
      <point x="72" y="558"/>
      <point x="97" y="558" type="curve"/>
      <point x="142" y="558"/>
      <point x="181" y="526"/>
      <point x="223" y="526" type="curve"/>
      <point x="248" y="526"/>
      <point x="275" y="535"/>
      <point x="294" y="555" type="curve"/>
      <point x="294" y="614" type="line"/>
    </contour>
    <contour>
      <point x="162" y="623" type="move" name="top"/>
    </contour>
    <contour>
      <point x="162" y="460" type="move" name="_top"/>
    </contour>
  </outline>
</glyph>
<glyph name="macroncomb" format="1">
  <advance width="325"/>
  <unicode hex="0304"/>
  <outline>
    <contour>
      <point x="73" y="562" type="line"/>
      <point x="252" y="562" type="line"/>
      <point x="252" y="640" type="line"/>
      <point x="73" y="640" type="line"/>
    </contour>
    <contour>
      <point x="163" y="640" type="move" name="top"/>
    </contour>
    <contour>
      <point x="163" y="460" type="move" name="_top"/>
    </contour>
  </outline>
</glyph>
<glyph name="brevecomb" format="1">
  <advance width="390"/>
  <unicode hex="0306"/>
  <outline>
    <contour>
      <point x="330" y="640" type="line"/>
      <point x="327" y="604"/>
      <point x="313" y="575"/>
      <point x="289" y="553" type="curve" smooth="yes"/>
      <point x="263" y="530"/>
      <point x="232" y="516"/>
      <point x="195" y="516" type="curve" smooth="yes"/>
      <point x="158" y="516"/>
      <point x="126" y="528"/>
      <point x="101" y="553" type="curve" smooth="yes"/>
      <point x="78" y="576"/>
      <point x="63" y="604"/>
      <point x="60" y="640" type="curve"/>
      <point x="126" y="640" type="line"/>
      <point x="127" y="597"/>
      <point x="158" y="572"/>
      <point x="195" y="572" type="curve" smooth="yes"/>
      <point x="232" y="572"/>
      <point x="263" y="593"/>
      <point x="264" y="640" type="curve"/>
    </contour>
    <contour>
      <point x="195" y="640" type="move" name="top"/>
    </contour>
    <contour>
      <point x="195" y="460" type="move" name="_top"/>
    </contour>
  </outline>
</glyph>
<glyph name="dotaccentcomb" format="1">
  <advance width="327"/>
  <unicode hex="0307"/>
  <outline>
    <contour>
      <point x="125" y="562" type="line"/>
      <point x="202" y="562" type="line"/>
      <point x="202" y="639" type="line"/>
      <point x="125" y="639" type="line"/>
    </contour>
    <contour>
      <point x="164" y="639" type="move" name="top"/>
    </contour>
    <contour>
      <point x="164" y="460" type="move" name="_top"/>
    </contour>
  </outline>
</glyph>
<glyph name="dieresiscomb" format="1">
  <advance width="497"/>
  <unicode hex="0308"/>
  <outline>
    <contour>
      <point x="125" y="562" type="line"/>
      <point x="202" y="562" type="line"/>
      <point x="202" y="639" type="line"/>
      <point x="125" y="639" type="line"/>
    </contour>
    <contour>
      <point x="295" y="562" type="line"/>
      <point x="372" y="562" type="line"/>
      <point x="372" y="639" type="line"/>
      <point x="295" y="639" type="line"/>
    </contour>
    <contour>
      <point x="249" y="639" type="move" name="top"/>
    </contour>
    <contour>
      <point x="249" y="460" type="move" name="_top"/>
    </contour>
  </outline>
</glyph>
<glyph name="ringcomb" format="1">
  <advance width="266"/>
  <unicode hex="030A"/>
  <outline>
    <contour>
      <point x="236" y="566"/>
      <point x="224" y="542"/>
      <point x="205" y="524" type="curve" smooth="yes"/>
      <point x="186" y="506"/>
      <point x="161" y="496"/>
      <point x="133" y="496" type="curve" smooth="yes"/>
      <point x="105" y="496"/>
      <point x="80" y="506"/>
      <point x="61" y="524" type="curve" smooth="yes"/>
      <point x="42" y="542"/>
      <point x="30" y="566"/>
      <point x="30" y="598" type="curve" smooth="yes"/>
      <point x="30" y="630"/>
      <point x="42" y="655"/>
      <point x="61" y="673" type="curve" smooth="yes"/>
      <point x="80" y="691"/>
      <point x="105" y="700"/>
      <point x="133" y="700" type="curve" smooth="yes"/>
      <point x="161" y="700"/>
      <point x="186" y="691"/>
      <point x="205" y="673" type="curve" smooth="yes"/>
      <point x="224" y="655"/>
      <point x="236" y="630"/>
      <point x="236" y="598" type="curve" smooth="yes"/>
    </contour>
    <contour>
      <point x="186" y="629"/>
      <point x="162" y="649"/>
      <point x="133" y="649" type="curve" smooth="yes"/>
      <point x="104" y="649"/>
      <point x="80" y="629"/>
      <point x="80" y="594" type="curve" smooth="yes"/>
      <point x="80" y="559"/>
      <point x="104" y="539"/>
      <point x="133" y="539" type="curve" smooth="yes"/>
      <point x="162" y="539"/>
      <point x="186" y="556"/>
      <point x="186" y="594" type="curve" smooth="yes"/>
    </contour>
    <contour>
      <point x="133" y="700" type="move" name="top"/>
    </contour>
    <contour>
      <point x="133" y="460" type="move" name="_top"/>
    </contour>
  </outline>
</glyph>
<glyph name="hungarumlautcomb" format="1">
  <advance width="371"/>
  <unicode hex="030B"/>
  <outline>
    <contour>
      <point x="40" y="511" type="line"/>
      <point x="77" y="511" type="line"/>
      <point x="191" y="654" type="line"/>
      <point x="98" y="654" type="line"/>
    </contour>
    <contour>
      <point x="180" y="511" type="line"/>
      <point x="217" y="511" type="line"/>
      <point x="331" y="654" type="line"/>
      <point x="238" y="654" type="line"/>
    </contour>
    <contour>
      <point x="186" y="654" type="move" name="top"/>
    </contour>
    <contour>
      <point x="137" y="460" type="move" name="_top"/>
    </contour>
  </outline>
</glyph>
<glyph name="caroncomb" format="1">
  <advance width="445"/>
  <unicode hex="030C"/>
  <outline>
    <contour>
      <point x="342" y="647" type="line"/>
      <point x="304" y="647" type="line"/>
      <point x="225" y="583" type="line"/>
      <point x="220" y="583" type="line"/>
      <point x="141" y="647" type="line"/>
      <point x="102" y="647" type="line"/>
      <point x="187" y="517" type="line"/>
      <point x="257" y="517" type="line"/>
    </contour>
    <contour>
      <point x="223" y="647" type="move" name="top"/>
    </contour>
    <contour>
      <point x="223" y="460" type="move" name="_top"/>
    </contour>
  </outline>
</glyph>
<glyph name="commaturnedabovecomb" format="1">
  <advance width="258"/>
  <unicode hex="0312"/>
  <outline>
    <contour>
      <point x="228" y="687" type="line"/>
      <point x="181" y="687" type="line"/>
      <point x="67" y="544" type="line"/>
      <point x="170" y="544" type="line"/>
    </contour>
    <contour>
      <point x="148" y="687" type="move" name="top"/>
    </contour>
    <contour>
      <point x="148" y="460" type="move" name="_top"/>
    </contour>
  </outline>
</glyph>
<glyph name="commaaccentcomb" format="1">
  <advance width="221"/>
  <unicode hex="0326"/>
  <outline>
    <contour>
      <point x="30" y="-197" type="line"/>
      <point x="77" y="-197" type="line"/>
      <point x="191" y="-54" type="line"/>
      <point x="88" y="-54" type="line"/>
    </contour>
    <contour>
      <point x="111" y="0" type="move" name="_bottom"/>
    </contour>
    <contour>
      <point x="111" y="-197" type="move" name="bottom"/>
    </contour>
  </outline>
</glyph>
<glyph name="ogonekcomb" format="1">
  <advance width="600"/>
  <unicode hex="0328"/>
  <outline>
    <contour>
      <point x="303" y="-4" type="line"/>
      <point x="256" y="-1"/>
      <point x="207" y="-22"/>
      <point x="207" y="-75" type="curve" smooth="yes"/>
      <point x="207" y="-121"/>
      <point x="236" y="-139"/>
      <point x="269" y="-139" type="curve" smooth="yes"/>
      <point x="285" y="-139"/>
      <point x="302" y="-135"/>
      <point x="317" y="-128" type="curve"/>
      <point x="317" y="-184" type="line"/>
      <point x="298" y="-190"/>
      <point x="281" y="-192"/>
      <point x="265" y="-192" type="curve" smooth="yes"/>
      <point x="195" y="-192"/>
      <point x="156" y="-140"/>
      <point x="156" y="-85" type="curve" smooth="yes"/>
      <point x="156" y="-26"/>
      <point x="202" y="36"/>
      <point x="303" y="36" type="curve"/>
    </contour>
    <contour>
      <point x="391" y="10" type="move" name="_ogonek"/>
    </contour>
  </outline>
</glyph>
<glyph name="strokeshortcomb" format="1">
  <advance width="600"/>
  <unicode hex="0335"/>
  <outline>
    <contour>
      <point x="154" y="331" type="line"/>
      <point x="403" y="331" type="line"/>
      <point x="403" y="388" type="line"/>
      <point x="154" y="388" type="line"/>
    </contour>
    <contour>
      <point x="271" y="306" type="move" name="_center"/>
    </contour>
  </outline>
</glyph>
<glyph name="strokelongcomb" format="1">
  <advance width="645"/>
  <unicode hex="0336"/>
  <outline>
    <contour>
      <point x="625" y="518" type="line"/>
      <point x="625" y="451" type="line"/>
      <point x="20" y="451" type="line"/>
      <point x="20" y="518" type="line"/>
    </contour>
    <contour>
      <point x="303" y="330" type="move" name="_center"/>
    </contour>
  </outline>
</glyph>
<glyph name="slashshortcomb" format="1">
  <advance width="602"/>
  <unicode hex="0337"/>
  <outline>
    <contour>
      <point x="39" y="419" type="line"/>
      <point x="292" y="416" type="line"/>
      <point x="292" y="497" type="line"/>
      <point x="39" y="500" type="line"/>
    </contour>
    <contour>
      <point x="196" y="382" type="move" name="_center"/>
    </contour>
  </outline>
</glyph>
<glyph name="slashlongcomb" format="1">
  <advance width="600"/>
  <unicode hex="0338"/>
  <outline>
    <contour>
      <point x="529" y="445" type="line"/>
      <point x="501" y="470" type="line"/>
      <point x="67" y="4" type="line"/>
      <point x="92" y="-22" type="line"/>
      <point x="529" y="441" type="line"/>
    </contour>
    <contour>
      <point x="298" y="224" type="move" name="_center"/>
    </contour>
  </outline>
</glyph>
<glyph name="figuredash" format="1">
  <advance width="610"/>
  <unicode hex="2012"/>
  <note>
    figuredash
  </note>
  <outline>
    <contour>
      <point x="0" y="217" type="line"/>
      <point x="609" y="217" type="line"/>
      <point x="609" y="257" type="line"/>
      <point x="0" y="257" type="line"/>
    </contour>
  </outline>
</glyph>
<glyph name="endash" format="1">
  <advance width="481"/>
  <unicode hex="2013"/>
  <note>
    endash
  </note>
  <outline>
    <contour>
      <point x="75" y="217" type="line"/>
      <point x="406" y="217" type="line"/>
      <point x="406" y="257" type="line"/>
      <point x="75" y="257" type="line"/>
    </contour>
  </outline>
</glyph>
<glyph name="emdash" format="1">
  <advance width="1040"/>
  <unicode hex="2014"/>
  <note>
    emdash
  </note>
  <outline>
    <contour>
      <point x="75" y="217" type="line"/>
      <point x="948" y="217" type="line"/>
      <point x="948" y="257" type="line"/>
      <point x="75" y="257" type="line"/>
    </contour>
  </outline>
</glyph>
<glyph name="quoteleft" format="1">
  <advance width="213"/>
  <unicode hex="2018"/>
  <note>
    quoteleft
  </note>
  <outline>
    <contour>
      <point x="124" y="506"/>
      <point x="116" y="578"/>
      <point x="132" y="639" type="curve"/>
      <point x="45" y="639" type="line"/>
      <point x="46" y="566"/>
      <point x="68" y="506"/>
      <point x="116" y="460" type="curve"/>
      <point x="155" y="460" type="line"/>
    </contour>
  </outline>
</glyph>
<glyph name="dagger" format="1">
  <advance width="600"/>
  <unicode hex="2020"/>
  <outline>
    <contour>
      <point x="339" y="531" type="line"/>
      <point x="328" y="730" type="line"/>
      <point x="277" y="730" type="line"/>
      <point x="266" y="531" type="line"/>
      <point x="126" y="520" type="line"/>
      <point x="126" y="469" type="line"/>
      <point x="266" y="458" type="line"/>
      <point x="277" y="0" type="line"/>
      <point x="328" y="0" type="line"/>
      <point x="339" y="459" type="line"/>
      <point x="478" y="470" type="line"/>
      <point x="478" y="520" type="line"/>
    </contour>
  </outline>
</glyph>
<glyph name="daggerdbl" format="1">
  <advance width="600"/>
  <unicode hex="2021"/>
  <outline>
    <contour>
      <point x="266" y="474" type="line"/>
      <point x="277" y="0" type="line"/>
      <point x="328" y="0" type="line"/>
      <point x="339" y="475" type="line"/>
    </contour>
    <contour>
      <point x="303" y="534" type="line"/>
      <point x="126" y="520" type="line"/>
      <point x="126" y="469" type="line"/>
      <point x="296" y="456" type="line"/>
      <point x="478" y="470" type="line"/>
      <point x="478" y="520" type="line"/>
    </contour>
    <contour>
      <point x="340" y="515" type="line"/>
      <point x="328" y="730" type="line"/>
      <point x="277" y="730" type="line"/>
      <point x="265" y="515" type="line"/>
    </contour>
    <contour>
      <point x="303" y="534" type="line"/>
      <point x="126" y="520" type="line"/>
      <point x="126" y="469" type="line"/>
      <point x="296" y="456" type="line"/>
      <point x="478" y="470" type="line"/>
      <point x="478" y="520" type="line"/>
    </contour>
    <contour>
      <point x="303" y="380" type="line"/>
      <point x="126" y="366" type="line"/>
      <point x="126" y="315" type="line"/>
      <point x="296" y="302" type="line"/>
      <point x="478" y="316" type="line"/>
      <point x="478" y="366" type="line"/>
    </contour>
  </outline>
</glyph>
<glyph name="bullet" format="1">
  <advance width="292"/>
  <unicode hex="2022"/>
  <note>
    bullet
  </note>
  <outline>
    <contour>
      <point x="100" y="153"/>
      <point x="66" y="177"/>
      <point x="66" y="229" type="curve" smooth="yes"/>
      <point x="66" y="280"/>
      <point x="100" y="304"/>
      <point x="142" y="304" type="curve" smooth="yes"/>
      <point x="184" y="304"/>
      <point x="218" y="280"/>
      <point x="218" y="229" type="curve" smooth="yes"/>
      <point x="218" y="177"/>
      <point x="184" y="153"/>
      <point x="142" y="153" type="curve" smooth="yes"/>
    </contour>
  </outline>
</glyph>
<glyph name="guilsinglright" format="1">
  <advance width="423"/>
  <unicode hex="203A"/>
  <note>
    guilsinglright
  </note>
  <outline>
    <contour>
      <point x="174" y="61" type="line"/>
      <point x="341" y="243" type="line"/>
      <point x="328" y="258" type="line"/>
      <point x="177" y="429" type="line"/>
      <point x="122" y="387" type="line"/>
      <point x="230" y="262" type="line"/>
      <point x="258" y="244" type="line"/>
      <point x="231" y="227" type="line"/>
      <point x="123" y="106" type="line"/>
    </contour>
  </outline>
</glyph>
<glyph name="euro" format="1">
  <advance width="664"/>
  <unicode hex="20AC"/>
  <note>
    Euro
  </note>
  <outline>
    <contour>
      <point x="146" y="362" type="line"/>
      <point x="480" y="362" type="line"/>
      <point x="499" y="428" type="line"/>
      <point x="154" y="428" type="line"/>
    </contour>
    <contour>
      <point x="154" y="298" type="line"/>
      <point x="88" y="298" type="line"/>
      <point x="69" y="232" type="line"/>
      <point x="159" y="232" type="line"/>
    </contour>
    <contour>
      <point x="196" y="232" type="line"/>
      <point x="449" y="232" type="line"/>
      <point x="468" y="298" type="line"/>
      <point x="187" y="298" type="line"/>
    </contour>
    <contour>
      <point x="135" y="532"/>
      <point x="135" y="338" type="curve" smooth="yes"/>
      <point x="135" y="155"/>
      <point x="210" y="-9"/>
      <point x="398" y="-9" type="curve" smooth="yes"/>
      <point x="485" y="-9"/>
      <point x="531" y="17"/>
      <point x="576" y="53" type="curve"/>
      <point x="579" y="113" type="line"/>
      <point x="524" y="79"/>
      <point x="485" y="63"/>
      <point x="415" y="63" type="curve" smooth="yes"/>
      <point x="263" y="63"/>
      <point x="211" y="217"/>
      <point x="215" y="338" type="curve" smooth="yes"/>
      <point x="219" y="454"/>
      <point x="264" y="576"/>
      <point x="408" y="577" type="curve" smooth="yes"/>
      <point x="466" y="577"/>
      <point x="507" y="572"/>
      <point x="574" y="537" type="curve"/>
      <point x="574" y="600" type="line"/>
      <point x="539" y="628"/>
      <point x="486" y="649"/>
      <point x="409" y="649" type="curve" smooth="yes"/>
      <point x="226" y="649"/>
    </contour>
    <contour>
      <point x="161" y="428" type="line"/>
      <point x="88" y="428" type="line"/>
      <point x="69" y="362" type="line"/>
      <point x="154" y="362" type="line"/>
    </contour>
  </outline>
</glyph>
<glyph name="numero" format="1">
  <advance width="966"/>
  <unicode hex="2116"/>
  <outline>
    <contour>
      <point x="879" y="386"/>
      <point x="916" y="451"/>
      <point x="916" y="526" type="curve"/>
      <point x="916" y="580"/>
      <point x="883" y="649"/>
      <point x="793" y="649" type="curve"/>
      <point x="701" y="649"/>
      <point x="669" y="580"/>
      <point x="669" y="526" type="curve"/>
      <point x="669" y="451"/>
      <point x="706" y="386"/>
      <point x="793" y="386" type="curve"/>
    </contour>
    <contour>
      <point x="746" y="445"/>
      <point x="731" y="489"/>
      <point x="731" y="517" type="curve" smooth="yes"/>
      <point x="731" y="547"/>
      <point x="743" y="582"/>
      <point x="793" y="582" type="curve"/>
      <point x="847" y="582"/>
      <point x="855" y="548"/>
      <point x="855" y="517" type="curve" smooth="yes"/>
      <point x="855" y="489"/>
      <point x="839" y="445"/>
      <point x="793" y="445" type="curve"/>
    </contour>
    <contour>
      <point x="672" y="270" type="line"/>
      <point x="916" y="270" type="line"/>
      <point x="916" y="334" type="line"/>
      <point x="672" y="334" type="line"/>
    </contour>
    <component base="N"/>
  </outline>
</glyph>
<glyph name="leftArrow" format="1">
  <advance width="600"/>
  <unicode hex="2190"/>
  <outline>
    <contour>
      <point x="311" y="111" type="line"/>
      <point x="30" y="316" type="line"/>
      <point x="311" y="520" type="line"/>
      <point x="279" y="381" type="line"/>
      <point x="568" y="381" type="line"/>
      <point x="568" y="251" type="line"/>
      <point x="279" y="251" type="line"/>
    </contour>
  </outline>
</glyph>
<glyph name="leftRightArrow" format="1">
  <advance width="600"/>
  <unicode hex="2194"/>
  <outline>
    <contour>
      <point x="241" y="111" type="line"/>
      <point x="-40" y="316" type="line"/>
      <point x="241" y="520" type="line"/>
      <point x="209" y="381" type="line"/>
      <point x="498" y="381" type="line"/>
      <point x="498" y="251" type="line"/>
      <point x="209" y="251" type="line"/>
    </contour>
    <contour>
      <point x="120" y="251" type="line"/>
      <point x="120" y="381" type="line"/>
      <point x="409" y="381" type="line"/>
      <point x="377" y="520" type="line"/>
      <point x="658" y="316" type="line"/>
      <point x="377" y="111" type="line"/>
      <point x="409" y="251" type="line"/>
    </contour>
  </outline>
</glyph>
<glyph name="partialdiff" format="1">
  <advance width="600"/>
  <unicode hex="2202"/>
  <outline>
    <contour>
      <point x="401" y="562"/>
      <point x="321" y="680" type="curve"/>
      <point x="236" y="680" type="line"/>
      <point x="321" y="534"/>
      <point x="366" y="452"/>
      <point x="401" y="362" type="curve"/>
      <point x="369" y="455"/>
      <point x="282" y="471"/>
      <point x="242" y="471" type="curve" smooth="yes"/>
      <point x="130" y="471"/>
      <point x="40" y="387"/>
      <point x="40" y="231" type="curve" smooth="yes"/>
      <point x="40" y="92"/>
      <point x="139" y="-11"/>
      <point x="267" y="-11" type="curve" smooth="yes"/>
      <point x="386" y="-11"/>
      <point x="494" y="81"/>
      <point x="494" y="231" type="curve" smooth="yes"/>
      <point x="494" y="341"/>
    </contour>
    <contour>
      <point x="185" y="60"/>
      <point x="119" y="123"/>
      <point x="119" y="231" type="curve" smooth="yes"/>
      <point x="119" y="332"/>
      <point x="169" y="387"/>
      <point x="267" y="391" type="curve"/>
      <point x="344" y="389"/>
      <point x="393" y="354"/>
      <point x="409" y="287" type="curve"/>
      <point x="412" y="268"/>
      <point x="414" y="250"/>
      <point x="415" y="231" type="curve"/>
      <point x="415" y="135"/>
      <point x="358" y="60"/>
      <point x="267" y="60" type="curve" smooth="yes"/>
    </contour>
  </outline>
</glyph>
<glyph name="emptyset" format="1">
  <advance width="661"/>
  <unicode hex="2205"/>
  <outline>
    <contour>
      <point x="493" y="-12"/>
      <point x="624" y="119"/>
      <point x="624" y="281" type="curve" smooth="yes"/>
      <point x="624" y="443"/>
      <point x="493" y="574"/>
      <point x="331" y="574" type="curve" smooth="yes"/>
      <point x="169" y="574"/>
      <point x="38" y="443"/>
      <point x="38" y="281" type="curve" smooth="yes"/>
      <point x="38" y="119"/>
      <point x="169" y="-12"/>
      <point x="331" y="-12" type="curve" smooth="yes"/>
    </contour>
    <contour>
      <point x="198" y="40"/>
      <point x="90" y="148"/>
      <point x="90" y="281" type="curve" smooth="yes"/>
      <point x="90" y="414"/>
      <point x="198" y="522"/>
      <point x="331" y="522" type="curve" smooth="yes"/>
      <point x="464" y="522"/>
      <point x="572" y="414"/>
      <point x="572" y="281" type="curve" smooth="yes"/>
      <point x="572" y="148"/>
      <point x="464" y="40"/>
      <point x="331" y="40" type="curve" smooth="yes"/>
    </contour>
    <contour>
      <point x="622" y="621" type="line"/>
      <point x="0" y="-2" type="line"/>
      <point x="39" y="-41" type="line"/>
      <point x="661" y="582" type="line"/>
    </contour>
  </outline>
</glyph>
<glyph name="product" format="1">
  <advance width="600"/>
  <unicode hex="220F"/>
  <outline>
    <contour>
      <point x="17" y="630" type="line"/>
      <point x="590" y="630" type="line"/>
      <point x="590" y="704" type="line"/>
      <point x="17" y="704" type="line"/>
    </contour>
    <contour>
      <point x="117" y="0" type="line"/>
      <point x="197" y="0" type="line"/>
      <point x="197" y="672" type="line"/>
      <point x="117" y="672" type="line"/>
    </contour>
    <contour>
      <point x="397" y="0" type="line"/>
      <point x="477" y="0" type="line"/>
      <point x="477" y="672" type="line"/>
      <point x="397" y="672" type="line"/>
    </contour>
  </outline>
</glyph>
<glyph name="summation" format="1">
  <advance width="600"/>
  <unicode hex="2211"/>
  <outline>
    <contour>
      <point x="472" y="-27" type="line"/>
      <point x="195" y="-27" type="line"/>
      <point x="462" y="281" type="line"/>
      <point x="462" y="339" type="line"/>
      <point x="195" y="647" type="line"/>
      <point x="472" y="647" type="line"/>
      <point x="472" y="726" type="line"/>
      <point x="91" y="726" type="line"/>
      <point x="91" y="648" type="line"/>
      <point x="388" y="310" type="line"/>
      <point x="91" y="-27" type="line"/>
      <point x="91" y="-106" type="line"/>
      <point x="472" y="-106" type="line"/>
    </contour>
  </outline>
</glyph>
<glyph name="minus" format="1">
  <advance width="600"/>
  <unicode hex="2212"/>
  <outline>
    <contour>
      <point x="50" y="237" type="line"/>
      <point x="541" y="237" type="line"/>
      <point x="541" y="305" type="line"/>
      <point x="50" y="305" type="line"/>
    </contour>
  </outline>
</glyph>
<glyph name="radical" format="1">
  <advance width="772"/>
  <unicode hex="221A"/>
  <outline>
    <contour>
      <point x="251" y="-26" type="line"/>
      <point x="250" y="-26" type="line"/>
      <point x="243" y="13" type="line"/>
      <point x="157" y="339" type="line"/>
      <point x="77" y="339" type="line"/>
      <point x="216" y="-121" type="line"/>
      <point x="251" y="-121" type="line"/>
    </contour>
    <contour>
      <point x="286" y="-121" type="line"/>
      <point x="517" y="704" type="line"/>
      <point x="443" y="704" type="line"/>
      <point x="259" y="13" type="line"/>
      <point x="252" y="-26" type="line"/>
      <point x="251" y="-26" type="line"/>
      <point x="251" y="-121" type="line"/>
    </contour>
    <contour>
      <point x="459" y="637" type="line"/>
      <point x="695" y="637" type="line"/>
      <point x="695" y="704" type="line"/>
      <point x="459" y="704" type="line"/>
    </contour>
  </outline>
</glyph>
<glyph name="infinity" format="1">
  <advance width="782"/>
  <unicode hex="221E"/>
  <outline>
    <contour>
      <point x="385" y="262" type="line" smooth="yes"/>
      <point x="407" y="187"/>
      <point x="480" y="148"/>
      <point x="541" y="148" type="curve"/>
      <point x="647" y="148"/>
      <point x="722" y="221"/>
      <point x="722" y="317" type="curve"/>
      <point x="722" y="410"/>
      <point x="667" y="484"/>
      <point x="561" y="484" type="curve"/>
      <point x="365" y="484"/>
      <point x="372" y="222"/>
      <point x="224" y="222" type="curve"/>
      <point x="164" y="222"/>
      <point x="136" y="279"/>
      <point x="136" y="318" type="curve"/>
      <point x="136" y="374"/>
      <point x="173" y="417"/>
      <point x="235" y="417" type="curve"/>
      <point x="301" y="417"/>
      <point x="353" y="366"/>
      <point x="367" y="325" type="curve" smooth="yes"/>
      <point x="399" y="362" type="line" smooth="yes"/>
      <point x="357" y="457"/>
      <point x="300" y="484"/>
      <point x="229" y="484" type="curve"/>
      <point x="123" y="484"/>
      <point x="60" y="410"/>
      <point x="60" y="317" type="curve"/>
      <point x="60" y="221"/>
      <point x="123" y="148"/>
      <point x="229" y="148" type="curve"/>
      <point x="416" y="148"/>
      <point x="416" y="409"/>
      <point x="557" y="409" type="curve"/>
      <point x="617" y="409"/>
      <point x="645" y="352"/>
      <point x="645" y="313" type="curve"/>
      <point x="645" y="257"/>
      <point x="608" y="214"/>
      <point x="536" y="214" type="curve"/>
      <point x="469" y="214"/>
      <point x="427" y="265"/>
      <point x="414" y="307" type="curve" smooth="yes"/>
    </contour>
  </outline>
</glyph>
<glyph name="integral" format="1">
  <advance width="600"/>
  <unicode hex="222B"/>
  <outline>
    <contour>
      <point x="63" y="-67" type="line"/>
      <point x="80" y="-89"/>
      <point x="101" y="-100"/>
      <point x="141" y="-100" type="curve" smooth="yes"/>
      <point x="212" y="-100"/>
      <point x="283" y="-57"/>
      <point x="304" y="54" type="curve" smooth="yes"/>
      <point x="398" y="550" type="line"/>
      <point x="318" y="550" type="line"/>
      <point x="224" y="59" type="line"/>
      <point x="216" y="11"/>
      <point x="187" y="-30"/>
      <point x="142" y="-30" type="curve" smooth="yes"/>
      <point x="118" y="-30"/>
      <point x="91" y="-23"/>
      <point x="74" y="-10" type="curve"/>
    </contour>
    <contour>
      <point x="560" y="674" type="line"/>
      <point x="543" y="696"/>
      <point x="522" y="707"/>
      <point x="482" y="707" type="curve" smooth="yes"/>
      <point x="411" y="707"/>
      <point x="340" y="664"/>
      <point x="319" y="553" type="curve" smooth="yes"/>
      <point x="225" y="57" type="line"/>
      <point x="305" y="57" type="line"/>
      <point x="399" y="548" type="line"/>
      <point x="407" y="596"/>
      <point x="436" y="637"/>
      <point x="481" y="637" type="curve" smooth="yes"/>
      <point x="505" y="637"/>
      <point x="532" y="630"/>
      <point x="549" y="617" type="curve"/>
    </contour>
  </outline>
</glyph>
<glyph name="approxequal" format="1">
  <advance width="600"/>
  <unicode hex="2248"/>
  <outline>
    <contour>
      <point x="453" y="373"/>
      <point x="423" y="368"/>
      <point x="383" y="368" type="curve"/>
      <point x="331" y="368"/>
      <point x="281" y="403"/>
      <point x="208" y="403" type="curve"/>
      <point x="159" y="403"/>
      <point x="130" y="393"/>
      <point x="98" y="362" type="curve"/>
      <point x="98" y="312" type="line"/>
      <point x="127" y="327"/>
      <point x="159" y="339"/>
      <point x="196" y="339" type="curve"/>
      <point x="262" y="339"/>
      <point x="319" y="302"/>
      <point x="380" y="302" type="curve"/>
      <point x="417" y="302"/>
      <point x="456" y="312"/>
      <point x="484" y="335" type="curve"/>
      <point x="484" y="393" type="line"/>
    </contour>
    <contour>
      <point x="453" y="207"/>
      <point x="423" y="202"/>
      <point x="383" y="202" type="curve"/>
      <point x="331" y="202"/>
      <point x="281" y="237"/>
      <point x="208" y="237" type="curve"/>
      <point x="159" y="237"/>
      <point x="130" y="227"/>
      <point x="98" y="197" type="curve"/>
      <point x="98" y="146" type="line"/>
      <point x="127" y="161"/>
      <point x="159" y="173"/>
      <point x="196" y="173" type="curve"/>
      <point x="262" y="173"/>
      <point x="319" y="136"/>
      <point x="380" y="136" type="curve"/>
      <point x="417" y="136"/>
      <point x="456" y="146"/>
      <point x="484" y="169" type="curve"/>
      <point x="484" y="227" type="line"/>
    </contour>
  </outline>
</glyph>
<glyph name="notequal" format="1">
  <advance width="600"/>
  <unicode hex="2260"/>
  <outline>
    <contour>
      <point x="472" y="393" type="line"/>
      <point x="472" y="325" type="line"/>
      <point x="117" y="325" type="line"/>
      <point x="117" y="393" type="line"/>
    </contour>
    <contour>
      <point x="472" y="208" type="line"/>
      <point x="472" y="140" type="line"/>
      <point x="117" y="140" type="line"/>
      <point x="117" y="208" type="line"/>
    </contour>
    <contour>
      <point x="463" y="486" type="line"/>
      <point x="187" y="37" type="line"/>
      <point x="106" y="37" type="line"/>
      <point x="382" y="486" type="line"/>
    </contour>
  </outline>
</glyph>
<glyph name="greaterequal" format="1">
  <advance width="600"/>
  <unicode hex="2265"/>
  <outline>
    <contour>
      <point x="542" y="411" type="line"/>
      <point x="58" y="513" type="line"/>
      <point x="58" y="430" type="line"/>
      <point x="390" y="372" type="line"/>
      <point x="463" y="368" type="line"/>
      <point x="390" y="363" type="line"/>
      <point x="58" y="300" type="line"/>
      <point x="58" y="217" type="line"/>
      <point x="542" y="328" type="line"/>
    </contour>
    <contour>
      <point x="56" y="57" type="line"/>
      <point x="548" y="57" type="line"/>
      <point x="548" y="126" type="line"/>
      <point x="56" y="126" type="line"/>
    </contour>
  </outline>
</glyph>
<glyph name="lozenge" format="1">
  <advance width="600"/>
  <unicode hex="25CA"/>
  <outline>
    <contour>
      <point x="111" y="365" type="line"/>
      <point x="180" y="365" type="line"/>
      <point x="314" y="729" type="line"/>
      <point x="245" y="729" type="line"/>
    </contour>
    <contour>
      <point x="291" y="729" type="line"/>
      <point x="425" y="365" type="line"/>
      <point x="494" y="365" type="line"/>
      <point x="360" y="729" type="line"/>
    </contour>
    <contour>
      <point x="314" y="0" type="line"/>
      <point x="180" y="365" type="line"/>
      <point x="111" y="365" type="line"/>
      <point x="245" y="0" type="line"/>
    </contour>
    <contour>
      <point x="494" y="365" type="line"/>
      <point x="425" y="365" type="line"/>
      <point x="291" y="0" type="line"/>
      <point x="360" y="0" type="line"/>
    </contour>
  </outline>
</glyph>
<glyph name="lowerHalfBlackWhiteCircle" format="1">
  <advance width="998"/>
  <unicode hex="25D2"/>
  <outline>
    <contour>
      <point x="166" y="324" type="line"/>
      <point x="166" y="508"/>
      <point x="315" y="657"/>
      <point x="499" y="657" type="curve" smooth="yes"/>
      <point x="683" y="657"/>
      <point x="832" y="508"/>
      <point x="832" y="324" type="curve"/>
    </contour>
    <contour>
      <point x="702" y="-43"/>
      <point x="866" y="121"/>
      <point x="866" y="324" type="curve" smooth="yes"/>
      <point x="866" y="527"/>
      <point x="702" y="691"/>
      <point x="499" y="691" type="curve" smooth="yes"/>
      <point x="296" y="691"/>
      <point x="132" y="527"/>
      <point x="132" y="324" type="curve" smooth="yes"/>
      <point x="132" y="121"/>
      <point x="296" y="-43"/>
      <point x="499" y="-43" type="curve" smooth="yes"/>
    </contour>
  </outline>
</glyph>
<glyph name="K.001" format="1">
  <advance width="628"/>
  <note>
    K
  </note>
  <outline>
    <contour>
      <point x="132" y="165" type="line"/>
      <point x="608" y="640" type="line"/>
      <point x="490" y="640" type="line"/>
      <point x="134" y="269" type="line"/>
    </contour>
    <contour>
      <point x="151" y="0" type="line"/>
      <point x="151" y="640" type="line"/>
      <point x="71" y="640" type="line"/>
      <point x="71" y="0" type="line"/>
    </contour>
    <contour>
      <point x="242" y="350" type="line"/>
      <point x="523" y="0" type="line"/>
      <point x="628" y="0" type="line"/>
      <point x="322" y="389" type="line"/>
    </contour>
  </outline>
</glyph>
<glyph name="L.001" format="1">
  <advance width="494"/>
  <note>
    L
  </note>
  <outline>
    <contour>
      <point x="77" y="0" type="line"/>
      <point x="77" y="640" type="line"/>
      <point x="157" y="640" type="line"/>
      <point x="157" y="71" type="line"/>
      <point x="482" y="71" type="line"/>
      <point x="482" y="0" type="line"/>
    </contour>
  </outline>
</glyph>
<glyph name="R.001" format="1">
  <advance width="608"/>
  <note>
    R
  </note>
  <outline>
    <contour>
      <point x="76" y="0" type="line"/>
      <point x="156" y="0" type="line"/>
      <point x="156" y="267" type="line"/>
      <point x="263" y="267" type="line"/>
      <point x="454" y="0" type="line"/>
      <point x="550" y="0" type="line"/>
      <point x="356" y="264" type="line"/>
      <point x="354" y="267" type="line"/>
      <point x="497" y="267"/>
      <point x="568" y="333"/>
      <point x="568" y="456" type="curve" smooth="yes"/>
      <point x="568" y="572"/>
      <point x="489" y="641"/>
      <point x="359" y="641" type="curve" smooth="yes"/>
      <point x="76" y="641" type="line"/>
    </contour>
    <contour>
      <point x="344" y="561" type="line" smooth="yes"/>
      <point x="424" y="561"/>
      <point x="488" y="528"/>
      <point x="488" y="447" type="curve" smooth="yes"/>
      <point x="488" y="366"/>
      <point x="430" y="337"/>
      <point x="354" y="337" type="curve" smooth="yes"/>
      <point x="156" y="337" type="line"/>
      <point x="156" y="561" type="line"/>
    </contour>
  </outline>
</glyph>
<glyph name=".notdef" format="1">
  <advance width="598"/>
  <note>
    .notdef
  </note>
  <outline>
    <contour>
      <point x="40" y="71" type="line"/>
      <point x="-1" y="1" type="line"/>
      <point x="2" y="-2" type="line"/>
      <point x="60" y="53" type="line"/>
    </contour>
    <contour>
      <point x="184" y="405"/>
      <point x="209" y="423"/>
      <point x="225" y="423" type="curve" smooth="yes"/>
      <point x="231" y="423"/>
      <point x="235" y="420"/>
      <point x="235" y="415" type="curve" smooth="yes"/>
      <point x="235" y="406"/>
      <point x="215" y="399"/>
      <point x="184" y="352" type="curve" smooth="yes"/>
      <point x="153" y="304"/>
      <point x="145" y="251"/>
      <point x="138" y="251" type="curve" smooth="yes"/>
      <point x="131" y="251"/>
      <point x="129" y="264"/>
      <point x="129" y="277" type="curve" smooth="yes"/>
      <point x="129" y="301"/>
      <point x="140" y="338"/>
      <point x="161" y="370" type="curve" smooth="yes"/>
    </contour>
    <contour>
      <point x="546" y="666" type="line"/>
      <point x="584" y="730" type="line"/>
      <point x="582" y="732" type="line"/>
      <point x="524" y="685" type="line"/>
    </contour>
    <contour>
      <point x="298" y="397" type="line"/>
      <point x="315" y="454" type="line"/>
      <point x="300" y="465"/>
      <point x="283" y="465"/>
      <point x="274" y="465" type="curve" smooth="yes"/>
      <point x="225" y="465"/>
      <point x="170" y="435"/>
      <point x="137" y="385" type="curve" smooth="yes"/>
      <point x="115" y="352"/>
      <point x="96" y="303"/>
      <point x="96" y="260" type="curve" smooth="yes"/>
      <point x="96" y="230"/>
      <point x="105" y="202"/>
      <point x="130" y="183" type="curve"/>
      <point x="40" y="71" type="line"/>
      <point x="60" y="53" type="line"/>
      <point x="152" y="168" type="line"/>
      <point x="164" y="148"/>
      <point x="185" y="138"/>
      <point x="211" y="138" type="curve" smooth="yes"/>
      <point x="260" y="138"/>
      <point x="324" y="172"/>
      <point x="364" y="237" type="curve" smooth="yes"/>
      <point x="385" y="271"/>
      <point x="399" y="309"/>
      <point x="399" y="344" type="curve" smooth="yes"/>
      <point x="399" y="377"/>
      <point x="386" y="407"/>
      <point x="358" y="428" type="curve"/>
      <point x="546" y="666" type="line"/>
      <point x="524" y="685" type="line"/>
      <point x="300" y="396" type="line"/>
    </contour>
  </outline>
</glyph>
<glyph name="c.001" format="1">
  <advance width="488"/>
  <note>
    c
  </note>
  <outline>
    <contour>
      <point x="435" y="114" type="line"/>
      <point x="398" y="80"/>
      <point x="348" y="60"/>
      <point x="284" y="60" type="curve" smooth="yes"/>
      <point x="180" y="60"/>
      <point x="117" y="131"/>
      <point x="117" y="228" type="curve" smooth="yes"/>
      <point x="117" y="347"/>
      <point x="191" y="391"/>
      <point x="281" y="391" type="curve" smooth="yes"/>
      <point x="332" y="391"/>
      <point x="387" y="373"/>
      <point x="438" y="338" type="curve"/>
      <point x="438" y="410" type="line"/>
      <point x="408" y="443"/>
      <point x="342" y="470"/>
      <point x="267" y="470" type="curve" smooth="yes"/>
      <point x="123" y="470"/>
      <point x="40" y="383"/>
      <point x="40" y="223" type="curve" smooth="yes"/>
      <point x="40" y="78"/>
      <point x="148" y="-10"/>
      <point x="271" y="-10" type="curve" smooth="yes"/>
      <point x="350" y="-10"/>
      <point x="397" y="19"/>
      <point x="435" y="51" type="curve"/>
    </contour>
  </outline>
</glyph>
<glyph name="eight.osf" format="1">
  <advance width="600"/>
  <outline>
    <contour>
      <point x="480" y="363"/>
      <point x="504" y="424"/>
      <point x="504" y="481" type="curve" smooth="yes"/>
      <point x="504" y="587"/>
      <point x="416" y="650"/>
      <point x="301" y="650" type="curve" smooth="yes"/>
      <point x="189" y="650"/>
      <point x="101" y="587"/>
      <point x="101" y="481" type="curve" smooth="yes"/>
      <point x="101" y="414"/>
      <point x="130" y="362"/>
      <point x="174" y="335" type="curve"/>
      <point x="110" y="311"/>
      <point x="76" y="239"/>
      <point x="76" y="182" type="curve" smooth="yes"/>
      <point x="76" y="55"/>
      <point x="183" y="-9"/>
      <point x="299" y="-9" type="curve" smooth="yes"/>
      <point x="427" y="-9"/>
      <point x="529" y="55"/>
      <point x="529" y="182" type="curve" smooth="yes"/>
      <point x="529" y="237"/>
      <point x="491" y="316"/>
      <point x="431" y="336" type="curve"/>
    </contour>
    <contour>
      <point x="371" y="574"/>
      <point x="422" y="537"/>
      <point x="422" y="465" type="curve" smooth="yes"/>
      <point x="422" y="408"/>
      <point x="388" y="356"/>
      <point x="300" y="356" type="curve" smooth="yes"/>
      <point x="220" y="356"/>
      <point x="181" y="404"/>
      <point x="181" y="465" type="curve" smooth="yes"/>
      <point x="181" y="537"/>
      <point x="232" y="574"/>
      <point x="300" y="574" type="curve" smooth="yes"/>
    </contour>
    <contour>
      <point x="221" y="60"/>
      <point x="157" y="100"/>
      <point x="157" y="182" type="curve" smooth="yes"/>
      <point x="157" y="252"/>
      <point x="199" y="298"/>
      <point x="301" y="298" type="curve" smooth="yes"/>
      <point x="399" y="298"/>
      <point x="450" y="257"/>
      <point x="450" y="182" type="curve" smooth="yes"/>
      <point x="450" y="100"/>
      <point x="394" y="60"/>
      <point x="301" y="60" type="curve" smooth="yes"/>
    </contour>
  </outline>
</glyph>
<glyph name="five.osf" format="1">
  <advance width="600"/>
  <outline>
    <contour>
      <point x="126" y="118"/>
      <point x="215" y="143"/>
      <point x="272" y="141" type="curve" smooth="yes"/>
      <point x="362" y="138"/>
      <point x="428" y="99"/>
      <point x="428" y="13" type="curve" smooth="yes"/>
      <point x="428" y="-71"/>
      <point x="362" y="-116"/>
      <point x="270" y="-116" type="curve" smooth="yes"/>
      <point x="175" y="-116"/>
      <point x="115" y="-80"/>
      <point x="70" y="-47" type="curve"/>
      <point x="70" y="-119" type="line"/>
      <point x="115" y="-159"/>
      <point x="175" y="-189"/>
      <point x="270" y="-189" type="curve" smooth="yes"/>
      <point x="401" y="-189"/>
      <point x="508" y="-115"/>
      <point x="508" y="13" type="curve" smooth="yes"/>
      <point x="508" y="168"/>
      <point x="380" y="211"/>
      <point x="264" y="208" type="curve" smooth="yes"/>
      <point x="219" y="207"/>
      <point x="173" y="196"/>
      <point x="133" y="177" type="curve"/>
      <point x="150" y="117" type="line"/>
      <point x="150" y="381" type="line"/>
      <point x="456" y="381" type="line"/>
      <point x="456" y="460" type="line"/>
      <point x="70" y="460" type="line"/>
      <point x="70" y="91" type="line"/>
      <point x="70" y="84" type="line"/>
    </contour>
  </outline>
</glyph>
<glyph name="four.osf" format="1">
  <advance width="600"/>
  <outline>
    <contour>
      <point x="364" y="0" type="line"/>
      <point x="364" y="-131" type="line"/>
      <point x="443" y="-131" type="line"/>
      <point x="443" y="0" type="line"/>
      <point x="540" y="0" type="line"/>
      <point x="540" y="72" type="line"/>
      <point x="443" y="72" type="line"/>
      <point x="443" y="459" type="line"/>
      <point x="311" y="459" type="line"/>
      <point x="51" y="70" type="line"/>
      <point x="50" y="0" type="line"/>
    </contour>
    <contour>
      <point x="364" y="410" type="line"/>
      <point x="364" y="70" type="line"/>
      <point x="139" y="70" type="line"/>
    </contour>
  </outline>
</glyph>
<glyph name="nine.osf" format="1">
  <advance width="600"/>
  <outline>
    <contour>
      <point x="447" y="224" type="line"/>
      <point x="447" y="151"/>
      <point x="396" y="65"/>
      <point x="279" y="65" type="curve" smooth="yes"/>
      <point x="175" y="65"/>
      <point x="136" y="133"/>
      <point x="136" y="211" type="curve" smooth="yes"/>
      <point x="136" y="278"/>
      <point x="192" y="337"/>
      <point x="270" y="337" type="curve" smooth="yes"/>
      <point x="405" y="337"/>
      <point x="432" y="221"/>
      <point x="432" y="120" type="curve" smooth="yes"/>
      <point x="432" y="-56"/>
      <point x="368" y="-172"/>
      <point x="237" y="-172" type="curve" smooth="yes"/>
      <point x="188" y="-172"/>
      <point x="127" y="-154"/>
      <point x="99" y="-125" type="curve"/>
      <point x="99" y="-190" type="line"/>
      <point x="139" y="-231"/>
      <point x="199" y="-242"/>
      <point x="248" y="-242" type="curve" smooth="yes"/>
      <point x="391" y="-242"/>
      <point x="502" y="-110"/>
      <point x="502" y="111" type="curve" smooth="yes"/>
      <point x="502" y="294"/>
      <point x="442" y="419"/>
      <point x="270" y="419" type="curve" smooth="yes"/>
      <point x="147" y="419"/>
      <point x="60" y="326"/>
      <point x="60" y="205" type="curve" smooth="yes"/>
      <point x="60" y="78"/>
      <point x="159" y="0"/>
      <point x="264" y="0" type="curve" smooth="yes"/>
      <point x="401" y="0"/>
      <point x="454" y="90"/>
      <point x="482" y="144" type="curve"/>
    </contour>
  </outline>
</glyph>
<glyph name="numbersign.001" format="1">
  <advance width="672"/>
  <note>
    numbersign
  </note>
  <outline>
    <contour>
      <point x="129" y="369" type="line"/>
      <point x="600" y="371" type="line"/>
      <point x="600" y="418" type="line"/>
      <point x="129" y="417" type="line"/>
    </contour>
    <contour>
      <point x="129" y="129" type="line"/>
      <point x="600" y="131" type="line"/>
      <point x="600" y="180" type="line"/>
      <point x="129" y="176" type="line"/>
    </contour>
    <contour>
      <point x="306" y="0" type="line"/>
      <point x="252" y="521" type="line"/>
      <point x="203" y="521" type="line"/>
      <point x="257" y="0" type="line"/>
    </contour>
    <contour>
      <point x="523" y="0" type="line"/>
      <point x="471" y="521" type="line"/>
      <point x="421" y="521" type="line"/>
      <point x="473" y="0" type="line"/>
    </contour>
  </outline>
</glyph>
<glyph name="one.osf" format="1">
  <advance width="401"/>
  <outline>
    <contour>
      <point x="303" y="0" type="line"/>
      <point x="303" y="460" type="line"/>
      <point x="225" y="460" type="line"/>
      <point x="159" y="412"/>
      <point x="92" y="364"/>
      <point x="26" y="316" type="curve"/>
      <point x="26" y="231" type="line"/>
      <point x="92" y="276"/>
      <point x="157" y="321"/>
      <point x="223" y="366" type="curve"/>
      <point x="223" y="0" type="line"/>
    </contour>
  </outline>
</glyph>
<glyph name="seven.osf" format="1">
  <advance width="600"/>
  <outline>
    <contour>
      <point x="479" y="468" type="line"/>
      <point x="479" y="390" type="line"/>
      <point x="281" y="206"/>
      <point x="213" y="-113"/>
      <point x="215" y="-172" type="curve"/>
      <point x="130" y="-172" type="line"/>
      <point x="146" y="-67"/>
      <point x="189" y="153"/>
      <point x="391" y="388" type="curve"/>
      <point x="35" y="387" type="line"/>
      <point x="35" y="468" type="line"/>
    </contour>
  </outline>
</glyph>
<glyph name="six.osf" format="1">
  <advance width="600"/>
  <outline>
    <contour>
      <point x="205" y="391"/>
      <point x="133" y="334"/>
      <point x="111" y="275" type="curve"/>
      <point x="110" y="291"/>
      <point x="110" y="285"/>
      <point x="110" y="300" type="curve" smooth="yes"/>
      <point x="110" y="466"/>
      <point x="174" y="575"/>
      <point x="305" y="575" type="curve" smooth="yes"/>
      <point x="347" y="575"/>
      <point x="396" y="563"/>
      <point x="451" y="534" type="curve"/>
      <point x="451" y="607" type="line"/>
      <point x="413" y="635"/>
      <point x="348" y="650"/>
      <point x="299" y="650" type="curve" smooth="yes"/>
      <point x="120" y="650"/>
      <point x="39" y="511"/>
      <point x="39" y="300" type="curve" smooth="yes"/>
      <point x="39" y="144"/>
      <point x="112" y="-11"/>
      <point x="284" y="-11" type="curve" smooth="yes"/>
      <point x="408" y="-11"/>
      <point x="494" y="76"/>
      <point x="494" y="200" type="curve" smooth="yes"/>
      <point x="494" y="323"/>
      <point x="412" y="391"/>
      <point x="296" y="391" type="curve" smooth="yes"/>
    </contour>
    <contour>
      <point x="187" y="59"/>
      <point x="140" y="139"/>
      <point x="128" y="207" type="curve"/>
      <point x="140" y="251"/>
      <point x="190" y="323"/>
      <point x="290" y="323" type="curve" smooth="yes"/>
      <point x="380" y="323"/>
      <point x="424" y="260"/>
      <point x="424" y="192" type="curve" smooth="yes"/>
      <point x="424" y="111"/>
      <point x="368" y="59"/>
      <point x="284" y="59" type="curve" smooth="yes"/>
    </contour>
  </outline>
</glyph>
<glyph name="three.osf" format="1">
  <advance width="600"/>
  <outline>
    <contour>
      <point x="71" y="-101" type="line"/>
      <point x="107" y="-156"/>
      <point x="187" y="-193"/>
      <point x="287" y="-193" type="curve" smooth="yes"/>
      <point x="418" y="-193"/>
      <point x="533" y="-106"/>
      <point x="533" y="15" type="curve" smooth="yes"/>
      <point x="533" y="168"/>
      <point x="390" y="216"/>
      <point x="240" y="199" type="curve"/>
      <point x="240" y="172" type="line"/>
      <point x="479" y="382" type="line"/>
      <point x="479" y="457" type="line"/>
      <point x="73" y="457" type="line"/>
      <point x="73" y="382" type="line"/>
      <point x="376" y="382" type="line"/>
      <point x="169" y="176" type="line"/>
      <point x="169" y="126" type="line"/>
      <point x="246" y="147"/>
      <point x="453" y="156"/>
      <point x="453" y="21" type="curve" smooth="yes"/>
      <point x="453" y="-63"/>
      <point x="391" y="-123"/>
      <point x="277" y="-123" type="curve" smooth="yes"/>
      <point x="159" y="-123"/>
      <point x="106" y="-62"/>
      <point x="71" y="-31" type="curve"/>
    </contour>
  </outline>
</glyph>
<glyph name="two.001" format="1">
  <advance width="531"/>
  <note>
    two
  </note>
  <outline>
    <contour>
      <point x="72" y="515" type="curve"/>
      <point x="72" y="582" type="line"/>
      <point x="101" y="621"/>
      <point x="159" y="650"/>
      <point x="242" y="650" type="curve" smooth="yes"/>
      <point x="331" y="650"/>
      <point x="465" y="613"/>
      <point x="465" y="432" type="curve" smooth="yes"/>
      <point x="465" y="234"/>
      <point x="218" y="96"/>
      <point x="174" y="70" type="curve"/>
      <point x="481" y="70" type="line"/>
      <point x="481" y="0" type="line"/>
      <point x="50" y="0" type="line"/>
      <point x="51" y="70" type="line"/>
      <point x="148" y="125"/>
      <point x="383" y="274"/>
      <point x="383" y="419" type="curve" smooth="yes"/>
      <point x="383" y="546"/>
      <point x="282" y="568"/>
      <point x="230" y="568" type="curve" smooth="yes"/>
      <point x="148" y="568"/>
      <point x="106" y="537"/>
    </contour>
  </outline>
</glyph>
<glyph name="two.osf" format="1">
  <advance width="600"/>
  <outline>
    <contour>
      <point x="72" y="392" type="line"/>
      <point x="88" y="414"/>
      <point x="169" y="460"/>
      <point x="252" y="460" type="curve" smooth="yes"/>
      <point x="341" y="460"/>
      <point x="461" y="434"/>
      <point x="457" y="292" type="curve" smooth="yes"/>
      <point x="452" y="128"/>
      <point x="196" y="74"/>
      <point x="174" y="68" type="curve"/>
      <point x="481" y="68" type="line"/>
      <point x="481" y="-2" type="line"/>
      <point x="50" y="-2" type="line"/>
      <point x="51" y="68" type="line"/>
      <point x="174" y="98"/>
      <point x="365" y="202"/>
      <point x="365" y="292" type="curve" smooth="yes"/>
      <point x="365" y="374"/>
      <point x="282" y="382"/>
      <point x="230" y="382" type="curve" smooth="yes"/>
      <point x="168" y="382"/>
      <point x="106" y="347"/>
      <point x="72" y="325" type="curve"/>
    </contour>
  </outline>
</glyph>
<glyph name="zero.001" format="1">
  <advance width="591"/>
  <note>
    zero
  </note>
  <outline>
    <contour>
      <point x="417" y="-11"/>
      <point x="541" y="100"/>
      <point x="541" y="329" type="curve" smooth="yes"/>
      <point x="541" y="566"/>
      <point x="421" y="650"/>
      <point x="296" y="650" type="curve" smooth="yes"/>
      <point x="169" y="650"/>
      <point x="50" y="561"/>
      <point x="50" y="329" type="curve" smooth="yes"/>
      <point x="50" y="96"/>
      <point x="177" y="-11"/>
      <point x="296" y="-11" type="curve" smooth="yes"/>
    </contour>
    <contour>
      <point x="382" y="574"/>
      <point x="465" y="509"/>
      <point x="465" y="323" type="curve" smooth="yes"/>
      <point x="465" y="132"/>
      <point x="376" y="56"/>
      <point x="296" y="56" type="curve" smooth="yes"/>
      <point x="214" y="56"/>
      <point x="127" y="139"/>
      <point x="128" y="323" type="curve"/>
      <point x="127" y="515"/>
      <point x="210" y="574"/>
      <point x="296" y="574" type="curve" smooth="yes"/>
    </contour>
  </outline>
</glyph>
<glyph name="zero.osf" format="1">
  <advance width="534"/>
  <outline>
    <contour>
      <point x="494" y="377"/>
      <point x="407" y="471"/>
      <point x="267" y="471" type="curve" smooth="yes"/>
      <point x="135" y="471"/>
      <point x="40" y="387"/>
      <point x="40" y="231" type="curve" smooth="yes"/>
      <point x="40" y="92"/>
      <point x="139" y="-10"/>
      <point x="267" y="-10" type="curve" smooth="yes"/>
      <point x="386" y="-10"/>
      <point x="494" y="81"/>
      <point x="494" y="231" type="curve" smooth="yes"/>
    </contour>
    <contour>
      <point x="415" y="135"/>
      <point x="358" y="60"/>
      <point x="267" y="60" type="curve" smooth="yes"/>
      <point x="185" y="60"/>
      <point x="119" y="123"/>
      <point x="119" y="231" type="curve" smooth="yes"/>
      <point x="119" y="332"/>
      <point x="169" y="387"/>
      <point x="267" y="391" type="curve" smooth="yes"/>
      <point x="363" y="388"/>
      <point x="415" y="335"/>
      <point x="415" y="231" type="curve" smooth="yes"/>
    </contour>
    <contour>
      <point x="291" y="181"/>
      <point x="311" y="201"/>
      <point x="311" y="225" type="curve" smooth="yes"/>
      <point x="311" y="249"/>
      <point x="291" y="269"/>
      <point x="267" y="269" type="curve" smooth="yes"/>
      <point x="243" y="269"/>
      <point x="223" y="249"/>
      <point x="223" y="225" type="curve" smooth="yes"/>
      <point x="223" y="201"/>
      <point x="243" y="181"/>
      <point x="267" y="181" type="curve" smooth="yes"/>
    </contour>
  </outline>
</glyph>
